  0
SECTION
  2
HEADER
  9
$ACADVER
  1
AC1018
  9
$ACADMAINTVER
 70
     0
  9
$DWGCODEPAGE
  3
ASCII
  9
$INSBASE
 10
0.0
 20
0.0
 30
0.0
  9
$EXTMIN
 10
1.000000000000000E+20
 20
1.000000000000000E+20
 30
1.000000000000000E+20
  9
$EXTMAX
 10
-1.000000000000000E+20
 20
-1.000000000000000E+20
 30
-1.000000000000000E+20
  9
$LIMMIN
 10
0.0
 20
0.0
  9
$LIMMAX
 10
12.0
 20
9.0
  9
$ORTHOMODE
 70
     0
  9
$REGENMODE
 70
     1
  9
$FILLMODE
 70
     1
  9
$QTEXTMODE
 70
     0
  9
$MIRRTEXT
 70
     1
  9
$LTSCALE
 40
1.0
  9
$ATTMODE
 70
     1
  9
$TEXTSIZE
 40
0.2
  9
$TRACEWID
 40
0.05
  9
$TEXTSTYLE
  7
Standard
  9
$CLAYER
  8
0
  9
$CELTYPE
  6
ByLayer
  9
$CECOLOR
 62
   256
  9
$CELTSCALE
 40
1.0
  9
$DISPSILH
 70
     0
  9
$DIMSCALE
 40
1.0
  9
$DIMASZ
 40
0.18
  9
$DIMEXO
 40
0.0625
  9
$DIMDLI
 40
0.38
  9
$DIMRND
 40
0.0
  9
$DIMDLE
 40
0.0
  9
$DIMEXE
 40
0.18
  9
$DIMTP
 40
0.0
  9
$DIMTM
 40
0.0
  9
$DIMTXT
 40
0.18
  9
$DIMCEN
 40
0.09
  9
$DIMTSZ
 40
0.0
  9
$DIMTOL
 70
     0
  9
$DIMLIM
 70
     0
  9
$DIMTIH
 70
     1
  9
$DIMTOH
 70
     1
  9
$DIMSE1
 70
     0
  9
$DIMSE2
 70
     0
  9
$DIMTAD
 70
     0
  9
$DIMZIN
 70
     0
  9
$DIMBLK
  1

  9
$DIMASO
 70
     1
  9
$DIMSHO
 70
     1
  9
$DIMPOST
  1

  9
$DIMAPOST
  1

  9
$DIMALT
 70
     0
  9
$DIMALTD
 70
     2
  9
$DIMALTF
 40
25.4
  9
$DIMLFAC
 40
1.0
  9
$DIMTOFL
 70
     0
  9
$DIMTVP
 40
0.0
  9
$DIMTIX
 70
     0
  9
$DIMSOXD
 70
     0
  9
$DIMSAH
 70
     0
  9
$DIMBLK1
  1

  9
$DIMBLK2
  1

  9
$DIMSTYLE
  2
Standard
  9
$DIMCLRD
 70
     0
  9
$DIMCLRE
 70
     0
  9
$DIMCLRT
 70
     0
  9
$DIMTFAC
 40
1.0
  9
$DIMGAP
 40
0.09
  9
$DIMJUST
 70
     0
  9
$DIMSD1
 70
     0
  9
$DIMSD2
 70
     0
  9
$DIMTOLJ
 70
     1
  9
$DIMTZIN
 70
     0
  9
$DIMALTZ
 70
     0
  9
$DIMALTTZ
 70
     0
  9
$DIMUPT
 70
     0
  9
$DIMDEC
 70
     4
  9
$DIMTDEC
 70
     4
  9
$DIMALTU
 70
     2
  9
$DIMALTTD
 70
     2
  9
$DIMTXSTY
  7
Standard
  9
$DIMAUNIT
 70
     0
  9
$DIMADEC
 70
     0
  9
$DIMALTRND
 40
0.0
  9
$DIMAZIN
 70
     0
  9
$DIMDSEP
 70
    46
  9
$DIMATFIT
 70
     3
  9
$DIMFRAC
 70
     0
  9
$DIMLDRBLK
  1

  9
$DIMLUNIT
 70
     2
  9
$DIMLWD
 70
    -2
  9
$DIMLWE
 70
    -2
  9
$DIMTMOVE
 70
     0
  9
$LUNITS
 70
     2
  9
$LUPREC
 70
     4
  9
$SKETCHINC
 40
0.1
  9
$FILLETRAD
 40
0.5
  9
$AUNITS
 70
     0
  9
$AUPREC
 70
     0
  9
$MENU
  1
.
  9
$ELEVATION
 40
0.0
  9
$PELEVATION
 40
0.0
  9
$THICKNESS
 40
0.0
  9
$LIMCHECK
 70
     0
  9
$CHAMFERA
 40
0.5
  9
$CHAMFERB
 40
0.5
  9
$CHAMFERC
 40
1.0
  9
$CHAMFERD
 40
0.0
  9
$SKPOLY
 70
     0
  9
$TDCREATE
 40
2458852.624817303
  9
$TDUCREATE
 40
2458852.395650636
  9
$TDUPDATE
 40
2458852.624817315
  9
$TDUUPDATE
 40
2458852.395650648
  9
$TDINDWG
 40
0.0000000116
  9
$TDUSRTIMER
 40
0.0000000116
  9
$USRTIMER
 70
     1
  9
$ANGBASE
 50
0.0
  9
$ANGDIR
 70
     0
  9
$PDMODE
 70
     0
  9
$PDSIZE
 40
0.0
  9
$PLINEWID
 40
0.0
  9
$SPLFRAME
 70
     0
  9
$SPLINETYPE
 70
     6
  9
$SPLINESEGS
 70
     8
  9
$HANDSEED
  5
79
  9
$SURFTAB1
 70
     6
  9
$SURFTAB2
 70
     6
  9
$SURFTYPE
 70
     6
  9
$SURFU
 70
     6
  9
$SURFV
 70
     6
  9
$UCSBASE
  2

  9
$UCSNAME
  2

  9
$UCSORG
 10
0.0
 20
0.0
 30
0.0
  9
$UCSXDIR
 10
1.0
 20
0.0
 30
0.0
  9
$UCSYDIR
 10
0.0
 20
1.0
 30
0.0
  9
$UCSORTHOREF
  2

  9
$UCSORTHOVIEW
 70
     0
  9
$UCSORGTOP
 10
0.0
 20
0.0
 30
0.0
  9
$UCSORGBOTTOM
 10
0.0
 20
0.0
 30
0.0
  9
$UCSORGLEFT
 10
0.0
 20
0.0
 30
0.0
  9
$UCSORGRIGHT
 10
0.0
 20
0.0
 30
0.0
  9
$UCSORGFRONT
 10
0.0
 20
0.0
 30
0.0
  9
$UCSORGBACK
 10
0.0
 20
0.0
 30
0.0
  9
$PUCSBASE
  2

  9
$PUCSNAME
  2

  9
$PUCSORG
 10
0.0
 20
0.0
 30
0.0
  9
$PUCSXDIR
 10
1.0
 20
0.0
 30
0.0
  9
$PUCSYDIR
 10
0.0
 20
1.0
 30
0.0
  9
$PUCSORTHOREF
  2

  9
$PUCSORTHOVIEW
 70
     0
  9
$PUCSORGTOP
 10
0.0
 20
0.0
 30
0.0
  9
$PUCSORGBOTTOM
 10
0.0
 20
0.0
 30
0.0
  9
$PUCSORGLEFT
 10
0.0
 20
0.0
 30
0.0
  9
$PUCSORGRIGHT
 10
0.0
 20
0.0
 30
0.0
  9
$PUCSORGFRONT
 10
0.0
 20
0.0
 30
0.0
  9
$PUCSORGBACK
 10
0.0
 20
0.0
 30
0.0
  9
$USERI1
 70
     0
  9
$USERI2
 70
     0
  9
$USERI3
 70
     0
  9
$USERI4
 70
     0
  9
$USERI5
 70
     0
  9
$USERR1
 40
0.0
  9
$USERR2
 40
0.0
  9
$USERR3
 40
0.0
  9
$USERR4
 40
0.0
  9
$USERR5
 40
0.0
  9
$WORLDVIEW
 70
     1
  9
$SHADEDGE
 70
     3
  9
$SHADEDIF
 70
    70
  9
$TILEMODE
 70
     1
  9
$MAXACTVP
 70
    64
  9
$PINSBASE
 10
0.0
 20
0.0
 30
0.0
  9
$PLIMCHECK
 70
     0
  9
$PEXTMIN
 10
1.000000000000000E+20
 20
1.000000000000000E+20
 30
1.000000000000000E+20
  9
$PEXTMAX
 10
-1.000000000000000E+20
 20
-1.000000000000000E+20
 30
-1.000000000000000E+20
  9
$PLIMMIN
 10
0.0
 20
0.0
  9
$PLIMMAX
 10
12.0
 20
9.0
  9
$UNITMODE
 70
     0
  9
$VISRETAIN
 70
     1
  9
$PLINEGEN
 70
     0
  9
$PSLTSCALE
 70
     1
  9
$TREEDEPTH
 70
  3020
  9
$CMLSTYLE
  2
Standard
  9
$CMLJUST
 70
     0
  9
$CMLSCALE
 40
1.0
  9
$PROXYGRAPHICS
 70
     1
  9
$MEASUREMENT
 70
     0
  9
$CELWEIGHT
370
    -1
  9
$ENDCAPS
280
     0
  9
$JOINSTYLE
280
     0
  9
$LWDISPLAY
290
     1
  9
$INSUNITS
 70
     1
  9
$HYPERLINKBASE
  1

  9
$STYLESHEET
  1

  9
$XEDIT
290
     1
  9
$CEPSNTYPE
380
     0
  9
$PSTYLEMODE
290
     1
  9
$FINGERPRINTGUID
  2
{141B497F-EDE8-4FCF-9F6D-33A6A0995A8C}
  9
$VERSIONGUID
  2
{FAEB1C32-E019-11D5-929B-00C0DF256EC4}
  9
$EXTNAMES
290
     1
  9
$PSVPSCALE
 40
0.0
  9
$OLESTARTUP
290
     0
  9
$SORTENTS
280
   127
  9
$INDEXCTL
280
     0
  9
$HIDETEXT
280
     1
  9
$XCLIPFRAME
290
     0
  9
$HALOGAP
280
     0
  9
$OBSCOLOR
 70
   257
  9
$OBSLTYPE
280
     0
  9
$INTERSECTIONDISPLAY
280
     0
  9
$INTERSECTIONCOLOR
 70
   257
  9
$DIMASSOC
280
     2
  9
$PROJECTNAME
  1

  0
ENDSEC
  0
SECTION
  2
CLASSES
  0
CLASS
  1
ACDBDICTIONARYWDFLT
  2
AcDbDictionaryWithDefault
  3
ObjectDBX Classes
 90
        0
 91
        3
280
     0
281
     0
  0
CLASS
  1
VISUALSTYLE
  2
AcDbVisualStyle
  3
ObjectDBX Classes
 90
     4095
 91
        3
280
     0
281
     0
  0
ENDSEC
  0
SECTION
  2
TABLES
  0
TABLE
  2
VPORT
  5
8
330
0
100
AcDbSymbolTable
 70
     1
  0
VPORT
  5
29
330
8
100
AcDbSymbolTableRecord
100
AcDbViewportTableRecord
  2
*Active
 70
     0
 10
0.0
 20
0.0
 11
1.0
 21
1.0
 12
0.0
 22
0.0
 13
0.0
 23
0.0
 14
0.5
 24
0.5
 15
0.5
 25
0.5
 16
0.0
 26
0.0
 36
1.0
 17
250.5
 27
249.5
 37
0.0
 40
500.0
 41
1.0
 42
50.0
 43
0.0
 44
0.0
 50
0.0
 51
0.0
 71
     0
 72
   100
 73
     1
 74
     3
 75
     0
 76
     0
 77
     0
 78
     0
281
     0
 65
     1
110
0.0
120
0.0
130
0.0
111
1.0
121
0.0
131
0.0
112
0.0
122
1.0
132
0.0
 79
     0
146
0.0
  0
ENDTAB
  0
TABLE
  2
LTYPE
  5
5
330
0
100
AcDbSymbolTable
 70
     1
  0
LTYPE
  5
14
330
5
100
AcDbSymbolTableRecord
100
AcDbLinetypeTableRecord
  2
ByBlock
 70
     0
  3

 72
    65
 73
     0
 40
0.0
  0
LTYPE
  5
15
330
5
100
AcDbSymbolTableRecord
100
AcDbLinetypeTableRecord
  2
ByLayer
 70
     0
  3

 72
    65
 73
     0
 40
0.0
  0
LTYPE
  5
16
330
5
100
AcDbSymbolTableRecord
100
AcDbLinetypeTableRecord
  2
Continuous
 70
     0
  3
Solid line
 72
    65
 73
     0
 40
0.0
  0
ENDTAB
  0
TABLE
  2
LAYER
  5
2
330
0
100
AcDbSymbolTable
 70
     2
  0
LAYER
  5
10
330
2
100
AcDbSymbolTableRecord
100
AcDbLayerTableRecord
  2
0
 70
     0
 62
     7
  6
Continuous
370
    -3
390
F
  0
LAYER
  5
3B
330
2
100
AcDbSymbolTableRecord
100
AcDbLayerTableRecord
  2
Layer 1
 70
     0
 62
     7
  6
Continuous
370
    -3
390
F
  0
ENDTAB
  0
TABLE
  2
STYLE
  5
3
330
0
100
AcDbSymbolTable
 70
     1
  0
STYLE
  5
11
330
3
100
AcDbSymbolTableRecord
100
AcDbTextStyleTableRecord
  2
Standard
 70
     0
 40
0.0
 41
1.0
 50
0.0
 71
     0
 42
0.2
  3
txt
  4

  0
ENDTAB
  0
TABLE
  2
VIEW
  5
6
330
0
100
AcDbSymbolTable
 70
     0
  0
ENDTAB
  0
TABLE
  2
UCS
  5
7
330
0
100
AcDbSymbolTable
 70
     0
  0
ENDTAB
  0
TABLE
  2
APPID
  5
9
330
0
100
AcDbSymbolTable
 70
     1
  0
APPID
  5
12
330
9
100
AcDbSymbolTableRecord
100
AcDbRegAppTableRecord
  2
ACAD
 70
     0
  0
ENDTAB
  0
TABLE
  2
DIMSTYLE
  5
A
330
0
100
AcDbSymbolTable
 70
     1
100
AcDbDimStyleTable
  0
DIMSTYLE
105
27
330
A
100
AcDbSymbolTableRecord
100
AcDbDimStyleTableRecord
  2
Standard
 70
     0
340
11
  0
ENDTAB
  0
TABLE
  2
BLOCK_RECORD
  5
1
330
0
100
AcDbSymbolTable
 70
    11
  0
BLOCK_RECORD
  5
1F
330
1
100
AcDbSymbolTableRecord
100
AcDbBlockTableRecord
  2
*Model_Space
340
22
  0
BLOCK_RECORD
  5
1B
330
1
100
AcDbSymbolTableRecord
100
AcDbBlockTableRecord
  2
*Paper_Space
340
1E
  0
BLOCK_RECORD
  5
23
330
1
100
AcDbSymbolTableRecord
100
AcDbBlockTableRecord
  2
*Paper_Space0
340
26
  0
BLOCK_RECORD
  5
3C
330
1
100
AcDbSymbolTableRecord
100
AcDbBlockTableRecord
  2
block 2
340
0
102
{BLKREFS
331
3D
102
}
  0
BLOCK_RECORD
  5
42
330
1
100
AcDbSymbolTableRecord
100
AcDbBlockTableRecord
  2
block 3
340
0
102
{BLKREFS
331
43
102
}
  0
BLOCK_RECORD
  5
48
330
1
100
AcDbSymbolTableRecord
100
AcDbBlockTableRecord
  2
block 4
340
0
102
{BLKREFS
331
49
102
}
  0
BLOCK_RECORD
  5
4E
330
1
100
AcDbSymbolTableRecord
100
AcDbBlockTableRecord
  2
block 5
340
0
102
{BLKREFS
331
4F
102
}
  0
BLOCK_RECORD
  5
54
330
1
100
AcDbSymbolTableRecord
100
AcDbBlockTableRecord
  2
block 6
340
0
102
{BLKREFS
331
55
102
}
  0
BLOCK_RECORD
  5
5A
330
1
100
AcDbSymbolTableRecord
100
AcDbBlockTableRecord
  2
block 7
340
0
102
{BLKREFS
331
5B
102
}
  0
BLOCK_RECORD
  5
60
330
1
100
AcDbSymbolTableRecord
100
AcDbBlockTableRecord
  2
block 8
340
0
102
{BLKREFS
331
61
102
}
  0
BLOCK_RECORD
  5
66
330
1
100
AcDbSymbolTableRecord
100
AcDbBlockTableRecord
  2
block 9
340
0
102
{BLKREFS
331
67
102
}
  0
BLOCK_RECORD
  5
6C
330
1
100
AcDbSymbolTableRecord
100
AcDbBlockTableRecord
  2
block 10
340
0
102
{BLKREFS
331
6D
102
}
  0
BLOCK_RECORD
  5
72
330
1
100
AcDbSymbolTableRecord
100
AcDbBlockTableRecord
  2
block 11
340
0
102
{BLKREFS
331
73
102
}
  0
ENDTAB
  0
ENDSEC
  0
SECTION
  2
BLOCKS
  0
BLOCK
  5
20
330
1F
100
AcDbEntity
  8
0
100
AcDbBlockBegin
  2
*Model_Space
 70
     0
 71
     0
 10
0.0
 20
0.0
 30
0.0
  3
*Model_Space
  1

  0
ENDBLK
  5
21
330
1F
100
AcDbEntity
  8
0
100
AcDbBlockEnd
  0
BLOCK
  5
1C
330
1B
100
AcDbEntity
 67
     1
  8
0
100
AcDbBlockBegin
  2
*Paper_Space
 70
     0
 71
     0
 10
0.0
 20
0.0
 30
0.0
  3
*Paper_Space
  1

  0
ENDBLK
  5
1D
330
1B
100
AcDbEntity
 67
     1
  8
0
100
AcDbBlockEnd
  0
BLOCK
  5
24
330
23
100
AcDbEntity
  8
0
100
AcDbBlockBegin
  2
*Paper_Space0
 70
     0
 71
     0
 10
0.0
 20
0.0
 30
0.0
  3
*Paper_Space0
  1

  0
ENDBLK
  5
25
330
23
100
AcDbEntity
  8
0
100
AcDbBlockEnd
  0
BLOCK
  5
3E
330
3C
100
AcDbEntity
  8
0
100
AcDbBlockBegin
  2
block 2
 70
     0
 71
     0
 10
0.0
 20
0.0
 30
0.0
  3
block 2
  1

  0
SPLINE
  5
40
330
3C
100
AcDbEntity
  8
Layer 1
370
     0
100
AcDbSpline
210
0.0
220
0.0
230
1.0
 70
    11
 71
     3
 72
   146
 73
   142
 74
     0
 42
0.0000000001
 43
0.0000000001
 40
0.0
 40
0.0
 40
0.0
 40
0.0
 40
1.0
 40
1.0
 40
1.0
 40
2.0
 40
2.0
 40
2.0
 40
3.0
 40
3.0
 40
3.0
 40
4.0
 40
4.0
 40
4.0
 40
5.0
 40
5.0
 40
5.0
 40
6.0
 40
6.0
 40
6.0
 40
7.0
 40
7.0
 40
7.0
 40
8.0
 40
8.0
 40
8.0
 40
9.0
 40
9.0
 40
9.0
 40
10.0
 40
10.0
 40
10.0
 40
11.0
 40
11.0
 40
11.0
 40
12.0
 40
12.0
 40
12.0
 40
13.0
 40
13.0
 40
13.0
 40
14.0
 40
14.0
 40
14.0
 40
15.0
 40
15.0
 40
15.0
 40
16.0
 40
16.0
 40
16.0
 40
17.0
 40
17.0
 40
17.0
 40
18.0
 40
18.0
 40
18.0
 40
19.0
 40
19.0
 40
19.0
 40
20.0
 40
20.0
 40
20.0
 40
21.0
 40
21.0
 40
21.0
 40
22.0
 40
22.0
 40
22.0
 40
23.0
 40
23.0
 40
23.0
 40
24.0
 40
24.0
 40
24.0
 40
25.0
 40
25.0
 40
25.0
 40
26.0
 40
26.0
 40
26.0
 40
27.0
 40
27.0
 40
27.0
 40
28.0
 40
28.0
 40
28.0
 40
29.0
 40
29.0
 40
29.0
 40
30.0
 40
30.0
 40
30.0
 40
31.0
 40
31.0
 40
31.0
 40
32.0
 40
32.0
 40
32.0
 40
33.0
 40
33.0
 40
33.0
 40
34.0
 40
34.0
 40
34.0
 40
35.0
 40
35.0
 40
35.0
 40
36.0
 40
36.0
 40
36.0
 40
37.0
 40
37.0
 40
37.0
 40
38.0
 40
38.0
 40
38.0
 40
39.0
 40
39.0
 40
39.0
 40
40.0
 40
40.0
 40
40.0
 40
41.0
 40
41.0
 40
41.0
 40
42.0
 40
42.0
 40
42.0
 40
43.0
 40
43.0
 40
43.0
 40
44.0
 40
44.0
 40
44.0
 40
45.0
 40
45.0
 40
45.0
 40
46.0
 40
46.0
 40
46.0
 40
47.0
 40
47.0
 40
47.0
 40
47.0
 10
134.60009765625
 20
252.10107421875
 30
0.0
 10
136.2080078125
 20
252.2080078125
 30
0.0
 10
137.80908203125
 20
252.4091796875
 30
0.0
 10
139.369140625
 20
252.8271484375
 30
0.0
 10
142.90185546875
 20
253.77294921875
 30
0.0
 10
145.93505859375
 20
255.65625
 30
0.0
 10
148.48193359375
 20
258.2060546875
 30
0.0
 10
153.83984375
 20
263.572265625
 30
0.0
 10
156.423828125
 20
270.087890625
 30
0.0
 10
156.01416015625
 20
277.69921875
 30
0.0
 10
155.88623046875
 20
280.06982421875
 30
0.0
 10
155.27392578125
 20
282.3427734375
 30
0.0
 10
153.98388671875
 20
284.380859375
 30
0.0
 10
153.43310546875
 20
285.2509765625
 30
0.0
 10
152.85791015625
 20
286.10791015625
 30
0.0
 10
152.26806640625
 20
286.9521484375
 30
0.0
 10
149.283203125
 20
291.22314453125
 30
0.0
 10
146.041015625
 20
295.298828125
 30
0.0
 10
142.8232421875
 20
299.39306640625
 30
0.0
 10
141.38623046875
 20
301.22216796875
 30
0.0
 10
139.958984375
 20
303.06005859375
 30
0.0
 10
138.69677734375
 20
305.01806640625
 30
0.0
 10
138.48876953125
 20
305.3408203125
 30
0.0
 10
138.0849609375
 20
305.68408203125
 30
0.0
 10
138.28125
 20
306.072265625
 30
0.0
 10
138.505859375
 20
306.51708984375
 30
0.0
 10
139.0400390625
 20
306.31298828125
 30
0.0
 10
139.43798828125
 20
306.31298828125
 30
0.0
 10
151.15283203125
 20
306.3427734375
 30
0.0
 10
162.8681640625
 20
306.36328125
 30
0.0
 10
174.5830078125
 20
306.3837890625
 30
0.0
 10
175.71484375
 20
306.38623046875
 30
0.0
 10
175.71484375
 20
306.38623046875
 30
0.0
 10
175.71484375
 20
305.255859375
 30
0.0
 10
175.7158203125
 20
287.669921875
 30
0.0
 10
175.7158203125
 20
270.083984375
 30
0.0
 10
175.7158203125
 20
252.4990234375
 30
0.0
 10
175.7158203125
 20
251.55615234375
 30
0.0
 10
175.6591796875
 20
251.64892578125
 30
0.0
 10
176.57421875
 20
251.64501953125
 30
0.0
 10
176.57421875
 20
251.64501953125
 30
0.0
 10
176.73291015625
 20
251.64501953125
 30
0.0
 10
176.73291015625
 20
251.64501953125
 30
0.0
 10
186.51708984375
 20
251.64501953125
 30
0.0
 10
196.30224609375
 20
251.64306640625
 30
0.0
 10
206.0859375
 20
251.64599609375
 30
0.0
 10
207.2392578125
 20
251.64697265625
 30
0.0
 10
207.10205078125
 20
251.51513671875
 30
0.0
 10
207.10205078125
 20
252.6572265625
 30
0.0
 10
207.10400390625
 20
270.13720703125
 30
0.0
 10
207.10302734375
 20
287.6171875
 30
0.0
 10
207.10302734375
 20
305.09619140625
 30
0.0
 10
207.10302734375
 20
305.28125
 30
0.0
 10
207.10107421875
 20
305.4658203125
 30
0.0
 10
207.10302734375
 20
305.65087890625
 30
0.0
 10
207.10986328125
 20
306.35595703125
 30
0.0
 10
207.11083984375
 20
306.35595703125
 30
0.0
 10
207.85205078125
 20
306.36083984375
 30
0.0
 10
207.85205078125
 20
306.36083984375
 30
0.0
 10
241.88623046875
 20
306.36083984375
 30
0.0
 10
241.88623046875
 20
306.36083984375
 30
0.0
 10
242.09814453125
 20
306.36083984375
 30
0.0
 10
242.31005859375
 20
306.37109375
 30
0.0
 10
242.52099609375
 20
306.35986328125
 30
0.0
 10
242.82421875
 20
306.3427734375
 30
0.0
 10
242.9619140625
 20
306.47021484375
 30
0.0
 10
242.93701171875
 20
306.77783203125
 30
0.0
 10
242.92578125
 20
306.9091796875
 30
0.0
 10
242.93603515625
 20
307.0419921875
 30
0.0
 10
242.93603515625
 20
307.173828125
 30
0.0
 10
242.93603515625
 20
315.927734375
 30
0.0
 10
242.93701171875
 20
324.68115234375
 30
0.0
 10
242.93408203125
 20
333.43408203125
 30
0.0
 10
242.93408203125
 20
333.72021484375
 30
0.0
 10
242.99609375
 20
334.01806640625
 30
0.0
 10
242.830078125
 20
334.2861328125
 30
0.0
 10
239.76220703125
 20
334.2861328125
 30
0.0
 10
236.69482421875
 20
334.2861328125
 30
0.0
 10
233.6240234375
 20
334.287109375
 30
0.0
 10
233.623046875
 20
334.28662109375
 30
0.0
 10
233.6220703125
 20
334.28662109375
 30
0.0
 10
233.62109375
 20
334.2861328125
 30
0.0
 10
233.62109375
 20
334.2861328125
 30
0.0
 10
201.89306640625
 20
334.2861328125
 30
0.0
 10
201.89306640625
 20
334.2861328125
 30
0.0
 10
201.892578125
 20
334.2861328125
 30
0.0
 10
201.892578125
 20
334.2861328125
 30
0.0
 10
201.89208984375
 20
334.2861328125
 30
0.0
 10
201.89208984375
 20
334.2861328125
 30
0.0
 10
159.68701171875
 20
334.2861328125
 30
0.0
 10
159.68701171875
 20
334.2861328125
 30
0.0
 10
159.6865234375
 20
334.25927734375
 30
0.0
 10
159.68408203125
 20
334.232421875
 30
0.0
 10
159.68212890625
 20
334.205078125
 30
0.0
 10
147.6982421875
 20
334.2060546875
 30
0.0
 10
135.71533203125
 20
334.2001953125
 30
0.0
 10
123.73291015625
 20
334.2099609375
 30
0.0
 10
120.86376953125
 20
334.2119140625
 30
0.0
 10
118.1181640625
 20
333.6669921875
 30
0.0
 10
115.4921875
 20
332.51611328125
 30
0.0
 10
109.97412109375
 20
330.09619140625
 30
0.0
 10
106.06494140625
 20
326.001953125
 30
0.0
 10
103.31201171875
 20
320.73486328125
 30
0.0
 10
101.2587890625
 20
316.80810546875
 30
0.0
 10
100.4091796875
 20
312.6259765625
 30
0.0
 10
100.55322265625
 20
308.18310546875
 30
0.0
 10
100.64501953125
 20
305.333984375
 30
0.0
 10
101.30419921875
 20
302.7138671875
 30
0.0
 10
102.7001953125
 20
300.244140625
 30
0.0
 10
104.19189453125
 20
297.60107421875
 30
0.0
 10
106.1337890625
 20
295.2958984375
 30
0.0
 10
108.076171875
 20
292.994140625
 30
0.0
 10
110.80224609375
 20
289.76318359375
 30
0.0
 10
113.703125
 20
286.68310546875
 30
0.0
 10
116.40478515625
 20
283.43017578125
 30
0.0
 10
116.69384765625
 20
283.08203125
 30
0.0
 10
117.27587890625
 20
282.73193359375
 30
0.0
 10
117.05078125
 20
282.2587890625
 30
0.0
 10
116.8271484375
 20
281.7890625
 30
0.0
 10
116.18896484375
 20
282.0087890625
 30
0.0
 10
115.73193359375
 20
282.0087890625
 30
0.0
 10
101.14208984375
 20
282.0
 30
0.0
 10
86.5498046875
 20
282.0009765625
 30
0.0
 10
71.9580078125
 20
282.0009765625
 30
0.0
 10
65.826171875
 20
282.0009765625
 30
0.0
 10
59.69287109375
 20
282.0029296875
 30
0.0
 10
53.56005859375
 20
281.9970703125
 30
0.0
 10
53.119140625
 20
281.9970703125
 30
0.0
 10
52.65283203125
 20
282.087890625
 30
0.0
 10
52.26513671875
 20
281.76806640625
 30
0.0
 10
52.26513671875
 20
281.76806640625
 30
0.0
 10
52.26513671875
 20
251.62109375
 30
0.0
 10
52.26513671875
 20
251.62109375
 30
0.0
 10
52.47705078125
 20
251.625
 30
0.0
 10
52.68798828125
 20
251.630859375
 30
0.0
 10
52.89892578125
 20
251.630859375
 30
0.0
 10
72.94384765625
 20
251.63623046875
 30
0.0
 10
92.98876953125
 20
251.625
 30
0.0
 10
113.033203125
 20
251.65380859375
 30
0.0
 10
120.22412109375
 20
251.6650390625
 30
0.0
 10
127.41796875
 20
251.62109375
 30
0.0
 10
134.60009765625
 20
252.10107421875
 30
0.0
  0
SPLINE
  5
41
330
3C
100
AcDbEntity
  8
Layer 1
370
     0
100
AcDbSpline
210
0.0
220
0.0
230
1.0
 70
    11
 71
     3
 72
   140
 73
   136
 74
     0
 42
0.0000000001
 43
0.0000000001
 40
0.0
 40
0.0
 40
0.0
 40
0.0
 40
1.0
 40
1.0
 40
1.0
 40
2.0
 40
2.0
 40
2.0
 40
3.0
 40
3.0
 40
3.0
 40
4.0
 40
4.0
 40
4.0
 40
5.0
 40
5.0
 40
5.0
 40
6.0
 40
6.0
 40
6.0
 40
7.0
 40
7.0
 40
7.0
 40
8.0
 40
8.0
 40
8.0
 40
9.0
 40
9.0
 40
9.0
 40
10.0
 40
10.0
 40
10.0
 40
11.0
 40
11.0
 40
11.0
 40
12.0
 40
12.0
 40
12.0
 40
13.0
 40
13.0
 40
13.0
 40
14.0
 40
14.0
 40
14.0
 40
15.0
 40
15.0
 40
15.0
 40
16.0
 40
16.0
 40
16.0
 40
17.0
 40
17.0
 40
17.0
 40
18.0
 40
18.0
 40
18.0
 40
19.0
 40
19.0
 40
19.0
 40
20.0
 40
20.0
 40
20.0
 40
21.0
 40
21.0
 40
21.0
 40
22.0
 40
22.0
 40
22.0
 40
23.0
 40
23.0
 40
23.0
 40
24.0
 40
24.0
 40
24.0
 40
25.0
 40
25.0
 40
25.0
 40
26.0
 40
26.0
 40
26.0
 40
27.0
 40
27.0
 40
27.0
 40
28.0
 40
28.0
 40
28.0
 40
29.0
 40
29.0
 40
29.0
 40
30.0
 40
30.0
 40
30.0
 40
31.0
 40
31.0
 40
31.0
 40
32.0
 40
32.0
 40
32.0
 40
33.0
 40
33.0
 40
33.0
 40
34.0
 40
34.0
 40
34.0
 40
35.0
 40
35.0
 40
35.0
 40
36.0
 40
36.0
 40
36.0
 40
37.0
 40
37.0
 40
37.0
 40
38.0
 40
38.0
 40
38.0
 40
39.0
 40
39.0
 40
39.0
 40
40.0
 40
40.0
 40
40.0
 40
41.0
 40
41.0
 40
41.0
 40
42.0
 40
42.0
 40
42.0
 40
43.0
 40
43.0
 40
43.0
 40
44.0
 40
44.0
 40
44.0
 40
45.0
 40
45.0
 40
45.0
 40
45.0
 10
57.3779296875
 20
257.85693359375
 30
0.0
 10
57.3701171875
 20
263.833984375
 30
0.0
 10
57.373046875
 20
269.81005859375
 30
0.0
 10
57.3759765625
 20
275.78515625
 30
0.0
 10
57.3759765625
 20
276.7890625
 30
0.0
 10
57.25390625
 20
276.73193359375
 30
0.0
 10
58.30419921875
 20
276.73193359375
 30
0.0
 10
78.08203125
 20
276.73193359375
 30
0.0
 10
97.85986328125
 20
276.73388671875
 30
0.0
 10
117.63916015625
 20
276.7216796875
 30
0.0
 10
118.30322265625
 20
276.7216796875
 30
0.0
 10
118.880859375
 20
276.81982421875
 30
0.0
 10
119.39013671875
 20
277.27490234375
 30
0.0
 10
119.68408203125
 20
277.537109375
 30
0.0
 10
120.0322265625
 20
277.73779296875
 30
0.0
 10
120.35986328125
 20
277.9619140625
 30
0.0
 10
122.09814453125
 20
279.14794921875
 30
0.0
 10
122.73193359375
 20
280.86572265625
 30
0.0
 10
122.712890625
 20
282.884765625
 30
0.0
 10
122.70703125
 20
283.56982421875
 30
0.0
 10
122.36279296875
 20
284.15185546875
 30
0.0
 10
122.0068359375
 20
284.7109375
 30
0.0
 10
121.453125
 20
285.5830078125
 30
0.0
 10
120.80615234375
 20
286.38671875
 30
0.0
 10
120.12890625
 20
287.1650390625
 30
0.0
 10
117.3681640625
 20
290.3359375
 30
0.0
 10
114.5908203125
 20
293.4921875
 30
0.0
 10
111.8369140625
 20
296.666015625
 30
0.0
 10
110.52001953125
 20
298.18408203125
 30
0.0
 10
109.2939453125
 20
299.77197265625
 30
0.0
 10
108.125
 20
301.4111328125
 30
0.0
 10
106.15576171875
 20
304.1728515625
 30
0.0
 10
105.5078125
 20
307.23583984375
 30
0.0
 10
105.77685546875
 20
310.57177734375
 30
0.0
 10
106.22900390625
 20
316.1689453125
 30
0.0
 10
108.623046875
 20
320.802734375
 30
0.0
 10
112.716796875
 20
324.56396484375
 30
0.0
 10
115.84912109375
 20
327.44091796875
 30
0.0
 10
119.5751953125
 20
329.0009765625
 30
0.0
 10
123.85302734375
 20
329.0517578125
 30
0.0
 10
128.55908203125
 20
329.10888671875
 30
0.0
 10
133.26611328125
 20
329.091796875
 30
0.0
 10
137.97314453125
 20
329.09375
 30
0.0
 10
152.01416015625
 20
329.09814453125
 30
0.0
 10
166.05419921875
 20
329.0947265625
 30
0.0
 10
180.09521484375
 20
329.0947265625
 30
0.0
 10
180.09375
 20
329.14599609375
 30
0.0
 10
180.09375
 20
329.197265625
 30
0.0
 10
180.09375
 20
329.2490234375
 30
0.0
 10
199.02587890625
 20
329.2490234375
 30
0.0
 10
217.9580078125
 20
329.2490234375
 30
0.0
 10
236.89111328125
 20
329.248046875
 30
0.0
 10
238.06201171875
 20
329.248046875
 30
0.0
 10
237.912109375
 20
329.369140625
 30
0.0
 10
237.9130859375
 20
328.2470703125
 30
0.0
 10
237.91796875
 20
322.958984375
 30
0.0
 10
237.916015625
 20
317.669921875
 30
0.0
 10
237.9150390625
 20
312.3818359375
 30
0.0
 10
237.9150390625
 20
312.19677734375
 30
0.0
 10
237.90576171875
 20
312.0107421875
 30
0.0
 10
237.916015625
 20
311.8271484375
 30
0.0
 10
237.93310546875
 20
311.5322265625
 30
0.0
 10
237.81884765625
 20
311.3818359375
 30
0.0
 10
237.5078125
 20
311.39599609375
 30
0.0
 10
237.27001953125
 20
311.40576171875
 30
0.0
 10
237.0322265625
 20
311.39501953125
 30
0.0
 10
236.7939453125
 20
311.39501953125
 30
0.0
 10
236.7939453125
 20
311.39501953125
 30
0.0
 10
203.0810546875
 20
311.39501953125
 30
0.0
 10
203.0810546875
 20
311.39501953125
 30
0.0
 10
201.93310546875
 20
311.39501953125
 30
0.0
 10
202.0751953125
 20
311.4697265625
 30
0.0
 10
202.0751953125
 20
310.35986328125
 30
0.0
 10
202.0732421875
 20
292.802734375
 30
0.0
 10
202.0751953125
 20
275.24609375
 30
0.0
 10
202.07080078125
 20
257.68896484375
 30
0.0
 10
202.07080078125
 20
256.52587890625
 30
0.0
 10
202.23095703125
 20
256.67578125
 30
0.0
 10
201.06884765625
 20
256.6748046875
 30
0.0
 10
194.6171875
 20
256.669921875
 30
0.0
 10
188.166015625
 20
256.6728515625
 30
0.0
 10
181.7138671875
 20
256.6728515625
 30
0.0
 10
181.52880859375
 20
256.6728515625
 30
0.0
 10
181.3427734375
 20
256.68310546875
 30
0.0
 10
181.1591796875
 20
256.6728515625
 30
0.0
 10
180.85791015625
 20
256.65478515625
 30
0.0
 10
180.72314453125
 20
256.7841796875
 30
0.0
 10
180.73681640625
 20
257.0888671875
 30
0.0
 10
180.7490234375
 20
257.35302734375
 30
0.0
 10
180.73681640625
 20
257.6181640625
 30
0.0
 10
180.73681640625
 20
257.8818359375
 30
0.0
 10
180.73681640625
 20
275.36083984375
 30
0.0
 10
180.73779296875
 20
292.8388671875
 30
0.0
 10
180.73486328125
 20
310.31689453125
 30
0.0
 10
180.73486328125
 20
311.61279296875
 30
0.0
 10
180.89208984375
 20
311.4248046875
 30
0.0
 10
179.6640625
 20
311.4228515625
 30
0.0
 10
173.10595703125
 20
311.412109375
 30
0.0
 10
166.5478515625
 20
311.39501953125
 30
0.0
 10
159.9912109375
 20
311.37109375
 30
0.0
 10
152.85205078125
 20
311.345703125
 30
0.0
 10
145.712890625
 20
311.3251953125
 30
0.0
 10
138.57421875
 20
311.27490234375
 30
0.0
 10
135.23095703125
 20
311.2509765625
 30
0.0
 10
133.041015625
 20
308.89501953125
 30
0.0
 10
133.18505859375
 20
305.56005859375
 30
0.0
 10
133.21484375
 20
304.85693359375
 30
0.0
 10
133.44580078125
 20
304.216796875
 30
0.0
 10
133.7548828125
 20
303.59814453125
 30
0.0
 10
134.298828125
 20
302.505859375
 30
0.0
 10
134.9921875
 20
301.5068359375
 30
0.0
 10
135.703125
 20
300.52001953125
 30
0.0
 10
137.8837890625
 20
297.4951171875
 30
0.0
 10
140.2451171875
 20
294.60888671875
 30
0.0
 10
142.52587890625
 20
291.662109375
 30
0.0
 10
144.8720703125
 20
288.6298828125
 30
0.0
 10
147.169921875
 20
285.56494140625
 30
0.0
 10
149.3330078125
 20
282.39794921875
 30
0.0
 10
150.51123046875
 20
280.6728515625
 30
0.0
 10
150.98388671875
 20
278.7568359375
 30
0.0
 10
151.09814453125
 20
276.72607421875
 30
0.0
 10
151.4228515625
 20
270.921875
 30
0.0
 10
148.31591796875
 20
262.837890625
 30
0.0
 10
141.10400390625
 20
258.88916015625
 30
0.0
 10
139.25
 20
257.873046875
 30
0.0
 10
137.29296875
 20
257.35693359375
 30
0.0
 10
135.22607421875
 20
257.1728515625
 30
0.0
 10
129.953125
 20
256.703125
 30
0.0
 10
124.6650390625
 20
256.69189453125
 30
0.0
 10
119.3779296875
 20
256.68994140625
 30
0.0
 10
99.09814453125
 20
256.6796875
 30
0.0
 10
78.81689453125
 20
256.6767578125
 30
0.0
 10
58.5361328125
 20
256.67578125
 30
0.0
 10
57.166015625
 20
256.67578125
 30
0.0
 10
57.3798828125
 20
256.494140625
 30
0.0
 10
57.3779296875
 20
257.85693359375
 30
0.0
  0
ENDBLK
  5
3F
330
3C
100
AcDbEntity
  8
0
100
AcDbBlockEnd
  0
BLOCK
  5
44
330
42
100
AcDbEntity
  8
0
100
AcDbBlockBegin
  2
block 3
 70
     0
 71
     0
 10
0.0
 20
0.0
 30
0.0
  3
block 3
  1

  0
SPLINE
  5
46
330
42
100
AcDbEntity
  8
Layer 1
370
     0
100
AcDbSpline
210
0.0
220
0.0
230
1.0
 70
    11
 71
     3
 72
   209
 73
   205
 74
     0
 42
0.0000000001
 43
0.0000000001
 40
0.0
 40
0.0
 40
0.0
 40
0.0
 40
1.0
 40
1.0
 40
1.0
 40
2.0
 40
2.0
 40
2.0
 40
3.0
 40
3.0
 40
3.0
 40
4.0
 40
4.0
 40
4.0
 40
5.0
 40
5.0
 40
5.0
 40
6.0
 40
6.0
 40
6.0
 40
7.0
 40
7.0
 40
7.0
 40
8.0
 40
8.0
 40
8.0
 40
9.0
 40
9.0
 40
9.0
 40
10.0
 40
10.0
 40
10.0
 40
11.0
 40
11.0
 40
11.0
 40
12.0
 40
12.0
 40
12.0
 40
13.0
 40
13.0
 40
13.0
 40
14.0
 40
14.0
 40
14.0
 40
15.0
 40
15.0
 40
15.0
 40
16.0
 40
16.0
 40
16.0
 40
17.0
 40
17.0
 40
17.0
 40
18.0
 40
18.0
 40
18.0
 40
19.0
 40
19.0
 40
19.0
 40
20.0
 40
20.0
 40
20.0
 40
21.0
 40
21.0
 40
21.0
 40
22.0
 40
22.0
 40
22.0
 40
23.0
 40
23.0
 40
23.0
 40
24.0
 40
24.0
 40
24.0
 40
25.0
 40
25.0
 40
25.0
 40
26.0
 40
26.0
 40
26.0
 40
27.0
 40
27.0
 40
27.0
 40
28.0
 40
28.0
 40
28.0
 40
29.0
 40
29.0
 40
29.0
 40
30.0
 40
30.0
 40
30.0
 40
31.0
 40
31.0
 40
31.0
 40
32.0
 40
32.0
 40
32.0
 40
33.0
 40
33.0
 40
33.0
 40
34.0
 40
34.0
 40
34.0
 40
35.0
 40
35.0
 40
35.0
 40
36.0
 40
36.0
 40
36.0
 40
37.0
 40
37.0
 40
37.0
 40
38.0
 40
38.0
 40
38.0
 40
39.0
 40
39.0
 40
39.0
 40
40.0
 40
40.0
 40
40.0
 40
41.0
 40
41.0
 40
41.0
 40
42.0
 40
42.0
 40
42.0
 40
43.0
 40
43.0
 40
43.0
 40
44.0
 40
44.0
 40
44.0
 40
45.0
 40
45.0
 40
45.0
 40
46.0
 40
46.0
 40
46.0
 40
47.0
 40
47.0
 40
47.0
 40
48.0
 40
48.0
 40
48.0
 40
49.0
 40
49.0
 40
49.0
 40
50.0
 40
50.0
 40
50.0
 40
51.0
 40
51.0
 40
51.0
 40
52.0
 40
52.0
 40
52.0
 40
53.0
 40
53.0
 40
53.0
 40
54.0
 40
54.0
 40
54.0
 40
55.0
 40
55.0
 40
55.0
 40
56.0
 40
56.0
 40
56.0
 40
57.0
 40
57.0
 40
57.0
 40
58.0
 40
58.0
 40
58.0
 40
59.0
 40
59.0
 40
59.0
 40
60.0
 40
60.0
 40
60.0
 40
61.0
 40
61.0
 40
61.0
 40
62.0
 40
62.0
 40
62.0
 40
63.0
 40
63.0
 40
63.0
 40
64.0
 40
64.0
 40
64.0
 40
65.0
 40
65.0
 40
65.0
 40
66.0
 40
66.0
 40
66.0
 40
67.0
 40
67.0
 40
67.0
 40
68.0
 40
68.0
 40
68.0
 40
68.0
 10
447.271484375
 20
247.431640625
 30
0.0
 10
431.0341796875
 20
247.431640625
 30
0.0
 10
414.7978515625
 20
247.431640625
 30
0.0
 10
398.5634765625
 20
247.4296875
 30
0.0
 10
395.59765625
 20
247.4296875
 30
0.0
 10
392.6474609375
 20
247.267578125
 30
0.0
 10
389.7529296875
 20
246.55078125
 30
0.0
 10
385.54296875
 20
245.505859375
 30
0.0
 10
381.7421875
 20
243.662109375
 30
0.0
 10
378.6689453125
 20
240.5625
 30
0.0
 10
373.0654296875
 20
234.90625
 30
0.0
 10
371.1015625
 20
228.029296875
 30
0.0
 10
372.0771484375
 20
220.21875
 30
0.0
 10
372.4599609375
 20
217.14453125
 30
0.0
 10
373.6162109375
 20
214.3603515625
 30
0.0
 10
375.2255859375
 20
211.7421875
 30
0.0
 10
377.0361328125
 20
208.7958984375
 30
0.0
 10
379.2978515625
 20
206.21875
 30
0.0
 10
381.681640625
 20
203.732421875
 30
0.0
 10
383.9345703125
 20
201.3828125
 30
0.0
 10
386.0439453125
 20
198.908203125
 30
0.0
 10
388.044921875
 20
196.34375
 30
0.0
 10
388.2177734375
 20
196.12109375
 30
0.0
 10
388.4443359375
 20
195.9228515625
 30
0.0
 10
388.494140625
 20
195.58984375
 30
0.0
 10
388.283203125
 20
195.4375
 30
0.0
 10
388.0419921875
 20
195.470703125
 30
0.0
 10
387.8134765625
 20
195.451171875
 30
0.0
 10
384.9638671875
 20
195.2138671875
 30
0.0
 10
382.1064453125
 20
195.2431640625
 30
0.0
 10
379.251953125
 20
195.2373046875
 30
0.0
 10
369.2841796875
 20
195.220703125
 30
0.0
 10
359.3154296875
 20
195.1953125
 30
0.0
 10
349.345703125
 20
195.2822265625
 30
0.0
 10
346.5966796875
 20
195.306640625
 30
0.0
 10
343.8505859375
 20
195.353515625
 30
0.0
 10
341.107421875
 20
195.578125
 30
0.0
 10
340.3232421875
 20
195.642578125
 30
0.0
 10
339.8349609375
 20
196.0712890625
 30
0.0
 10
339.3603515625
 20
196.63671875
 30
0.0
 10
341.2490234375
 20
197.8720703125
 30
0.0
 10
343.01953125
 20
199.16796875
 30
0.0
 10
344.64453125
 20
200.6484375
 30
0.0
 10
346.80078125
 20
202.6142578125
 30
0.0
 10
348.8193359375
 20
204.70703125
 30
0.0
 10
350.2158203125
 20
207.3046875
 30
0.0
 10
351.412109375
 20
209.5234375
 30
0.0
 10
352.27734375
 20
211.87890625
 30
0.0
 10
352.92578125
 20
214.310546875
 30
0.0
 10
353.3984375
 20
216.08203125
 30
0.0
 10
353.6103515625
 20
217.89453125
 30
0.0
 10
353.5205078125
 20
219.728515625
 30
0.0
 10
353.3310546875
 20
223.626953125
 30
0.0
 10
352.1669921875
 20
227.248046875
 30
0.0
 10
350.2841796875
 20
230.646484375
 30
0.0
 10
347.8603515625
 20
235.025390625
 30
0.0
 10
344.5888671875
 20
238.646484375
 30
0.0
 10
340.455078125
 20
241.462890625
 30
0.0
 10
335.5703125
 20
244.7919921875
 30
0.0
 10
330.1865234375
 20
246.5732421875
 30
0.0
 10
324.240234375
 20
246.5703125
 30
0.0
 10
306.443359375
 20
246.5625
 30
0.0
 10
288.6484375
 20
246.568359375
 30
0.0
 10
270.8515625
 20
246.56640625
 30
0.0
 10
269.8203125
 20
246.56640625
 30
0.0
 10
269.927734375
 20
246.6875
 30
0.0
 10
269.9296875
 20
245.6279296875
 30
0.0
 10
269.978515625
 20
218.9482421875
 30
0.0
 10
270.0322265625
 20
192.267578125
 30
0.0
 10
270.0830078125
 20
165.587890625
 30
0.0
 10
270.0849609375
 20
165.40234375
 30
0.0
 10
270.095703125
 20
165.21875
 30
0.0
 10
270.0859375
 20
165.033203125
 30
0.0
 10
270.072265625
 20
164.7548828125
 30
0.0
 10
270.2060546875
 20
164.65234375
 30
0.0
 10
270.46875
 20
164.669921875
 30
0.0
 10
270.6015625
 20
164.677734375
 30
0.0
 10
270.732421875
 20
164.669921875
 30
0.0
 10
270.865234375
 20
164.66796875
 30
0.0
 10
281.09765625
 20
164.60546875
 30
0.0
 10
291.3310546875
 20
164.541015625
 30
0.0
 10
301.564453125
 20
164.48046875
 30
0.0
 10
302.626953125
 20
164.474609375
 30
0.0
 10
302.4873046875
 20
164.392578125
 30
0.0
 10
302.494140625
 20
165.416015625
 30
0.0
 10
302.541015625
 20
172.052734375
 30
0.0
 10
302.58203125
 20
178.6875
 30
0.0
 10
302.630859375
 20
185.326171875
 30
0.0
 10
302.634765625
 20
185.564453125
 30
0.0
 10
302.529296875
 20
185.8388671875
 30
0.0
 10
302.763671875
 20
186.0771484375
 30
0.0
 10
302.98046875
 20
185.873046875
 30
0.0
 10
303.1708984375
 20
185.69140625
 30
0.0
 10
303.361328125
 20
185.5087890625
 30
0.0
 10
306.693359375
 20
182.3359375
 30
0.0
 10
310.00390625
 20
179.140625
 30
0.0
 10
313.4111328125
 20
176.0478515625
 30
0.0
 10
316.384765625
 20
173.345703125
 30
0.0
 10
319.3720703125
 20
170.654296875
 30
0.0
 10
322.6484375
 20
168.314453125
 30
0.0
 10
324.439453125
 20
167.0341796875
 30
0.0
 10
326.306640625
 20
165.8818359375
 30
0.0
 10
328.4736328125
 20
165.353515625
 30
0.0
 10
330.2578125
 20
164.919921875
 30
0.0
 10
332.0947265625
 20
164.9228515625
 30
0.0
 10
333.912109375
 20
164.8662109375
 30
0.0
 10
337.6123046875
 20
164.7529296875
 30
0.0
 10
341.3134765625
 20
164.712890625
 30
0.0
 10
345.013671875
 20
164.642578125
 30
0.0
 10
345.013671875
 20
164.642578125
 30
0.0
 10
345.0126953125
 20
164.642578125
 30
0.0
 10
345.0126953125
 20
164.642578125
 30
0.0
 10
345.2646484375
 20
164.4248046875
 30
0.0
 10
345.5693359375
 20
164.51953125
 30
0.0
 10
345.8505859375
 20
164.517578125
 30
0.0
 10
347.7255859375
 20
164.505859375
 30
0.0
 10
349.6015625
 20
164.5
 30
0.0
 10
351.4765625
 20
164.5029296875
 30
0.0
 10
352.982421875
 20
164.50390625
 30
0.0
 10
354.486328125
 20
164.51953125
 30
0.0
 10
355.9921875
 20
164.52734375
 30
0.0
 10
357.3037109375
 20
164.525390625
 30
0.0
 10
358.6171875
 20
164.5234375
 30
0.0
 10
359.9296875
 20
164.51953125
 30
0.0
 10
359.9296875
 20
164.4638671875
 30
0.0
 10
359.9287109375
 20
164.408203125
 30
0.0
 10
359.9267578125
 20
164.3515625
 30
0.0
 10
359.9267578125
 20
164.3515625
 30
0.0
 10
388.6474609375
 20
164.3515625
 30
0.0
 10
388.6474609375
 20
164.3515625
 30
0.0
 10
388.646484375
 20
164.408203125
 30
0.0
 10
388.646484375
 20
164.4619140625
 30
0.0
 10
388.64453125
 20
164.51953125
 30
0.0
 10
389.1640625
 20
164.521484375
 30
0.0
 10
389.6826171875
 20
164.525390625
 30
0.0
 10
390.205078125
 20
164.53125
 30
0.0
 10
390.21875
 20
164.537109375
 30
0.0
 10
390.2333984375
 20
164.5380859375
 30
0.0
 10
390.248046875
 20
164.5439453125
 30
0.0
 10
390.232421875
 20
164.5380859375
 30
0.0
 10
390.2177734375
 20
164.5322265625
 30
0.0
 10
390.2021484375
 20
164.52734375
 30
0.0
 10
392.1552734375
 20
164.521484375
 30
0.0
 10
394.107421875
 20
164.517578125
 30
0.0
 10
396.0595703125
 20
164.51171875
 30
0.0
 10
396.1953125
 20
164.51171875
 30
0.0
 10
396.3193359375
 20
164.544921875
 30
0.0
 10
396.4208984375
 20
164.640625
 30
0.0
 10
396.36328125
 20
164.640625
 30
0.0
 10
396.3056640625
 20
164.6396484375
 30
0.0
 10
396.248046875
 20
164.6396484375
 30
0.0
 10
396.306640625
 20
164.642578125
 30
0.0
 10
396.3642578125
 20
164.642578125
 30
0.0
 10
396.4228515625
 20
164.646484375
 30
0.0
 10
396.7138671875
 20
164.654296875
 30
0.0
 10
397.00390625
 20
164.6630859375
 30
0.0
 10
397.294921875
 20
164.6728515625
 30
0.0
 10
401.0205078125
 20
164.798828125
 30
0.0
 10
404.74609375
 20
164.8759765625
 30
0.0
 10
408.4384765625
 20
165.45703125
 30
0.0
 10
411.0
 20
165.859375
 30
0.0
 10
413.4228515625
 20
166.6201171875
 30
0.0
 10
415.5693359375
 20
168.119140625
 30
0.0
 10
417.8974609375
 20
169.7470703125
 30
0.0
 10
420.0634765625
 20
171.564453125
 30
0.0
 10
421.841796875
 20
173.7919921875
 30
0.0
 10
426.1103515625
 20
179.1337890625
 30
0.0
 10
428.15234375
 20
185.138671875
 30
0.0
 10
427.201171875
 20
192.0234375
 30
0.0
 10
426.8408203125
 20
194.6318359375
 30
0.0
 10
425.9853515625
 20
197.044921875
 30
0.0
 10
424.517578125
 20
199.23828125
 30
0.0
 10
423.8994140625
 20
200.1611328125
 30
0.0
 10
423.28125
 20
201.083984375
 30
0.0
 10
422.5927734375
 20
201.955078125
 30
0.0
 10
419.951171875
 20
205.29296875
 30
0.0
 10
417.296875
 20
208.619140625
 30
0.0
 10
414.654296875
 20
211.955078125
 30
0.0
 10
413.09375
 20
213.9228515625
 30
0.0
 10
411.453125
 20
215.828125
 30
0.0
 10
410.064453125
 20
217.92578125
 30
0.0
 10
409.958984375
 20
218.083984375
 30
0.0
 10
409.759765625
 20
218.224609375
 30
0.0
 10
409.8662109375
 20
218.48046875
 30
0.0
 10
409.97265625
 20
218.486328125
 30
0.0
 10
410.078125
 20
218.501953125
 30
0.0
 10
410.18359375
 20
218.501953125
 30
0.0
 10
416.7138671875
 20
218.5
 30
0.0
 10
423.2451171875
 20
218.501953125
 30
0.0
 10
429.77734375
 20
218.4921875
 30
0.0
 10
435.8037109375
 20
218.484375
 30
0.0
 10
441.833984375
 20
218.4658203125
 30
0.0
 10
447.86328125
 20
218.4541015625
 30
0.0
 10
448.501953125
 20
218.453125
 30
0.0
 10
448.5087890625
 20
218.4609375
 30
0.0
 10
448.515625
 20
219.107421875
 30
0.0
 10
448.5341796875
 20
221.353515625
 30
0.0
 10
448.5546875
 20
223.599609375
 30
0.0
 10
448.5615234375
 20
225.849609375
 30
0.0
 10
448.580078125
 20
232.5908203125
 30
0.0
 10
448.591796875
 20
239.3349609375
 30
0.0
 10
448.60546875
 20
246.0771484375
 30
0.0
 10
448.609375
 20
247.427734375
 30
0.0
 10
448.6083984375
 20
247.431640625
 30
0.0
 10
447.271484375
 20
247.431640625
 30
0.0
  0
SPLINE
  5
47
330
42
100
AcDbEntity
  8
Layer 1
370
     0
100
AcDbSpline
210
0.0
220
0.0
230
1.0
 70
    11
 71
     3
 72
   203
 73
   199
 74
     0
 42
0.0000000001
 43
0.0000000001
 40
0.0
 40
0.0
 40
0.0
 40
0.0
 40
1.0
 40
1.0
 40
1.0
 40
2.0
 40
2.0
 40
2.0
 40
3.0
 40
3.0
 40
3.0
 40
4.0
 40
4.0
 40
4.0
 40
5.0
 40
5.0
 40
5.0
 40
6.0
 40
6.0
 40
6.0
 40
7.0
 40
7.0
 40
7.0
 40
8.0
 40
8.0
 40
8.0
 40
9.0
 40
9.0
 40
9.0
 40
10.0
 40
10.0
 40
10.0
 40
11.0
 40
11.0
 40
11.0
 40
12.0
 40
12.0
 40
12.0
 40
13.0
 40
13.0
 40
13.0
 40
14.0
 40
14.0
 40
14.0
 40
15.0
 40
15.0
 40
15.0
 40
16.0
 40
16.0
 40
16.0
 40
17.0
 40
17.0
 40
17.0
 40
18.0
 40
18.0
 40
18.0
 40
19.0
 40
19.0
 40
19.0
 40
20.0
 40
20.0
 40
20.0
 40
21.0
 40
21.0
 40
21.0
 40
22.0
 40
22.0
 40
22.0
 40
23.0
 40
23.0
 40
23.0
 40
24.0
 40
24.0
 40
24.0
 40
25.0
 40
25.0
 40
25.0
 40
26.0
 40
26.0
 40
26.0
 40
27.0
 40
27.0
 40
27.0
 40
28.0
 40
28.0
 40
28.0
 40
29.0
 40
29.0
 40
29.0
 40
30.0
 40
30.0
 40
30.0
 40
31.0
 40
31.0
 40
31.0
 40
32.0
 40
32.0
 40
32.0
 40
33.0
 40
33.0
 40
33.0
 40
34.0
 40
34.0
 40
34.0
 40
35.0
 40
35.0
 40
35.0
 40
36.0
 40
36.0
 40
36.0
 40
37.0
 40
37.0
 40
37.0
 40
38.0
 40
38.0
 40
38.0
 40
39.0
 40
39.0
 40
39.0
 40
40.0
 40
40.0
 40
40.0
 40
41.0
 40
41.0
 40
41.0
 40
42.0
 40
42.0
 40
42.0
 40
43.0
 40
43.0
 40
43.0
 40
44.0
 40
44.0
 40
44.0
 40
45.0
 40
45.0
 40
45.0
 40
46.0
 40
46.0
 40
46.0
 40
47.0
 40
47.0
 40
47.0
 40
48.0
 40
48.0
 40
48.0
 40
49.0
 40
49.0
 40
49.0
 40
50.0
 40
50.0
 40
50.0
 40
51.0
 40
51.0
 40
51.0
 40
52.0
 40
52.0
 40
52.0
 40
53.0
 40
53.0
 40
53.0
 40
54.0
 40
54.0
 40
54.0
 40
55.0
 40
55.0
 40
55.0
 40
56.0
 40
56.0
 40
56.0
 40
57.0
 40
57.0
 40
57.0
 40
58.0
 40
58.0
 40
58.0
 40
59.0
 40
59.0
 40
59.0
 40
60.0
 40
60.0
 40
60.0
 40
61.0
 40
61.0
 40
61.0
 40
62.0
 40
62.0
 40
62.0
 40
63.0
 40
63.0
 40
63.0
 40
64.0
 40
64.0
 40
64.0
 40
65.0
 40
65.0
 40
65.0
 40
66.0
 40
66.0
 40
66.0
 40
66.0
 10
443.5673828125
 20
241.654296875
 30
0.0
 10
443.55859375
 20
235.861328125
 30
0.0
 10
443.5478515625
 20
230.0703125
 30
0.0
 10
443.5390625
 20
224.279296875
 30
0.0
 10
443.5390625
 20
224.146484375
 30
0.0
 10
443.53125
 20
224.013671875
 30
0.0
 10
443.5380859375
 20
223.8828125
 30
0.0
 10
443.548828125
 20
223.619140625
 30
0.0
 10
443.4345703125
 20
223.4912109375
 30
0.0
 10
443.166015625
 20
223.498046875
 30
0.0
 10
442.9287109375
 20
223.5029296875
 30
0.0
 10
442.689453125
 20
223.494140625
 30
0.0
 10
442.4521484375
 20
223.494140625
 30
0.0
 10
431.345703125
 20
223.5078125
 30
0.0
 10
420.23828125
 20
223.521484375
 30
0.0
 10
409.1318359375
 20
223.5361328125
 30
0.0
 10
408.55078125
 20
223.5361328125
 30
0.0
 10
407.9677734375
 20
223.505859375
 30
0.0
 10
407.38671875
 20
223.5322265625
 30
0.0
 10
406.6953125
 20
223.564453125
 30
0.0
 10
406.1337890625
 20
223.3046875
 30
0.0
 10
405.71875
 20
222.783203125
 30
0.0
 10
404.595703125
 20
221.37109375
 30
0.0
 10
404.158203125
 20
219.7490234375
 30
0.0
 10
404.3515625
 20
217.958984375
 30
0.0
 10
404.390625
 20
217.5869140625
 30
0.0
 10
404.5869140625
 20
217.263671875
 30
0.0
 10
404.771484375
 20
216.939453125
 30
0.0
 10
406.037109375
 20
214.728515625
 30
0.0
 10
407.6142578125
 20
212.7412109375
 30
0.0
 10
409.1943359375
 20
210.75390625
 30
0.0
 10
412.2568359375
 20
206.90625
 30
0.0
 10
415.32421875
 20
203.064453125
 30
0.0
 10
418.3837890625
 20
199.212890625
 30
0.0
 10
418.794921875
 20
198.6953125
 30
0.0
 10
419.1640625
 20
198.146484375
 30
0.0
 10
419.5634765625
 20
197.62109375
 30
0.0
 10
422.5576171875
 20
193.6748046875
 30
0.0
 10
423.0478515625
 20
189.267578125
 30
0.0
 10
421.8759765625
 20
184.599609375
 30
0.0
 10
420.7578125
 20
180.1611328125
 30
0.0
 10
418.2158203125
 20
176.619140625
 30
0.0
 10
414.7060546875
 20
173.7412109375
 30
0.0
 10
413.5009765625
 20
172.751953125
 30
0.0
 10
412.28125
 20
171.78125
 30
0.0
 10
410.802734375
 20
171.205078125
 30
0.0
 10
409.4365234375
 20
170.673828125
 30
0.0
 10
408.009765625
 20
170.4140625
 30
0.0
 10
406.5693359375
 20
170.23828125
 30
0.0
 10
403.78515625
 20
169.8984375
 30
0.0
 10
400.9873046875
 20
169.7861328125
 30
0.0
 10
398.18359375
 20
169.72265625
 30
0.0
 10
385.25390625
 20
169.435546875
 30
0.0
 10
372.32421875
 20
169.607421875
 30
0.0
 10
359.3916015625
 20
169.57421875
 30
0.0
 10
355.2412109375
 20
169.5625
 30
0.0
 10
351.087890625
 20
169.58203125
 30
0.0
 10
346.9375
 20
169.619140625
 30
0.0
 10
343.26171875
 20
169.65234375
 30
0.0
 10
339.5859375
 20
169.689453125
 30
0.0
 10
335.9130859375
 20
169.8017578125
 30
0.0
 10
334.1181640625
 20
169.857421875
 30
0.0
 10
332.318359375
 20
169.861328125
 30
0.0
 10
330.529296875
 20
170.064453125
 30
0.0
 10
329.54296875
 20
170.17578125
 30
0.0
 10
328.634765625
 20
170.517578125
 30
0.0
 10
327.7685546875
 20
170.9912109375
 30
0.0
 10
326.232421875
 20
171.830078125
 30
0.0
 10
324.8271484375
 20
172.861328125
 30
0.0
 10
323.4638671875
 20
173.9541015625
 30
0.0
 10
319.76953125
 20
176.91796875
 30
0.0
 10
316.3037109375
 20
180.142578125
 30
0.0
 10
312.85546875
 20
183.384765625
 30
0.0
 10
309.0224609375
 20
186.9892578125
 30
0.0
 10
305.208984375
 20
190.615234375
 30
0.0
 10
301.3779296875
 20
194.224609375
 30
0.0
 10
300.43359375
 20
195.111328125
 30
0.0
 10
299.4560546875
 20
195.9609375
 30
0.0
 10
298.48828125
 20
196.8232421875
 30
0.0
 10
298.279296875
 20
197.0068359375
 30
0.0
 10
298.0703125
 20
197.2060546875
 30
0.0
 10
297.693359375
 20
197.361328125
 30
0.0
 10
297.693359375
 20
197.0068359375
 30
0.0
 10
297.6953125
 20
196.728515625
 30
0.0
 10
297.693359375
 20
196.451171875
 30
0.0
 10
297.642578125
 20
187.8046875
 30
0.0
 10
297.591796875
 20
179.15625
 30
0.0
 10
297.5390625
 20
170.5087890625
 30
0.0
 10
297.533203125
 20
169.4892578125
 30
0.0
 10
297.662109375
 20
169.564453125
 30
0.0
 10
296.611328125
 20
169.568359375
 30
0.0
 10
289.869140625
 20
169.5859375
 30
0.0
 10
283.125
 20
169.60546875
 30
0.0
 10
276.3818359375
 20
169.6259765625
 30
0.0
 10
276.1953125
 20
169.6259765625
 30
0.0
 10
276.01171875
 20
169.6259765625
 30
0.0
 10
275.826171875
 20
169.6279296875
 30
0.0
 10
275.060546875
 20
169.63671875
 30
0.0
 10
275.0546875
 20
169.63671875
 30
0.0
 10
275.0546875
 20
170.4140625
 30
0.0
 10
275.0390625
 20
180.9130859375
 30
0.0
 10
275.029296875
 20
191.4111328125
 30
0.0
 10
275.013671875
 20
201.91015625
 30
0.0
 10
275.00390625
 20
208.44140625
 30
0.0
 10
274.9921875
 20
214.97265625
 30
0.0
 10
274.97265625
 20
221.5048828125
 30
0.0
 10
274.9560546875
 20
227.8515625
 30
0.0
 10
274.927734375
 20
234.197265625
 30
0.0
 10
274.91015625
 20
240.5439453125
 30
0.0
 10
274.90625
 20
241.6591796875
 30
0.0
 10
274.7734375
 20
241.5810546875
 30
0.0
 10
275.9140625
 20
241.5810546875
 30
0.0
 10
291.9375
 20
241.5810546875
 30
0.0
 10
307.9619140625
 20
241.5771484375
 30
0.0
 10
323.98828125
 20
241.583984375
 30
0.0
 10
328.685546875
 20
241.5849609375
 30
0.0
 10
333.0185546875
 20
240.3125
 30
0.0
 10
336.9501953125
 20
237.767578125
 30
0.0
 10
341.4345703125
 20
234.8642578125
 30
0.0
 10
344.8037109375
 20
230.97265625
 30
0.0
 10
346.92578125
 20
226.04296875
 30
0.0
 10
347.984375
 20
223.5908203125
 30
0.0
 10
348.58984375
 20
221.0361328125
 30
0.0
 10
348.4892578125
 20
218.3408203125
 30
0.0
 10
348.41015625
 20
216.220703125
 30
0.0
 10
347.7080078125
 20
214.26171875
 30
0.0
 10
347.015625
 20
212.2880859375
 30
0.0
 10
345.80078125
 20
208.81640625
 30
0.0
 10
343.4599609375
 20
206.2060546875
 30
0.0
 10
340.7431640625
 20
203.8681640625
 30
0.0
 10
338.650390625
 20
202.06640625
 30
0.0
 10
336.3828125
 20
200.53125
 30
0.0
 10
333.859375
 20
199.384765625
 30
0.0
 10
333.234375
 20
199.1015625
 30
0.0
 10
332.6328125
 20
198.759765625
 30
0.0
 10
332.0810546875
 20
198.349609375
 30
0.0
 10
331.5625
 20
197.962890625
 30
0.0
 10
331.517578125
 20
197.779296875
 30
0.0
 10
331.876953125
 20
197.2265625
 30
0.0
 10
332.1650390625
 20
196.787109375
 30
0.0
 10
332.484375
 20
196.359375
 30
0.0
 10
332.8310546875
 20
195.9609375
 30
0.0
 10
334.0009765625
 20
194.626953125
 30
0.0
 10
335.3095703125
 20
193.439453125
 30
0.0
 10
336.6396484375
 20
192.263671875
 30
0.0
 10
338.0322265625
 20
191.0322265625
 30
0.0
 10
339.658203125
 20
190.6240234375
 30
0.0
 10
341.447265625
 20
190.525390625
 30
0.0
 10
348.025390625
 20
190.1650390625
 30
0.0
 10
354.6103515625
 20
190.232421875
 30
0.0
 10
361.1923828125
 20
190.22265625
 30
0.0
 10
368.5439453125
 20
190.2099609375
 30
0.0
 10
375.896484375
 20
190.208984375
 30
0.0
 10
383.24609375
 20
190.25390625
 30
0.0
 10
385.4912109375
 20
190.267578125
 30
0.0
 10
387.7412109375
 20
190.3125
 30
0.0
 10
389.966796875
 20
190.6796875
 30
0.0
 10
390.4365234375
 20
190.7568359375
 30
0.0
 10
390.8994140625
 20
190.865234375
 30
0.0
 10
391.345703125
 20
191.02734375
 30
0.0
 10
392.044921875
 20
191.2802734375
 30
0.0
 10
392.5966796875
 20
191.716796875
 30
0.0
 10
392.927734375
 20
192.390625
 30
0.0
 10
393.208984375
 20
192.9580078125
 30
0.0
 10
393.46875
 20
193.5361328125
 30
0.0
 10
393.7236328125
 20
194.1171875
 30
0.0
 10
394.1201171875
 20
195.021484375
 30
0.0
 10
394.041015625
 20
195.9150390625
 30
0.0
 10
393.6337890625
 20
196.7998046875
 30
0.0
 10
393.22265625
 20
197.6953125
 30
0.0
 10
392.69140625
 20
198.515625
 30
0.0
 10
392.0869140625
 20
199.2861328125
 30
0.0
 10
389.85546875
 20
202.140625
 30
0.0
 10
387.50390625
 20
204.892578125
 30
0.0
 10
384.9833984375
 20
207.5
 30
0.0
 10
382.642578125
 20
209.919921875
 30
0.0
 10
380.4755859375
 20
212.478515625
 30
0.0
 10
378.8525390625
 20
215.4541015625
 30
0.0
 10
377.564453125
 20
217.814453125
 30
0.0
 10
376.84375
 20
220.3251953125
 30
0.0
 10
376.8837890625
 20
223.037109375
 30
0.0
 10
376.91015625
 20
224.83203125
 30
0.0
 10
376.8076171875
 20
226.626953125
 30
0.0
 10
377.2890625
 20
228.392578125
 30
0.0
 10
379.115234375
 20
235.087890625
 30
0.0
 10
383.330078125
 20
239.4560546875
 30
0.0
 10
389.98046875
 20
241.439453125
 30
0.0
 10
392.2705078125
 20
242.1220703125
 30
0.0
 10
394.6298828125
 20
242.416015625
 30
0.0
 10
397.0205078125
 20
242.416015625
 30
0.0
 10
412.2255859375
 20
242.4208984375
 30
0.0
 10
427.431640625
 20
242.41796875
 30
0.0
 10
442.6376953125
 20
242.41796875
 30
0.0
 10
442.6376953125
 20
242.41796875
 30
0.0
 10
442.7958984375
 20
242.41796875
 30
0.0
 10
442.7958984375
 20
242.41796875
 30
0.0
 10
443.626953125
 20
242.4130859375
 30
0.0
 10
443.568359375
 20
242.5
 30
0.0
 10
443.5673828125
 20
241.654296875
 30
0.0
  0
ENDBLK
  5
45
330
42
100
AcDbEntity
  8
0
100
AcDbBlockEnd
  0
BLOCK
  5
4A
330
48
100
AcDbEntity
  8
0
100
AcDbBlockBegin
  2
block 4
 70
     0
 71
     0
 10
0.0
 20
0.0
 30
0.0
  3
block 4
  1

  0
SPLINE
  5
4C
330
48
100
AcDbEntity
  8
Layer 1
370
     0
100
AcDbSpline
210
0.0
220
0.0
230
1.0
 70
    11
 71
     3
 72
   119
 73
   115
 74
     0
 42
0.0000000001
 43
0.0000000001
 40
0.0
 40
0.0
 40
0.0
 40
0.0
 40
1.0
 40
1.0
 40
1.0
 40
2.0
 40
2.0
 40
2.0
 40
3.0
 40
3.0
 40
3.0
 40
4.0
 40
4.0
 40
4.0
 40
5.0
 40
5.0
 40
5.0
 40
6.0
 40
6.0
 40
6.0
 40
7.0
 40
7.0
 40
7.0
 40
8.0
 40
8.0
 40
8.0
 40
9.0
 40
9.0
 40
9.0
 40
10.0
 40
10.0
 40
10.0
 40
11.0
 40
11.0
 40
11.0
 40
12.0
 40
12.0
 40
12.0
 40
13.0
 40
13.0
 40
13.0
 40
14.0
 40
14.0
 40
14.0
 40
15.0
 40
15.0
 40
15.0
 40
16.0
 40
16.0
 40
16.0
 40
17.0
 40
17.0
 40
17.0
 40
18.0
 40
18.0
 40
18.0
 40
19.0
 40
19.0
 40
19.0
 40
20.0
 40
20.0
 40
20.0
 40
21.0
 40
21.0
 40
21.0
 40
22.0
 40
22.0
 40
22.0
 40
23.0
 40
23.0
 40
23.0
 40
24.0
 40
24.0
 40
24.0
 40
25.0
 40
25.0
 40
25.0
 40
26.0
 40
26.0
 40
26.0
 40
27.0
 40
27.0
 40
27.0
 40
28.0
 40
28.0
 40
28.0
 40
29.0
 40
29.0
 40
29.0
 40
30.0
 40
30.0
 40
30.0
 40
31.0
 40
31.0
 40
31.0
 40
32.0
 40
32.0
 40
32.0
 40
33.0
 40
33.0
 40
33.0
 40
34.0
 40
34.0
 40
34.0
 40
35.0
 40
35.0
 40
35.0
 40
36.0
 40
36.0
 40
36.0
 40
37.0
 40
37.0
 40
37.0
 40
38.0
 40
38.0
 40
38.0
 40
38.0
 10
176.48681640625
 20
246.8349609375
 30
0.0
 10
176.4111328125
 20
246.845703125
 30
0.0
 10
176.333984375
 20
246.8662109375
 30
0.0
 10
176.2568359375
 20
246.8662109375
 30
0.0
 10
166.18115234375
 20
246.869140625
 30
0.0
 10
156.10595703125
 20
246.8642578125
 30
0.0
 10
146.02978515625
 20
246.884765625
 30
0.0
 10
145.4990234375
 20
246.8857421875
 30
0.0
 10
145.3759765625
 20
246.626953125
 30
0.0
 10
145.23779296875
 20
246.2265625
 30
0.0
 10
143.44921875
 20
241.033203125
 30
0.0
 10
141.64990234375
 20
235.8408203125
 30
0.0
 10
139.85107421875
 20
230.650390625
 30
0.0
 10
139.21875
 20
228.8310546875
 30
0.0
 10
138.58203125
 20
227.01171875
 30
0.0
 10
137.916015625
 20
225.103515625
 30
0.0
 10
137.634765625
 20
225.431640625
 30
0.0
 10
137.5810546875
 20
225.7509765625
 30
0.0
 10
137.48095703125
 20
226.0458984375
 30
0.0
 10
135.1689453125
 20
232.8203125
 30
0.0
 10
132.85888671875
 20
239.595703125
 30
0.0
 10
130.55517578125
 20
246.37109375
 30
0.0
 10
130.22607421875
 20
247.337890625
 30
0.0
 10
130.2958984375
 20
247.1484375
 30
0.0
 10
129.4609375
 20
247.1484375
 30
0.0
 10
119.9677734375
 20
247.1533203125
 30
0.0
 10
110.47412109375
 20
247.15234375
 30
0.0
 10
100.98095703125
 20
247.150390625
 30
0.0
 10
100.04296875
 20
247.150390625
 30
0.0
 10
100.208984375
 20
247.228515625
 30
0.0
 10
99.923828125
 20
246.4228515625
 30
0.0
 10
97.5771484375
 20
239.7734375
 30
0.0
 10
95.2412109375
 20
233.1181640625
 30
0.0
 10
92.89697265625
 20
226.466796875
 30
0.0
 10
92.77783203125
 20
226.12890625
 30
0.0
 10
92.7099609375
 20
225.765625
 30
0.0
 10
92.48681640625
 20
225.4619140625
 30
0.0
 10
92.22021484375
 20
225.6328125
 30
0.0
 10
92.2119140625
 20
225.9248046875
 30
0.0
 10
92.1279296875
 20
226.1640625
 30
0.0
 10
89.73974609375
 20
232.884765625
 30
0.0
 10
87.35791015625
 20
239.60546875
 30
0.0
 10
84.98095703125
 20
246.3291015625
 30
0.0
 10
84.6572265625
 20
247.24609375
 30
0.0
 10
84.73291015625
 20
247.134765625
 30
0.0
 10
83.89306640625
 20
247.13671875
 30
0.0
 10
74.05615234375
 20
247.14453125
 30
0.0
 10
64.21875
 20
247.1484375
 30
0.0
 10
54.380859375
 20
247.1484375
 30
0.0
 10
54.18408203125
 20
247.1484375
 30
0.0
 10
53.9638671875
 20
247.21875
 30
0.0
 10
53.7822265625
 20
247.05078125
 30
0.0
 10
53.794921875
 20
246.6962890625
 30
0.0
 10
53.9541015625
 20
246.384765625
 30
0.0
 10
54.06298828125
 20
246.064453125
 30
0.0
 10
63.09619140625
 20
219.509765625
 30
0.0
 10
72.1328125
 20
192.955078125
 30
0.0
 10
81.169921875
 20
166.400390625
 30
0.0
 10
81.27099609375
 20
166.1015625
 30
0.0
 10
81.384765625
 20
165.8046875
 30
0.0
 10
81.47705078125
 20
165.501953125
 30
0.0
 10
81.55615234375
 20
165.2412109375
 30
0.0
 10
81.69921875
 20
165.095703125
 30
0.0
 10
81.98876953125
 20
165.119140625
 30
0.0
 10
82.14697265625
 20
165.1318359375
 30
0.0
 10
82.30712890625
 20
165.1201171875
 30
0.0
 10
82.46484375
 20
165.1201171875
 30
0.0
 10
82.46484375
 20
165.1201171875
 30
0.0
 10
101.98095703125
 20
165.1201171875
 30
0.0
 10
101.98095703125
 20
165.1201171875
 30
0.0
 10
102.11279296875
 20
165.1201171875
 30
0.0
 10
102.2470703125
 20
165.134765625
 30
0.0
 10
102.376953125
 20
165.1181640625
 30
0.0
 10
102.71484375
 20
165.0751953125
 30
0.0
 10
102.93798828125
 20
165.189453125
 30
0.0
 10
103.02001953125
 20
165.5390625
 30
0.0
 10
103.05078125
 20
165.6669921875
 30
0.0
 10
103.11083984375
 20
165.7861328125
 30
0.0
 10
103.1572265625
 20
165.91015625
 30
0.0
 10
107.02978515625
 20
176.5322265625
 30
0.0
 10
110.90283203125
 20
187.15234375
 30
0.0
 10
114.77783203125
 20
197.7734375
 30
0.0
 10
114.86279296875
 20
198.0068359375
 30
0.0
 10
114.89404296875
 20
198.2802734375
 30
0.0
 10
115.11376953125
 20
198.474609375
 30
0.0
 10
115.31689453125
 20
198.26953125
 30
0.0
 10
115.35400390625
 20
198.0361328125
 30
0.0
 10
115.42822265625
 20
197.818359375
 30
0.0
 10
118.5478515625
 20
188.7822265625
 30
0.0
 10
121.66796875
 20
179.7431640625
 30
0.0
 10
124.7880859375
 20
170.705078125
 30
0.0
 10
125.43408203125
 20
168.8330078125
 30
0.0
 10
126.0908203125
 20
166.9638671875
 30
0.0
 10
126.72705078125
 20
165.0888671875
 30
0.0
 10
126.86279296875
 20
164.6875
 30
0.0
 10
127.05615234375
 20
164.44140625
 30
0.0
 10
127.51806640625
 20
164.517578125
 30
0.0
 10
127.6728515625
 20
164.541015625
 30
0.0
 10
127.8349609375
 20
164.51953125
 30
0.0
 10
127.994140625
 20
164.51953125
 30
0.0
 10
134.419921875
 20
164.51953125
 30
0.0
 10
140.84619140625
 20
164.515625
 30
0.0
 10
147.27197265625
 20
164.5234375
 30
0.0
 10
148.546875
 20
164.525390625
 30
0.0
 10
148.27978515625
 20
164.314453125
 30
0.0
 10
148.69189453125
 20
165.513671875
 30
0.0
 10
153.23388671875
 20
178.7265625
 30
0.0
 10
157.76513671875
 20
191.943359375
 30
0.0
 10
162.2998046875
 20
205.1611328125
 30
0.0
 10
166.99609375
 20
218.849609375
 30
0.0
 10
171.69287109375
 20
232.541015625
 30
0.0
 10
176.38916015625
 20
246.232421875
 30
0.0
 10
176.4541015625
 20
246.421875
 30
0.0
 10
176.60107421875
 20
246.603515625
 30
0.0
 10
176.48681640625
 20
246.8349609375
 30
0.0
  0
SPLINE
  5
4D
330
48
100
AcDbEntity
  8
Layer 1
370
     0
100
AcDbSpline
210
0.0
220
0.0
230
1.0
 70
    11
 71
     3
 72
   134
 73
   130
 74
     0
 42
0.0000000001
 43
0.0000000001
 40
0.0
 40
0.0
 40
0.0
 40
0.0
 40
1.0
 40
1.0
 40
1.0
 40
2.0
 40
2.0
 40
2.0
 40
3.0
 40
3.0
 40
3.0
 40
4.0
 40
4.0
 40
4.0
 40
5.0
 40
5.0
 40
5.0
 40
6.0
 40
6.0
 40
6.0
 40
7.0
 40
7.0
 40
7.0
 40
8.0
 40
8.0
 40
8.0
 40
9.0
 40
9.0
 40
9.0
 40
10.0
 40
10.0
 40
10.0
 40
11.0
 40
11.0
 40
11.0
 40
12.0
 40
12.0
 40
12.0
 40
13.0
 40
13.0
 40
13.0
 40
14.0
 40
14.0
 40
14.0
 40
15.0
 40
15.0
 40
15.0
 40
16.0
 40
16.0
 40
16.0
 40
17.0
 40
17.0
 40
17.0
 40
18.0
 40
18.0
 40
18.0
 40
19.0
 40
19.0
 40
19.0
 40
20.0
 40
20.0
 40
20.0
 40
21.0
 40
21.0
 40
21.0
 40
22.0
 40
22.0
 40
22.0
 40
23.0
 40
23.0
 40
23.0
 40
24.0
 40
24.0
 40
24.0
 40
25.0
 40
25.0
 40
25.0
 40
26.0
 40
26.0
 40
26.0
 40
27.0
 40
27.0
 40
27.0
 40
28.0
 40
28.0
 40
28.0
 40
29.0
 40
29.0
 40
29.0
 40
30.0
 40
30.0
 40
30.0
 40
31.0
 40
31.0
 40
31.0
 40
32.0
 40
32.0
 40
32.0
 40
33.0
 40
33.0
 40
33.0
 40
34.0
 40
34.0
 40
34.0
 40
35.0
 40
35.0
 40
35.0
 40
36.0
 40
36.0
 40
36.0
 40
37.0
 40
37.0
 40
37.0
 40
38.0
 40
38.0
 40
38.0
 40
39.0
 40
39.0
 40
39.0
 40
40.0
 40
40.0
 40
40.0
 40
41.0
 40
41.0
 40
41.0
 40
42.0
 40
42.0
 40
42.0
 40
43.0
 40
43.0
 40
43.0
 40
43.0
 10
169.2822265625
 20
240.9375
 30
0.0
 10
165.8408203125
 20
230.892578125
 30
0.0
 10
162.39111328125
 20
220.8515625
 30
0.0
 10
158.94580078125
 20
210.80859375
 30
0.0
 10
154.3251953125
 20
197.3427734375
 30
0.0
 10
149.70703125
 20
183.8759765625
 30
0.0
 10
145.087890625
 20
170.412109375
 30
0.0
 10
145.044921875
 20
170.287109375
 30
0.0
 10
144.98193359375
 20
170.166015625
 30
0.0
 10
144.95703125
 20
170.0380859375
 30
0.0
 10
144.8837890625
 20
169.650390625
 30
0.0
 10
144.65625
 20
169.5439453125
 30
0.0
 10
144.27685546875
 20
169.5546875
 30
0.0
 10
143.35205078125
 20
169.5771484375
 30
0.0
 10
142.4248046875
 20
169.5625
 30
0.0
 10
141.5
 20
169.5625
 30
0.0
 10
138.0361328125
 20
169.5625
 30
0.0
 10
134.572265625
 20
169.560546875
 30
0.0
 10
131.10693359375
 20
169.564453125
 30
0.0
 10
130.44384765625
 20
169.564453125
 30
0.0
 10
130.43994140625
 20
169.568359375
 30
0.0
 10
130.22412109375
 20
170.197265625
 30
0.0
 10
125.47900390625
 20
184.009765625
 30
0.0
 10
120.73486328125
 20
197.82421875
 30
0.0
 10
115.9912109375
 20
211.63671875
 30
0.0
 10
115.77685546875
 20
212.2607421875
 30
0.0
 10
115.5712890625
 20
212.88671875
 30
0.0
 10
115.35498046875
 20
213.52734375
 30
0.0
 10
115.02490234375
 20
213.408203125
 30
0.0
 10
115.0380859375
 20
213.099609375
 30
0.0
 10
114.955078125
 20
212.875
 30
0.0
 10
112.35986328125
 20
205.779296875
 30
0.0
 10
109.77294921875
 20
198.681640625
 30
0.0
 10
107.18603515625
 20
191.583984375
 30
0.0
 10
104.6708984375
 20
184.6875
 30
0.0
 10
102.15625
 20
177.7880859375
 30
0.0
 10
99.64111328125
 20
170.890625
 30
0.0
 10
99.578125
 20
170.7158203125
 30
0.0
 10
99.5048828125
 20
170.544921875
 30
0.0
 10
99.4462890625
 20
170.3701171875
 30
0.0
 10
99.376953125
 20
170.1650390625
 30
0.0
 10
99.2392578125
 20
170.080078125
 30
0.0
 10
99.02685546875
 20
170.087890625
 30
0.0
 10
98.869140625
 20
170.0947265625
 30
0.0
 10
98.7099609375
 20
170.087890625
 30
0.0
 10
98.55126953125
 20
170.087890625
 30
0.0
 10
94.3720703125
 20
170.087890625
 30
0.0
 10
90.19384765625
 20
170.0859375
 30
0.0
 10
86.01611328125
 20
170.0908203125
 30
0.0
 10
85.18017578125
 20
170.091796875
 30
0.0
 10
85.255859375
 20
169.935546875
 30
0.0
 10
84.93212890625
 20
170.88671875
 30
0.0
 10
76.9599609375
 20
194.31640625
 30
0.0
 10
68.98681640625
 20
217.7421875
 30
0.0
 10
61.01513671875
 20
241.1708984375
 30
0.0
 10
60.921875
 20
241.443359375
 30
0.0
 10
60.8408203125
 20
241.720703125
 30
0.0
 10
60.73876953125
 20
242.0458984375
 30
0.0
 10
61.07080078125
 20
242.1650390625
 30
0.0
 10
61.3369140625
 20
242.1201171875
 30
0.0
 10
61.59814453125
 20
242.1201171875
 30
0.0
 10
67.8388671875
 20
242.119140625
 30
0.0
 10
74.080078125
 20
242.11328125
 30
0.0
 10
80.32080078125
 20
242.109375
 30
0.0
 10
80.42578125
 20
242.109375
 30
0.0
 10
80.5341796875
 20
242.0947265625
 30
0.0
 10
80.63818359375
 20
242.111328125
 30
0.0
 10
81.06396484375
 20
242.1748046875
 30
0.0
 10
81.2431640625
 20
241.9638671875
 30
0.0
 10
81.35498046875
 20
241.57421875
 30
0.0
 10
81.52197265625
 20
240.990234375
 30
0.0
 10
81.75
 20
240.423828125
 30
0.0
 10
81.953125
 20
239.8515625
 30
0.0
 10
85.2861328125
 20
230.4677734375
 30
0.0
 10
88.619140625
 20
221.0849609375
 30
0.0
 10
91.9541015625
 20
211.703125
 30
0.0
 10
92.10400390625
 20
211.283203125
 30
0.0
 10
92.27294921875
 20
210.869140625
 30
0.0
 10
92.44091796875
 20
210.431640625
 30
0.0
 10
92.73193359375
 20
210.646484375
 30
0.0
 10
92.74609375
 20
210.9521484375
 30
0.0
 10
92.8359375
 20
211.2060546875
 30
0.0
 10
96.35498046875
 20
221.1953125
 30
0.0
 10
99.86181640625
 20
231.189453125
 30
0.0
 10
103.3837890625
 20
241.1796875
 30
0.0
 10
103.77392578125
 20
242.287109375
 30
0.0
 10
103.51220703125
 20
242.119140625
 30
0.0
 10
104.68115234375
 20
242.1201171875
 30
0.0
 10
111.71484375
 20
242.126953125
 30
0.0
 10
118.7490234375
 20
242.123046875
 30
0.0
 10
125.7841796875
 20
242.123046875
 30
0.0
 10
125.916015625
 20
242.123046875
 30
0.0
 10
126.0498046875
 20
242.109375
 30
0.0
 10
126.18017578125
 20
242.1259765625
 30
0.0
 10
126.60107421875
 20
242.18359375
 30
0.0
 10
126.77392578125
 20
241.98046875
 30
0.0
 10
126.90283203125
 20
241.5908203125
 30
0.0
 10
127.60888671875
 20
239.4599609375
 30
0.0
 10
128.3408203125
 20
237.3369140625
 30
0.0
 10
129.06982421875
 20
235.212890625
 30
0.0
 10
131.35791015625
 20
228.54296875
 30
0.0
 10
133.5517578125
 20
221.8408203125
 30
0.0
 10
136.04296875
 20
215.240234375
 30
0.0
 10
136.52783203125
 20
213.955078125
 30
0.0
 10
137.01416015625
 20
212.6708984375
 30
0.0
 10
137.58984375
 20
211.4228515625
 30
0.0
 10
137.68505859375
 20
211.216796875
 30
0.0
 10
137.73486328125
 20
210.966796875
 30
0.0
 10
138.02197265625
 20
210.8388671875
 30
0.0
 10
138.31396484375
 20
211.287109375
 30
0.0
 10
138.44580078125
 20
211.794921875
 30
0.0
 10
138.625
 20
212.279296875
 30
0.0
 10
141.24609375
 20
219.392578125
 30
0.0
 10
143.7001953125
 20
226.564453125
 30
0.0
 10
146.201171875
 20
233.720703125
 30
0.0
 10
147.072265625
 20
236.2138671875
 30
0.0
 10
147.92919921875
 20
238.7109375
 30
0.0
 10
148.794921875
 20
241.20703125
 30
0.0
 10
149.0322265625
 20
241.890625
 30
0.0
 10
149.0361328125
 20
241.89453125
 30
0.0
 10
149.72412109375
 20
241.89453125
 30
0.0
 10
156.1240234375
 20
241.896484375
 30
0.0
 10
162.52294921875
 20
241.896484375
 30
0.0
 10
168.9228515625
 20
241.89453125
 30
0.0
 10
169.10400390625
 20
241.89453125
 30
0.0
 10
169.2919921875
 20
241.927734375
 30
0.0
 10
169.48779296875
 20
241.822265625
 30
0.0
 10
169.580078125
 20
241.5
 30
0.0
 10
169.3798828125
 20
241.22265625
 30
0.0
 10
169.2822265625
 20
240.9375
 30
0.0
  0
ENDBLK
  5
4B
330
48
100
AcDbEntity
  8
0
100
AcDbBlockEnd
  0
BLOCK
  5
50
330
4E
100
AcDbEntity
  8
0
100
AcDbBlockBegin
  2
block 5
 70
     0
 71
     0
 10
0.0
 20
0.0
 30
0.0
  3
block 5
  1

  0
SPLINE
  5
52
330
4E
100
AcDbEntity
  8
Layer 1
370
     0
100
AcDbSpline
210
0.0
220
0.0
230
1.0
 70
    11
 71
     3
 72
   116
 73
   112
 74
     0
 42
0.0000000001
 43
0.0000000001
 40
0.0
 40
0.0
 40
0.0
 40
0.0
 40
1.0
 40
1.0
 40
1.0
 40
2.0
 40
2.0
 40
2.0
 40
3.0
 40
3.0
 40
3.0
 40
4.0
 40
4.0
 40
4.0
 40
5.0
 40
5.0
 40
5.0
 40
6.0
 40
6.0
 40
6.0
 40
7.0
 40
7.0
 40
7.0
 40
8.0
 40
8.0
 40
8.0
 40
9.0
 40
9.0
 40
9.0
 40
10.0
 40
10.0
 40
10.0
 40
11.0
 40
11.0
 40
11.0
 40
12.0
 40
12.0
 40
12.0
 40
13.0
 40
13.0
 40
13.0
 40
14.0
 40
14.0
 40
14.0
 40
15.0
 40
15.0
 40
15.0
 40
16.0
 40
16.0
 40
16.0
 40
17.0
 40
17.0
 40
17.0
 40
18.0
 40
18.0
 40
18.0
 40
19.0
 40
19.0
 40
19.0
 40
20.0
 40
20.0
 40
20.0
 40
21.0
 40
21.0
 40
21.0
 40
22.0
 40
22.0
 40
22.0
 40
23.0
 40
23.0
 40
23.0
 40
24.0
 40
24.0
 40
24.0
 40
25.0
 40
25.0
 40
25.0
 40
26.0
 40
26.0
 40
26.0
 40
27.0
 40
27.0
 40
27.0
 40
28.0
 40
28.0
 40
28.0
 40
29.0
 40
29.0
 40
29.0
 40
30.0
 40
30.0
 40
30.0
 40
31.0
 40
31.0
 40
31.0
 40
32.0
 40
32.0
 40
32.0
 40
33.0
 40
33.0
 40
33.0
 40
34.0
 40
34.0
 40
34.0
 40
35.0
 40
35.0
 40
35.0
 40
36.0
 40
36.0
 40
36.0
 40
37.0
 40
37.0
 40
37.0
 40
37.0
 10
448.9638671875
 20
252.52685546875
 30
0.0
 10
448.927734375
 20
256.35986328125
 30
0.0
 10
448.912109375
 20
260.19384765625
 30
0.0
 10
448.8154296875
 20
264.02685546875
 30
0.0
 10
448.7001953125
 20
268.57421875
 30
0.0
 10
448.6533203125
 20
273.1220703125
 30
0.0
 10
448.5732421875
 20
277.6689453125
 30
0.0
 10
448.5537109375
 20
278.751953125
 30
0.0
 10
448.50390625
 20
279.8359375
 30
0.0
 10
448.4921875
 20
280.9189453125
 30
0.0
 10
448.4873046875
 20
281.27783203125
 30
0.0
 10
448.3955078125
 20
281.47900390625
 30
0.0
 10
447.998046875
 20
281.43115234375
 30
0.0
 10
447.8955078125
 20
281.41796875
 30
0.0
 10
447.787109375
 20
281.43115234375
 30
0.0
 10
447.681640625
 20
281.43212890625
 30
0.0
 10
440.8876953125
 20
281.529296875
 30
0.0
 10
434.0927734375
 20
281.6259765625
 30
0.0
 10
427.2978515625
 20
281.72119140625
 30
0.0
 10
422.5390625
 20
281.7890625
 30
0.0
 10
417.7802734375
 20
281.85498046875
 30
0.0
 10
413.021484375
 20
281.91796875
 30
0.0
 10
411.0654296875
 20
281.94287109375
 30
0.0
 10
409.1083984375
 20
281.958984375
 30
0.0
 10
407.1513671875
 20
281.98095703125
 30
0.0
 10
406.888671875
 20
281.98388671875
 30
0.0
 10
406.607421875
 20
281.93603515625
 30
0.0
 10
406.3818359375
 20
282.10791015625
 30
0.0
 10
405.8876953125
 20
282.48486328125
 30
0.0
 10
405.4072265625
 20
282.8798828125
 30
0.0
 10
404.8447265625
 20
283.328125
 30
0.0
 10
405.2421875
 20
283.5791015625
 30
0.0
 10
405.5234375
 20
283.76318359375
 30
0.0
 10
405.810546875
 20
283.93701171875
 30
0.0
 10
408.732421875
 20
285.7041015625
 30
0.0
 10
411.3251953125
 20
287.85986328125
 30
0.0
 10
413.474609375
 20
290.51611328125
 30
0.0
 10
417.2197265625
 20
295.13720703125
 30
0.0
 10
419.1474609375
 20
300.4169921875
 30
0.0
 10
419.1591796875
 20
306.3828125
 30
0.0
 10
419.1630859375
 20
308.080078125
 30
0.0
 10
418.9951171875
 20
309.76123046875
 30
0.0
 10
418.7802734375
 20
311.43798828125
 30
0.0
 10
418.451171875
 20
313.998046875
 30
0.0
 10
417.8466796875
 20
316.48681640625
 30
0.0
 10
416.548828125
 20
318.7431640625
 30
0.0
 10
414.11328125
 20
322.97705078125
 30
0.0
 10
410.947265625
 20
326.55078125
 30
0.0
 10
406.818359375
 20
329.2138671875
 30
0.0
 10
403.669921875
 20
331.244140625
 30
0.0
 10
400.2509765625
 20
332.58984375
 30
0.0
 10
396.5283203125
 20
333.09521484375
 30
0.0
 10
394.5341796875
 20
333.365234375
 30
0.0
 10
392.51953125
 20
333.3798828125
 30
0.0
 10
390.5126953125
 20
333.43701171875
 30
0.0
 10
386.576171875
 20
333.5498046875
 30
0.0
 10
382.634765625
 20
333.6328125
 30
0.0
 10
378.697265625
 20
333.64111328125
 30
0.0
 10
364.6806640625
 20
333.671875
 30
0.0
 10
350.66796875
 20
333.66796875
 30
0.0
 10
336.65234375
 20
333.6728515625
 30
0.0
 10
335.4541015625
 20
333.673828125
 30
0.0
 10
335.58984375
 20
333.828125
 30
0.0
 10
335.587890625
 20
332.630859375
 30
0.0
 10
335.5859375
 20
314.8349609375
 30
0.0
 10
335.5869140625
 20
297.0390625
 30
0.0
 10
335.5869140625
 20
279.2431640625
 30
0.0
 10
335.5869140625
 20
270.33203125
 30
0.0
 10
335.5869140625
 20
261.4208984375
 30
0.0
 10
335.587890625
 20
252.5087890625
 30
0.0
 10
335.587890625
 20
251.64599609375
 30
0.0
 10
335.58984375
 20
251.64599609375
 30
0.0
 10
336.4443359375
 20
251.64404296875
 30
0.0
 10
336.4443359375
 20
251.64404296875
 30
0.0
 10
336.5244140625
 20
251.64404296875
 30
0.0
 10
336.5244140625
 20
251.64404296875
 30
0.0
 10
346.96875
 20
251.64404296875
 30
0.0
 10
357.4150390625
 20
251.64306640625
 30
0.0
 10
367.859375
 20
251.64404296875
 30
0.0
 10
368.896484375
 20
251.64404296875
 30
0.0
 10
368.7880859375
 20
251.5517578125
 30
0.0
 10
368.7822265625
 20
252.587890625
 30
0.0
 10
368.751953125
 20
258.85498046875
 30
0.0
 10
368.7177734375
 20
265.1220703125
 30
0.0
 10
368.685546875
 20
271.38818359375
 30
0.0
 10
368.6826171875
 20
271.673828125
 30
0.0
 10
368.6845703125
 20
271.9580078125
 30
0.0
 10
368.6845703125
 20
272.4248046875
 30
0.0
 10
368.9990234375
 20
272.14404296875
 30
0.0
 10
369.177734375
 20
271.990234375
 30
0.0
 10
369.3466796875
 20
271.830078125
 30
0.0
 10
373.779296875
 20
267.626953125
 30
0.0
 10
378.21484375
 20
263.42919921875
 30
0.0
 10
382.83203125
 20
259.42724609375
 30
0.0
 10
384.9296875
 20
257.60888671875
 30
0.0
 10
387.0546875
 20
255.826171875
 30
0.0
 10
389.365234375
 20
254.27392578125
 30
0.0
 10
390.9892578125
 20
253.18310546875
 30
0.0
 10
392.728515625
 20
252.42919921875
 30
0.0
 10
394.6943359375
 20
252.18603515625
 30
0.0
 10
396.5068359375
 20
251.9609375
 30
0.0
 10
398.3310546875
 20
251.87890625
 30
0.0
 10
400.150390625
 20
251.8359375
 30
0.0
 10
404.5654296875
 20
251.73193359375
 30
0.0
 10
408.9794921875
 20
251.662109375
 30
0.0
 10
413.39453125
 20
251.65283203125
 30
0.0
 10
424.9501953125
 20
251.62890625
 30
0.0
 10
436.5048828125
 20
251.64501953125
 30
0.0
 10
448.0625
 20
251.64697265625
 30
0.0
 10
449.0146484375
 20
251.64697265625
 30
0.0
 10
448.974609375
 20
251.52197265625
 30
0.0
 10
448.9638671875
 20
252.52685546875
 30
0.0
  0
SPLINE
  5
53
330
4E
100
AcDbEntity
  8
Layer 1
370
     0
100
AcDbSpline
210
0.0
220
0.0
230
1.0
 70
    11
 71
     3
 72
   116
 73
   112
 74
     0
 42
0.0000000001
 43
0.0000000001
 40
0.0
 40
0.0
 40
0.0
 40
0.0
 40
1.0
 40
1.0
 40
1.0
 40
2.0
 40
2.0
 40
2.0
 40
3.0
 40
3.0
 40
3.0
 40
4.0
 40
4.0
 40
4.0
 40
5.0
 40
5.0
 40
5.0
 40
6.0
 40
6.0
 40
6.0
 40
7.0
 40
7.0
 40
7.0
 40
8.0
 40
8.0
 40
8.0
 40
9.0
 40
9.0
 40
9.0
 40
10.0
 40
10.0
 40
10.0
 40
11.0
 40
11.0
 40
11.0
 40
12.0
 40
12.0
 40
12.0
 40
13.0
 40
13.0
 40
13.0
 40
14.0
 40
14.0
 40
14.0
 40
15.0
 40
15.0
 40
15.0
 40
16.0
 40
16.0
 40
16.0
 40
17.0
 40
17.0
 40
17.0
 40
18.0
 40
18.0
 40
18.0
 40
19.0
 40
19.0
 40
19.0
 40
20.0
 40
20.0
 40
20.0
 40
21.0
 40
21.0
 40
21.0
 40
22.0
 40
22.0
 40
22.0
 40
23.0
 40
23.0
 40
23.0
 40
24.0
 40
24.0
 40
24.0
 40
25.0
 40
25.0
 40
25.0
 40
26.0
 40
26.0
 40
26.0
 40
27.0
 40
27.0
 40
27.0
 40
28.0
 40
28.0
 40
28.0
 40
29.0
 40
29.0
 40
29.0
 40
30.0
 40
30.0
 40
30.0
 40
31.0
 40
31.0
 40
31.0
 40
32.0
 40
32.0
 40
32.0
 40
33.0
 40
33.0
 40
33.0
 40
34.0
 40
34.0
 40
34.0
 40
35.0
 40
35.0
 40
35.0
 40
36.0
 40
36.0
 40
36.0
 40
37.0
 40
37.0
 40
37.0
 40
37.0
 10
443.3359375
 20
256.6728515625
 30
0.0
 10
442.7021484375
 20
256.666015625
 30
0.0
 10
442.0673828125
 20
256.6708984375
 30
0.0
 10
441.4326171875
 20
256.671875
 30
0.0
 10
429.216796875
 20
256.68798828125
 30
0.0
 10
417.001953125
 20
256.69384765625
 30
0.0
 10
404.7880859375
 20
256.72900390625
 30
0.0
 10
402.01171875
 20
256.73681640625
 30
0.0
 10
399.2392578125
 20
256.86083984375
 30
0.0
 10
396.466796875
 20
257.01806640625
 30
0.0
 10
394.6376953125
 20
257.1220703125
 30
0.0
 10
393.0458984375
 20
257.7470703125
 30
0.0
 10
391.5703125
 20
258.822265625
 30
0.0
 10
388.9365234375
 20
260.7392578125
 30
0.0
 10
386.47265625
 20
262.85888671875
 30
0.0
 10
384.0478515625
 20
265.02294921875
 30
0.0
 10
377.455078125
 20
270.90185546875
 30
0.0
 10
371.1357421875
 20
277.0712890625
 30
0.0
 10
364.71484375
 20
283.1328125
 30
0.0
 10
364.4091796875
 20
283.4208984375
 30
0.0
 10
364.1064453125
 20
283.708984375
 30
0.0
 10
363.69140625
 20
284.10205078125
 30
0.0
 10
363.59765625
 20
283.27783203125
 30
0.0
 10
363.6669921875
 20
282.64892578125
 30
0.0
 10
363.6689453125
 20
282.02001953125
 30
0.0
 10
363.6953125
 20
273.796875
 30
0.0
 10
363.7177734375
 20
265.57421875
 30
0.0
 10
363.73828125
 20
257.35107421875
 30
0.0
 10
363.7412109375
 20
256.68212890625
 30
0.0
 10
363.732421875
 20
256.673828125
 30
0.0
 10
363.0322265625
 20
256.673828125
 30
0.0
 10
355.7861328125
 20
256.671875
 30
0.0
 10
348.54296875
 20
256.671875
 30
0.0
 10
341.296875
 20
256.6728515625
 30
0.0
 10
340.57421875
 20
256.673828125
 30
0.0
 10
340.5712890625
 20
256.68017578125
 30
0.0
 10
340.5712890625
 20
257.4931640625
 30
0.0
 10
340.5703125
 20
269.52294921875
 30
0.0
 10
340.5703125
 20
281.55419921875
 30
0.0
 10
340.5703125
 20
293.583984375
 30
0.0
 10
340.5703125
 20
304.9267578125
 30
0.0
 10
340.5693359375
 20
316.27001953125
 30
0.0
 10
340.572265625
 20
327.61181640625
 30
0.0
 10
340.572265625
 20
328.85009765625
 30
0.0
 10
340.4140625
 20
328.68603515625
 30
0.0
 10
341.6826171875
 20
328.68603515625
 30
0.0
 10
352.1279296875
 20
328.68994140625
 30
0.0
 10
362.572265625
 20
328.705078125
 30
0.0
 10
373.0146484375
 20
328.68212890625
 30
0.0
 10
377.6162109375
 20
328.671875
 30
0.0
 10
382.2158203125
 20
328.60498046875
 30
0.0
 10
386.81640625
 20
328.52099609375
 30
0.0
 10
389.458984375
 20
328.47216796875
 30
0.0
 10
392.1005859375
 20
328.380859375
 30
0.0
 10
394.740234375
 20
328.23095703125
 30
0.0
 10
398.251953125
 20
328.03125
 30
0.0
 10
401.4296875
 20
326.796875
 30
0.0
 10
404.3447265625
 20
324.876953125
 30
0.0
 10
407.5419921875
 20
322.77294921875
 30
0.0
 10
409.9716796875
 20
319.93701171875
 30
0.0
 10
411.955078125
 20
316.701171875
 30
0.0
 10
413.125
 20
314.7919921875
 30
0.0
 10
413.6083984375
 20
312.65625
 30
0.0
 10
413.859375
 20
310.4599609375
 30
0.0
 10
413.98828125
 20
309.33203125
 30
0.0
 10
414.134765625
 20
308.19921875
 30
0.0
 10
414.1572265625
 20
307.06689453125
 30
0.0
 10
414.2919921875
 20
300.26318359375
 30
0.0
 10
411.5830078125
 20
294.77490234375
 30
0.0
 10
406.3818359375
 20
290.4609375
 30
0.0
 10
405.158203125
 20
289.44580078125
 30
0.0
 10
403.8466796875
 20
288.55908203125
 30
0.0
 10
402.470703125
 20
287.76611328125
 30
0.0
 10
400.939453125
 20
286.8818359375
 30
0.0
 10
399.4287109375
 20
285.95703125
 30
0.0
 10
397.8486328125
 20
285.1572265625
 30
0.0
 10
397.2138671875
 20
284.8349609375
 30
0.0
 10
397.1357421875
 20
284.576171875
 30
0.0
 10
397.5205078125
 20
283.9638671875
 30
0.0
 10
398.185546875
 20
282.90625
 30
0.0
 10
399.0595703125
 20
282.01708984375
 30
0.0
 10
399.919921875
 20
281.12109375
 30
0.0
 10
401.2978515625
 20
279.68603515625
 30
0.0
 10
402.865234375
 20
278.47216796875
 30
0.0
 10
404.43359375
 20
277.2568359375
 30
0.0
 10
404.71484375
 20
277.0390625
 30
0.0
 10
404.9990234375
 20
277.01220703125
 30
0.0
 10
405.3193359375
 20
277.0078125
 30
0.0
 10
409.8115234375
 20
276.951171875
 30
0.0
 10
414.3056640625
 20
276.89501953125
 30
0.0
 10
418.80078125
 20
276.833984375
 30
0.0
 10
423.55859375
 20
276.77001953125
 30
0.0
 10
428.3193359375
 20
276.73095703125
 30
0.0
 10
433.076171875
 20
276.6259765625
 30
0.0
 10
436.2216796875
 20
276.55615234375
 30
0.0
 10
439.3681640625
 20
276.5498046875
 30
0.0
 10
442.513671875
 20
276.5009765625
 30
0.0
 10
442.7001953125
 20
276.498046875
 30
0.0
 10
442.884765625
 20
276.47998046875
 30
0.0
 10
443.068359375
 20
276.49609375
 30
0.0
 10
443.4501953125
 20
276.5302734375
 30
0.0
 10
443.572265625
 20
276.36181640625
 30
0.0
 10
443.5771484375
 20
275.9912109375
 30
0.0
 10
443.59765625
 20
274.4580078125
 30
0.0
 10
443.65234375
 20
272.9248046875
 30
0.0
 10
443.6806640625
 20
271.39208984375
 30
0.0
 10
443.771484375
 20
266.68701171875
 30
0.0
 10
443.8583984375
 20
261.98193359375
 30
0.0
 10
443.9482421875
 20
257.27685546875
 30
0.0
 10
443.9599609375
 20
256.68603515625
 30
0.0
 10
443.9658203125
 20
256.68017578125
 30
0.0
 10
443.3359375
 20
256.6728515625
 30
0.0
  0
ENDBLK
  5
51
330
4E
100
AcDbEntity
  8
0
100
AcDbBlockEnd
  0
BLOCK
  5
56
330
54
100
AcDbEntity
  8
0
100
AcDbBlockBegin
  2
block 6
 70
     0
 71
     0
 10
0.0
 20
0.0
 30
0.0
  3
block 6
  1

  0
SPLINE
  5
58
330
54
100
AcDbEntity
  8
Layer 1
370
     0
100
AcDbSpline
210
0.0
220
0.0
230
1.0
 70
    11
 71
     3
 72
    68
 73
    64
 74
     0
 42
0.0000000001
 43
0.0000000001
 40
0.0
 40
0.0
 40
0.0
 40
0.0
 40
1.0
 40
1.0
 40
1.0
 40
2.0
 40
2.0
 40
2.0
 40
3.0
 40
3.0
 40
3.0
 40
4.0
 40
4.0
 40
4.0
 40
5.0
 40
5.0
 40
5.0
 40
6.0
 40
6.0
 40
6.0
 40
7.0
 40
7.0
 40
7.0
 40
8.0
 40
8.0
 40
8.0
 40
9.0
 40
9.0
 40
9.0
 40
10.0
 40
10.0
 40
10.0
 40
11.0
 40
11.0
 40
11.0
 40
12.0
 40
12.0
 40
12.0
 40
13.0
 40
13.0
 40
13.0
 40
14.0
 40
14.0
 40
14.0
 40
15.0
 40
15.0
 40
15.0
 40
16.0
 40
16.0
 40
16.0
 40
17.0
 40
17.0
 40
17.0
 40
18.0
 40
18.0
 40
18.0
 40
19.0
 40
19.0
 40
19.0
 40
20.0
 40
20.0
 40
20.0
 40
21.0
 40
21.0
 40
21.0
 40
21.0
 10
293.9453125
 20
261.2998046875
 30
0.0
 10
294.9130859375
 20
258.1171875
 30
0.0
 10
295.890625
 20
254.93603515625
 30
0.0
 10
296.8681640625
 20
251.7548828125
 30
0.0
 10
297.0625
 20
251.123046875
 30
0.0
 10
297.068359375
 20
251.1220703125
 30
0.0
 10
297.736328125
 20
251.115234375
 30
0.0
 10
300.1162109375
 20
251.0908203125
 30
0.0
 10
302.49609375
 20
251.05810546875
 30
0.0
 10
304.8759765625
 20
251.046875
 30
0.0
 10
312.3857421875
 20
251.01318359375
 30
0.0
 10
319.896484375
 20
250.98779296875
 30
0.0
 10
327.4072265625
 20
250.9638671875
 30
0.0
 10
327.6630859375
 20
250.9638671875
 30
0.0
 10
327.9306640625
 20
250.89892578125
 30
0.0
 10
328.18359375
 20
251.0419921875
 30
0.0
 10
328.2421875
 20
251.37890625
 30
0.0
 10
328.060546875
 20
251.6591796875
 30
0.0
 10
327.9580078125
 20
251.951171875
 30
0.0
 10
326.1328125
 20
257.244140625
 30
0.0
 10
324.30078125
 20
262.53515625
 30
0.0
 10
322.4697265625
 20
267.8271484375
 30
0.0
 10
314.9619140625
 20
289.5439453125
 30
0.0
 10
307.455078125
 20
311.26171875
 30
0.0
 10
299.94140625
 20
332.97802734375
 30
0.0
 10
299.6875
 20
333.7109375
 30
0.0
 10
299.88671875
 20
333.673828125
 30
0.0
 10
298.9501953125
 20
333.673828125
 30
0.0
 10
285.568359375
 20
333.6748046875
 30
0.0
 10
272.1875
 20
333.6748046875
 30
0.0
 10
258.8046875
 20
333.6748046875
 30
0.0
 10
257.857421875
 20
333.6748046875
 30
0.0
 10
258.0390625
 20
333.69189453125
 30
0.0
 10
257.76953125
 20
332.91796875
 30
0.0
 10
254.5078125
 20
323.48193359375
 30
0.0
 10
251.255859375
 20
314.0419921875
 30
0.0
 10
247.9990234375
 20
304.60400390625
 30
0.0
 10
242.02001953125
 20
287.27685546875
 30
0.0
 10
236.0380859375
 20
269.951171875
 30
0.0
 10
230.06103515625
 20
252.6220703125
 30
0.0
 10
229.9609375
 20
252.33203125
 30
0.0
 10
229.76806640625
 20
252.05419921875
 30
0.0
 10
229.865234375
 20
251.64404296875
 30
0.0
 10
229.865234375
 20
251.64404296875
 30
0.0
 10
230.6279296875
 20
251.64404296875
 30
0.0
 10
230.6279296875
 20
251.64404296875
 30
0.0
 10
240.57080078125
 20
251.64404296875
 30
0.0
 10
250.51416015625
 20
251.64306640625
 30
0.0
 10
260.4580078125
 20
251.64404296875
 30
0.0
 10
261.439453125
 20
251.64404296875
 30
0.0
 10
261.26953125
 20
251.57080078125
 30
0.0
 10
261.5390625
 20
252.427734375
 30
0.0
 10
262.484375
 20
255.42578125
 30
0.0
 10
263.4150390625
 20
258.427734375
 30
0.0
 10
264.34375
 20
261.43017578125
 30
0.0
 10
264.587890625
 20
262.21875
 30
0.0
 10
264.572265625
 20
262.115234375
 30
0.0
 10
265.259765625
 20
262.11181640625
 30
0.0
 10
274.515625
 20
262.076171875
 30
0.0
 10
283.771484375
 20
262.0927734375
 30
0.0
 10
293.02734375
 20
261.97607421875
 30
0.0
 10
293.68359375
 20
261.966796875
 30
0.0
 10
293.689453125
 20
262.13720703125
 30
0.0
 10
293.9453125
 20
261.2998046875
 30
0.0
  0
SPLINE
  5
59
330
54
100
AcDbEntity
  8
Layer 1
370
     0
100
AcDbSpline
210
0.0
220
0.0
230
1.0
 70
    11
 71
     3
 72
    65
 73
    61
 74
     0
 42
0.0000000001
 43
0.0000000001
 40
0.0
 40
0.0
 40
0.0
 40
0.0
 40
1.0
 40
1.0
 40
1.0
 40
2.0
 40
2.0
 40
2.0
 40
3.0
 40
3.0
 40
3.0
 40
4.0
 40
4.0
 40
4.0
 40
5.0
 40
5.0
 40
5.0
 40
6.0
 40
6.0
 40
6.0
 40
7.0
 40
7.0
 40
7.0
 40
8.0
 40
8.0
 40
8.0
 40
9.0
 40
9.0
 40
9.0
 40
10.0
 40
10.0
 40
10.0
 40
11.0
 40
11.0
 40
11.0
 40
12.0
 40
12.0
 40
12.0
 40
13.0
 40
13.0
 40
13.0
 40
14.0
 40
14.0
 40
14.0
 40
15.0
 40
15.0
 40
15.0
 40
16.0
 40
16.0
 40
16.0
 40
17.0
 40
17.0
 40
17.0
 40
18.0
 40
18.0
 40
18.0
 40
19.0
 40
19.0
 40
19.0
 40
20.0
 40
20.0
 40
20.0
 40
20.0
 10
261.7041015625
 20
267.15625
 30
0.0
 10
260.6767578125
 20
267.1611328125
 30
0.0
 10
260.8984375
 20
267.19091796875
 30
0.0
 10
260.63671875
 20
266.35986328125
 30
0.0
 10
259.689453125
 20
263.36279296875
 30
0.0
 10
258.767578125
 20
260.35888671875
 30
0.0
 10
257.83203125
 20
257.35791015625
 30
0.0
 10
257.6201171875
 20
256.6767578125
 30
0.0
 10
257.615234375
 20
256.6728515625
 30
0.0
 10
256.9140625
 20
256.6728515625
 30
0.0
 10
250.43505859375
 20
256.671875
 30
0.0
 10
243.9560546875
 20
256.671875
 30
0.0
 10
237.47705078125
 20
256.673828125
 30
0.0
 10
237.26806640625
 20
256.673828125
 30
0.0
 10
237.05322265625
 20
256.63916015625
 30
0.0
 10
236.84814453125
 20
256.73388671875
 30
0.0
 10
236.7822265625
 20
256.98486328125
 30
0.0
 10
236.923828125
 20
257.1982421875
 30
0.0
 10
236.998046875
 20
257.4150390625
 30
0.0
 10
245.115234375
 20
280.93408203125
 30
0.0
 10
253.236328125
 20
304.4521484375
 30
0.0
 10
261.357421875
 20
327.97021484375
 30
0.0
 10
261.63671875
 20
328.77880859375
 30
0.0
 10
261.5458984375
 20
328.68798828125
 30
0.0
 10
262.421875
 20
328.68896484375
 30
0.0
 10
273.396484375
 20
328.69091796875
 30
0.0
 10
284.37109375
 20
328.69091796875
 30
0.0
 10
295.345703125
 20
328.68798828125
 30
0.0
 10
296.146484375
 20
328.68798828125
 30
0.0
 10
296.07421875
 20
328.8310546875
 30
0.0
 10
296.3837890625
 20
327.93408203125
 30
0.0
 10
303.392578125
 20
307.6640625
 30
0.0
 10
310.400390625
 20
287.39404296875
 30
0.0
 10
317.408203125
 20
267.1240234375
 30
0.0
 10
318.58984375
 20
263.7041015625
 30
0.0
 10
319.7724609375
 20
260.2841796875
 30
0.0
 10
320.953125
 20
256.86279296875
 30
0.0
 10
321.0419921875
 20
256.6171875
 30
0.0
 10
321.171875
 20
256.3798828125
 30
0.0
 10
321.1591796875
 20
256.078125
 30
0.0
 10
320.8701171875
 20
255.9560546875
 30
0.0
 10
320.6298828125
 20
256.00390625
 30
0.0
 10
320.39453125
 20
256.0048828125
 30
0.0
 10
314.126953125
 20
256.02880859375
 30
0.0
 10
307.861328125
 20
256.05712890625
 30
0.0
 10
301.5927734375
 20
256.083984375
 30
0.0
 10
300.779296875
 20
256.087890625
 30
0.0
 10
300.77734375
 20
256.087890625
 30
0.0
 10
300.53125
 20
256.88818359375
 30
0.0
 10
299.57421875
 20
260.01904296875
 30
0.0
 10
298.6220703125
 20
263.15283203125
 30
0.0
 10
297.65234375
 20
266.2822265625
 30
0.0
 10
297.4296875
 20
267.0068359375
 30
0.0
 10
297.603515625
 20
267.0009765625
 30
0.0
 10
296.689453125
 20
267.0029296875
 30
0.0
 10
289.892578125
 20
267.02392578125
 30
0.0
 10
283.09765625
 20
267.041015625
 30
0.0
 10
276.30078125
 20
267.06982421875
 30
0.0
 10
271.435546875
 20
267.0908203125
 30
0.0
 10
266.5703125
 20
267.1279296875
 30
0.0
 10
261.7041015625
 20
267.15625
 30
0.0
  0
ENDBLK
  5
57
330
54
100
AcDbEntity
  8
0
100
AcDbBlockEnd
  0
BLOCK
  5
5C
330
5A
100
AcDbEntity
  8
0
100
AcDbBlockBegin
  2
block 7
 70
     0
 71
     0
 10
0.0
 20
0.0
 30
0.0
  3
block 7
  1

  0
SPLINE
  5
5E
330
5A
100
AcDbEntity
  8
Layer 1
370
     0
100
AcDbSpline
210
0.0
220
0.0
230
1.0
 70
    11
 71
     3
 72
    74
 73
    70
 74
     0
 42
0.0000000001
 43
0.0000000001
 40
0.0
 40
0.0
 40
0.0
 40
0.0
 40
1.0
 40
1.0
 40
1.0
 40
2.0
 40
2.0
 40
2.0
 40
3.0
 40
3.0
 40
3.0
 40
4.0
 40
4.0
 40
4.0
 40
5.0
 40
5.0
 40
5.0
 40
6.0
 40
6.0
 40
6.0
 40
7.0
 40
7.0
 40
7.0
 40
8.0
 40
8.0
 40
8.0
 40
9.0
 40
9.0
 40
9.0
 40
10.0
 40
10.0
 40
10.0
 40
11.0
 40
11.0
 40
11.0
 40
12.0
 40
12.0
 40
12.0
 40
13.0
 40
13.0
 40
13.0
 40
14.0
 40
14.0
 40
14.0
 40
15.0
 40
15.0
 40
15.0
 40
16.0
 40
16.0
 40
16.0
 40
17.0
 40
17.0
 40
17.0
 40
18.0
 40
18.0
 40
18.0
 40
19.0
 40
19.0
 40
19.0
 40
20.0
 40
20.0
 40
20.0
 40
21.0
 40
21.0
 40
21.0
 40
22.0
 40
22.0
 40
22.0
 40
23.0
 40
23.0
 40
23.0
 40
23.0
 10
252.177734375
 20
192.470703125
 30
0.0
 10
245.865234375
 20
210.6328125
 30
0.0
 10
239.55517578125
 20
228.7958984375
 30
0.0
 10
233.2392578125
 20
246.95703125
 30
0.0
 10
232.97802734375
 20
247.7080078125
 30
0.0
 10
233.171875
 20
247.6953125
 30
0.0
 10
232.19091796875
 20
247.6953125
 30
0.0
 10
218.9677734375
 20
247.685546875
 30
0.0
 10
205.7470703125
 20
247.67578125
 30
0.0
 10
192.52392578125
 20
247.6650390625
 30
0.0
 10
191.51123046875
 20
247.6640625
 30
0.0
 10
191.72119140625
 20
247.7099609375
 30
0.0
 10
191.43310546875
 20
246.87890625
 30
0.0
 10
189.43212890625
 20
241.1142578125
 30
0.0
 10
187.44384765625
 20
235.34765625
 30
0.0
 10
185.453125
 20
229.580078125
 30
0.0
 10
178.203125
 20
208.583984375
 30
0.0
 10
170.953125
 20
187.5869140625
 30
0.0
 10
163.708984375
 20
166.5888671875
 30
0.0
 10
163.6171875
 20
166.3232421875
 30
0.0
 10
163.453125
 20
166.0625
 30
0.0
 10
163.52685546875
 20
165.638671875
 30
0.0
 10
163.7880859375
 20
165.638671875
 30
0.0
 10
164.02294921875
 20
165.642578125
 30
0.0
 10
164.26123046875
 20
165.63671875
 30
0.0
 10
168.3330078125
 20
165.599609375
 30
0.0
 10
172.4052734375
 20
165.599609375
 30
0.0
 10
176.47705078125
 20
165.529296875
 30
0.0
 10
182.2138671875
 20
165.427734375
 30
0.0
 10
187.953125
 20
165.39453125
 30
0.0
 10
193.69091796875
 20
165.3349609375
 30
0.0
 10
194.43115234375
 20
165.3271484375
 30
0.0
 10
194.43310546875
 20
165.3310546875
 30
0.0
 10
194.64892578125
 20
166.0517578125
 30
0.0
 10
195.5791015625
 20
169.1650390625
 30
0.0
 10
196.5009765625
 20
172.2802734375
 30
0.0
 10
197.43798828125
 20
175.390625
 30
0.0
 10
197.7412109375
 20
176.396484375
 30
0.0
 10
197.4892578125
 20
176.2529296875
 30
0.0
 10
198.59521484375
 20
176.2451171875
 30
0.0
 10
205.17919921875
 20
176.2001953125
 30
0.0
 10
211.76318359375
 20
176.142578125
 30
0.0
 10
218.34716796875
 20
176.0908203125
 30
0.0
 10
221.01806640625
 20
176.0703125
 30
0.0
 10
223.68798828125
 20
176.052734375
 30
0.0
 10
226.35888671875
 20
176.03125
 30
0.0
 10
226.97802734375
 20
176.025390625
 30
0.0
 10
226.98095703125
 20
176.017578125
 30
0.0
 10
227.171875
 20
175.421875
 30
0.0
 10
227.4228515625
 20
174.642578125
 30
0.0
 10
227.66796875
 20
173.861328125
 30
0.0
 10
227.9130859375
 20
173.080078125
 30
0.0
 10
228.68798828125
 20
170.609375
 30
0.0
 10
229.47412109375
 20
168.14453125
 30
0.0
 10
230.22705078125
 20
165.6669921875
 30
0.0
 10
230.35693359375
 20
165.236328125
 30
0.0
 10
230.5439453125
 20
165.03125
 30
0.0
 10
230.998046875
 20
165.099609375
 30
0.0
 10
231.10107421875
 20
165.115234375
 30
0.0
 10
231.208984375
 20
165.1015625
 30
0.0
 10
231.31494140625
 20
165.1015625
 30
0.0
 10
241.0732421875
 20
165.13671875
 30
0.0
 10
250.830078125
 20
165.1689453125
 30
0.0
 10
260.587890625
 20
165.2021484375
 30
0.0
 10
261.7958984375
 20
165.2060546875
 30
0.0
 10
261.66796875
 20
165.173828125
 30
0.0
 10
261.310546875
 20
166.201171875
 30
0.0
 10
258.26953125
 20
174.9580078125
 30
0.0
 10
255.22265625
 20
183.7138671875
 30
0.0
 10
252.177734375
 20
192.470703125
 30
0.0
  0
SPLINE
  5
5F
330
5A
100
AcDbEntity
  8
Layer 1
370
     0
100
AcDbSpline
210
0.0
220
0.0
230
1.0
 70
    11
 71
     3
 72
    80
 73
    76
 74
     0
 42
0.0000000001
 43
0.0000000001
 40
0.0
 40
0.0
 40
0.0
 40
0.0
 40
1.0
 40
1.0
 40
1.0
 40
2.0
 40
2.0
 40
2.0
 40
3.0
 40
3.0
 40
3.0
 40
4.0
 40
4.0
 40
4.0
 40
5.0
 40
5.0
 40
5.0
 40
6.0
 40
6.0
 40
6.0
 40
7.0
 40
7.0
 40
7.0
 40
8.0
 40
8.0
 40
8.0
 40
9.0
 40
9.0
 40
9.0
 40
10.0
 40
10.0
 40
10.0
 40
11.0
 40
11.0
 40
11.0
 40
12.0
 40
12.0
 40
12.0
 40
13.0
 40
13.0
 40
13.0
 40
14.0
 40
14.0
 40
14.0
 40
15.0
 40
15.0
 40
15.0
 40
16.0
 40
16.0
 40
16.0
 40
17.0
 40
17.0
 40
17.0
 40
18.0
 40
18.0
 40
18.0
 40
19.0
 40
19.0
 40
19.0
 40
20.0
 40
20.0
 40
20.0
 40
21.0
 40
21.0
 40
21.0
 40
22.0
 40
22.0
 40
22.0
 40
23.0
 40
23.0
 40
23.0
 40
24.0
 40
24.0
 40
24.0
 40
25.0
 40
25.0
 40
25.0
 40
25.0
 10
253.9248046875
 20
170.2099609375
 30
0.0
 10
247.6328125
 20
170.169921875
 30
0.0
 10
241.341796875
 20
170.1318359375
 30
0.0
 10
235.048828125
 20
170.091796875
 30
0.0
 10
234.94287109375
 20
170.091796875
 30
0.0
 10
234.837890625
 20
170.0908203125
 30
0.0
 10
234.73193359375
 20
170.0908203125
 30
0.0
 10
234.10693359375
 20
170.099609375
 30
0.0
 10
234.09814453125
 20
170.095703125
 30
0.0
 10
233.9111328125
 20
170.685546875
 30
0.0
 10
233.3837890625
 20
172.34765625
 30
0.0
 10
232.8671875
 20
174.0107421875
 30
0.0
 10
232.34375
 20
175.673828125
 30
0.0
 10
231.8369140625
 20
177.2861328125
 30
0.0
 10
231.31689453125
 20
178.89453125
 30
0.0
 10
230.8310546875
 20
180.513671875
 30
0.0
 10
230.72021484375
 20
180.8837890625
 30
0.0
 10
230.5498046875
 20
181.017578125
 30
0.0
 10
230.16796875
 20
181.01171875
 30
0.0
 10
229.05810546875
 20
180.9951171875
 30
0.0
 10
227.94677734375
 20
181.0078125
 30
0.0
 10
226.8369140625
 20
181.015625
 30
0.0
 10
218.19189453125
 20
181.08203125
 30
0.0
 10
209.5458984375
 20
181.1484375
 30
0.0
 10
200.90185546875
 20
181.2177734375
 30
0.0
 10
198.81396484375
 20
181.236328125
 30
0.0
 10
196.72607421875
 20
181.275390625
 30
0.0
 10
194.63720703125
 20
181.298828125
 30
0.0
 10
193.97412109375
 20
181.306640625
 30
0.0
 10
193.9677734375
 20
181.298828125
 30
0.0
 10
193.77783203125
 20
180.6630859375
 30
0.0
 10
192.8271484375
 20
177.474609375
 30
0.0
 10
191.8798828125
 20
174.28515625
 30
0.0
 10
190.93017578125
 20
171.095703125
 30
0.0
 10
190.7177734375
 20
170.380859375
 30
0.0
 10
190.71484375
 20
170.3759765625
 30
0.0
 10
189.97802734375
 20
170.3828125
 30
0.0
 10
183.712890625
 20
170.4453125
 30
0.0
 10
177.44677734375
 20
170.5107421875
 30
0.0
 10
171.18212890625
 20
170.57421875
 30
0.0
 10
171.0771484375
 20
170.576171875
 30
0.0
 10
170.97021484375
 20
170.58203125
 30
0.0
 10
170.865234375
 20
170.5771484375
 30
0.0
 10
170.47119140625
 20
170.556640625
 30
0.0
 10
170.42919921875
 20
170.736328125
 30
0.0
 10
170.5458984375
 20
171.06640625
 30
0.0
 10
171.01806640625
 20
172.4130859375
 30
0.0
 10
171.47412109375
 20
173.763671875
 30
0.0
 10
171.93994140625
 20
175.111328125
 30
0.0
 10
179.60888671875
 20
197.326171875
 30
0.0
 10
187.27783203125
 20
219.5419921875
 30
0.0
 10
194.9541015625
 20
241.755859375
 30
0.0
 10
195.3310546875
 20
242.84765625
 30
0.0
 10
195.11181640625
 20
242.6875
 30
0.0
 10
196.26416015625
 20
242.689453125
 30
0.0
 10
207.02490234375
 20
242.705078125
 30
0.0
 10
217.78515625
 20
242.7119140625
 30
0.0
 10
228.5458984375
 20
242.72265625
 30
0.0
 10
228.5458984375
 20
242.72265625
 30
0.0
 10
228.705078125
 20
242.72265625
 30
0.0
 10
228.705078125
 20
242.72265625
 30
0.0
 10
229.58203125
 20
242.71875
 30
0.0
 10
229.39892578125
 20
242.751953125
 30
0.0
 10
229.64501953125
 20
242.06640625
 30
0.0
 10
230.18896484375
 20
240.55078125
 30
0.0
 10
230.7080078125
 20
239.02734375
 30
0.0
 10
231.23681640625
 20
237.5048828125
 30
0.0
 10
238.93408203125
 20
215.35546875
 30
0.0
 10
246.6318359375
 20
193.205078125
 30
0.0
 10
254.3271484375
 20
171.0546875
 30
0.0
 10
254.412109375
 20
170.80859375
 30
0.0
 10
254.5439453125
 20
170.57421875
 30
0.0
 10
254.52734375
 20
170.2099609375
 30
0.0
 10
254.29296875
 20
170.2099609375
 30
0.0
 10
254.109375
 20
170.2109375
 30
0.0
 10
253.9248046875
 20
170.2099609375
 30
0.0
  0
ENDBLK
  5
5D
330
5A
100
AcDbEntity
  8
0
100
AcDbBlockEnd
  0
BLOCK
  5
62
330
60
100
AcDbEntity
  8
0
100
AcDbBlockBegin
  2
block 8
 70
     0
 71
     0
 10
0.0
 20
0.0
 30
0.0
  3
block 8
  1

  0
SPLINE
  5
64
330
60
100
AcDbEntity
  8
Layer 1
370
     0
100
AcDbSpline
210
0.0
220
0.0
230
1.0
 70
    11
 71
     3
 72
    56
 73
    52
 74
     0
 42
0.0000000001
 43
0.0000000001
 40
0.0
 40
0.0
 40
0.0
 40
0.0
 40
1.0
 40
1.0
 40
1.0
 40
2.0
 40
2.0
 40
2.0
 40
3.0
 40
3.0
 40
3.0
 40
4.0
 40
4.0
 40
4.0
 40
5.0
 40
5.0
 40
5.0
 40
6.0
 40
6.0
 40
6.0
 40
7.0
 40
7.0
 40
7.0
 40
8.0
 40
8.0
 40
8.0
 40
9.0
 40
9.0
 40
9.0
 40
10.0
 40
10.0
 40
10.0
 40
11.0
 40
11.0
 40
11.0
 40
12.0
 40
12.0
 40
12.0
 40
13.0
 40
13.0
 40
13.0
 40
14.0
 40
14.0
 40
14.0
 40
15.0
 40
15.0
 40
15.0
 40
16.0
 40
16.0
 40
16.0
 40
17.0
 40
17.0
 40
17.0
 40
17.0
 10
320.279296875
 20
226.84765625
 30
0.0
 10
319.1435546875
 20
226.890625
 30
0.0
 10
318.009765625
 20
227.001953125
 30
0.0
 10
316.8759765625
 20
227.01171875
 30
0.0
 10
314.314453125
 20
227.0380859375
 30
0.0
 10
311.7509765625
 20
227.021484375
 30
0.0
 10
309.1875
 20
227.021484375
 30
0.0
 10
309.1875
 20
227.021484375
 30
0.0
 10
309.1875
 20
227.169921875
 30
0.0
 10
309.1875
 20
227.169921875
 30
0.0
 10
309.1875
 20
227.169921875
 30
0.0
 10
298.486328125
 20
227.169921875
 30
0.0
 10
298.486328125
 20
227.169921875
 30
0.0
 10
298.2998046875
 20
227.169921875
 30
0.0
 10
298.1171875
 20
227.1630859375
 30
0.0
 10
297.931640625
 20
227.171875
 30
0.0
 10
297.671875
 20
227.185546875
 30
0.0
 10
297.52734375
 20
227.0908203125
 30
0.0
 10
297.5419921875
 20
226.8125
 30
0.0
 10
297.5498046875
 20
226.654296875
 30
0.0
 10
297.544921875
 20
226.49609375
 30
0.0
 10
297.544921875
 20
226.3369140625
 30
0.0
 10
297.533203125
 20
222.611328125
 30
0.0
 10
297.525390625
 20
218.8857421875
 30
0.0
 10
297.5068359375
 20
215.16015625
 30
0.0
 10
297.4990234375
 20
213.5751953125
 30
0.0
 10
297.474609375
 20
211.990234375
 30
0.0
 10
297.43359375
 20
210.404296875
 30
0.0
 10
297.4248046875
 20
210.04296875
 30
0.0
 10
297.533203125
 20
209.859375
 30
0.0
 10
297.900390625
 20
209.837890625
 30
0.0
 10
298.0322265625
 20
209.830078125
 30
0.0
 10
298.158203125
 20
209.771484375
 30
0.0
 10
298.2880859375
 20
209.7548828125
 30
0.0
 10
300.3828125
 20
209.48828125
 30
0.0
 10
302.486328125
 20
209.2841796875
 30
0.0
 10
304.6015625
 20
209.2587890625
 30
0.0
 10
307.2431640625
 20
209.228515625
 30
0.0
 10
309.884765625
 20
209.2001953125
 30
0.0
 10
312.5283203125
 20
209.2197265625
 30
0.0
 10
315.138671875
 20
209.23828125
 30
0.0
 10
317.759765625
 20
209.15234375
 30
0.0
 10
320.353515625
 20
209.5751953125
 30
0.0
 10
323.0751953125
 20
210.017578125
 30
0.0
 10
325.2666015625
 20
211.35546875
 30
0.0
 10
326.74609375
 20
213.6875
 30
0.0
 10
328.8388671875
 20
216.98828125
 30
0.0
 10
328.373046875
 20
221.19921875
 30
0.0
 10
325.7001953125
 20
224.0869140625
 30
0.0
 10
324.228515625
 20
225.6728515625
 30
0.0
 10
322.513671875
 20
226.759765625
 30
0.0
 10
320.279296875
 20
226.84765625
 30
0.0
  0
SPLINE
  5
65
330
60
100
AcDbEntity
  8
Layer 1
370
     0
100
AcDbSpline
210
0.0
220
0.0
230
1.0
 70
    11
 71
     3
 72
    41
 73
    37
 74
     0
 42
0.0000000001
 43
0.0000000001
 40
0.0
 40
0.0
 40
0.0
 40
0.0
 40
1.0
 40
1.0
 40
1.0
 40
2.0
 40
2.0
 40
2.0
 40
3.0
 40
3.0
 40
3.0
 40
4.0
 40
4.0
 40
4.0
 40
5.0
 40
5.0
 40
5.0
 40
6.0
 40
6.0
 40
6.0
 40
7.0
 40
7.0
 40
7.0
 40
8.0
 40
8.0
 40
8.0
 40
9.0
 40
9.0
 40
9.0
 40
10.0
 40
10.0
 40
10.0
 40
11.0
 40
11.0
 40
11.0
 40
12.0
 40
12.0
 40
12.0
 40
12.0
 10
322.96484375
 20
217.3720703125
 30
0.0
 10
322.65234375
 20
216.080078125
 30
0.0
 10
321.78515625
 20
215.28515625
 30
0.0
 10
320.599609375
 20
214.7939453125
 30
0.0
 10
319.8330078125
 20
214.4765625
 30
0.0
 10
319.0166015625
 20
214.3837890625
 30
0.0
 10
318.2001953125
 20
214.341796875
 30
0.0
 10
314.0537109375
 20
214.123046875
 30
0.0
 10
309.9052734375
 20
214.1689453125
 30
0.0
 10
305.755859375
 20
214.212890625
 30
0.0
 10
304.8330078125
 20
214.22265625
 30
0.0
 10
303.9091796875
 20
214.30859375
 30
0.0
 10
302.984375
 20
214.3291015625
 30
0.0
 10
302.595703125
 20
214.337890625
 30
0.0
 10
302.4970703125
 20
214.5029296875
 30
0.0
 10
302.5
 20
214.86328125
 30
0.0
 10
302.517578125
 20
217.109375
 30
0.0
 10
302.515625
 20
219.35546875
 30
0.0
 10
302.529296875
 20
221.6015625
 30
0.0
 10
302.5322265625
 20
222.1015625
 30
0.0
 10
302.5498046875
 20
222.111328125
 30
0.0
 10
303.166015625
 20
222.11328125
 30
0.0
 10
305.80859375
 20
222.1162109375
 30
0.0
 10
308.4501953125
 20
222.1142578125
 30
0.0
 10
311.0927734375
 20
222.1142578125
 30
0.0
 10
313.5517578125
 20
222.138671875
 30
0.0
 10
316.0078125
 20
222.021484375
 30
0.0
 10
318.462890625
 20
221.93359375
 30
0.0
 10
319.095703125
 20
221.9111328125
 30
0.0
 10
319.7265625
 20
221.841796875
 30
0.0
 10
320.359375
 20
221.779296875
 30
0.0
 10
320.5390625
 20
221.759765625
 30
0.0
 10
320.732421875
 20
221.71875
 30
0.0
 10
320.88671875
 20
221.6318359375
 30
0.0
 10
322.255859375
 20
220.857421875
 30
0.0
 10
323.38671875
 20
219.1162109375
 30
0.0
 10
322.96484375
 20
217.3720703125
 30
0.0
  0
ENDBLK
  5
63
330
60
100
AcDbEntity
  8
0
100
AcDbBlockEnd
  0
BLOCK
  5
68
330
66
100
AcDbEntity
  8
0
100
AcDbBlockBegin
  2
block 9
 70
     0
 71
     0
 10
0.0
 20
0.0
 30
0.0
  3
block 9
  1

  0
SPLINE
  5
6A
330
66
100
AcDbEntity
  8
Layer 1
370
     0
100
AcDbSpline
210
0.0
220
0.0
230
1.0
 70
    11
 71
     3
 72
    44
 73
    40
 74
     0
 42
0.0000000001
 43
0.0000000001
 40
0.0
 40
0.0
 40
0.0
 40
0.0
 40
1.0
 40
1.0
 40
1.0
 40
2.0
 40
2.0
 40
2.0
 40
3.0
 40
3.0
 40
3.0
 40
4.0
 40
4.0
 40
4.0
 40
5.0
 40
5.0
 40
5.0
 40
6.0
 40
6.0
 40
6.0
 40
7.0
 40
7.0
 40
7.0
 40
8.0
 40
8.0
 40
8.0
 40
9.0
 40
9.0
 40
9.0
 40
10.0
 40
10.0
 40
10.0
 40
11.0
 40
11.0
 40
11.0
 40
12.0
 40
12.0
 40
12.0
 40
13.0
 40
13.0
 40
13.0
 40
13.0
 10
391.2138671875
 20
311.19189453125
 30
0.0
 10
389.5830078125
 20
312.615234375
 30
0.0
 10
387.697265625
 20
313.5009765625
 30
0.0
 10
385.5478515625
 20
313.81982421875
 30
0.0
 10
384.2109375
 20
314.01806640625
 30
0.0
 10
382.8623046875
 20
314.0859375
 30
0.0
 10
381.517578125
 20
314.09619140625
 30
0.0
 10
375.6494140625
 20
314.13916015625
 30
0.0
 10
369.7802734375
 20
314.134765625
 30
0.0
 10
363.91015625
 20
314.14306640625
 30
0.0
 10
363.30859375
 20
314.14404296875
 30
0.0
 10
363.296875
 20
314.1298828125
 30
0.0
 10
363.296875
 20
313.52880859375
 30
0.0
 10
363.29296875
 20
308.00390625
 30
0.0
 10
363.29296875
 20
302.47802734375
 30
0.0
 10
363.296875
 20
296.9521484375
 30
0.0
 10
363.296875
 20
296.3388671875
 30
0.0
 10
363.30859375
 20
296.3388671875
 30
0.0
 10
363.90625
 20
296.322265625
 30
0.0
 10
364.06640625
 20
296.31787109375
 30
0.0
 10
364.2236328125
 20
296.32080078125
 30
0.0
 10
364.3828125
 20
296.32080078125
 30
0.0
 10
364.3828125
 20
296.32080078125
 30
0.0
 10
375.185546875
 20
296.32080078125
 30
0.0
 10
375.185546875
 20
296.32080078125
 30
0.0
 10
378.2353515625
 20
296.3369140625
 30
0.0
 10
381.779296875
 20
296.34814453125
 30
0.0
 10
385.3203125
 20
296.365234375
 30
0.0
 10
387.83203125
 20
296.376953125
 30
0.0
 10
389.8056640625
 20
297.3427734375
 30
0.0
 10
391.431640625
 20
299.18408203125
 30
0.0
 10
392.3203125
 20
300.19189453125
 30
0.0
 10
393.00390625
 20
301.30078125
 30
0.0
 10
393.298828125
 20
302.6279296875
 30
0.0
 10
393.765625
 20
304.72705078125
 30
0.0
 10
393.5439453125
 20
306.77783203125
 30
0.0
 10
392.83984375
 20
308.78515625
 30
0.0
 10
392.509765625
 20
309.72314453125
 30
0.0
 10
391.96484375
 20
310.537109375
 30
0.0
 10
391.2138671875
 20
311.19189453125
 30
0.0
  0
SPLINE
  5
6B
330
66
100
AcDbEntity
  8
Layer 1
370
     0
100
AcDbSpline
210
0.0
220
0.0
230
1.0
 70
    11
 71
     3
 72
    38
 73
    34
 74
     0
 42
0.0000000001
 43
0.0000000001
 40
0.0
 40
0.0
 40
0.0
 40
0.0
 40
1.0
 40
1.0
 40
1.0
 40
2.0
 40
2.0
 40
2.0
 40
3.0
 40
3.0
 40
3.0
 40
4.0
 40
4.0
 40
4.0
 40
5.0
 40
5.0
 40
5.0
 40
6.0
 40
6.0
 40
6.0
 40
7.0
 40
7.0
 40
7.0
 40
8.0
 40
8.0
 40
8.0
 40
9.0
 40
9.0
 40
9.0
 40
10.0
 40
10.0
 40
10.0
 40
11.0
 40
11.0
 40
11.0
 40
11.0
 10
388.5
 20
304.14013671875
 30
0.0
 10
388.47265625
 20
303.65087890625
 30
0.0
 10
388.2841796875
 20
303.20703125
 30
0.0
 10
387.974609375
 20
302.8369140625
 30
0.0
 10
387.263671875
 20
301.98681640625
 30
0.0
 10
386.4853515625
 20
301.4111328125
 30
0.0
 10
385.2392578125
 20
301.38720703125
 30
0.0
 10
382.5986328125
 20
301.3349609375
 30
0.0
 10
379.95703125
 20
301.30615234375
 30
0.0
 10
377.705078125
 20
301.29296875
 30
0.0
 10
374.5673828125
 20
301.29296875
 30
0.0
 10
371.8203125
 20
301.2919921875
 30
0.0
 10
369.072265625
 20
301.2939453125
 30
0.0
 10
368.330078125
 20
301.2939453125
 30
0.0
 10
368.3232421875
 20
301.2978515625
 30
0.0
 10
368.322265625
 20
302.0048828125
 30
0.0
 10
368.3193359375
 20
304.171875
 30
0.0
 10
368.318359375
 20
306.337890625
 30
0.0
 10
368.322265625
 20
308.5048828125
 30
0.0
 10
368.3232421875
 20
309.1591796875
 30
0.0
 10
368.33203125
 20
309.171875
 30
0.0
 10
368.9677734375
 20
309.1708984375
 30
0.0
 10
373.5908203125
 20
309.162109375
 30
0.0
 10
378.2138671875
 20
309.23779296875
 30
0.0
 10
382.8359375
 20
309.0458984375
 30
0.0
 10
384.26171875
 20
308.98486328125
 30
0.0
 10
385.673828125
 20
308.8681640625
 30
0.0
 10
386.9697265625
 20
308.14208984375
 30
0.0
 10
387.7646484375
 20
307.69677734375
 30
0.0
 10
388.27734375
 20
307.1142578125
 30
0.0
 10
388.4072265625
 20
306.19287109375
 30
0.0
 10
388.5048828125
 20
305.5087890625
 30
0.0
 10
388.537109375
 20
304.826171875
 30
0.0
 10
388.5
 20
304.14013671875
 30
0.0
  0
ENDBLK
  5
69
330
66
100
AcDbEntity
  8
0
100
AcDbBlockEnd
  0
BLOCK
  5
6E
330
6C
100
AcDbEntity
  8
0
100
AcDbBlockBegin
  2
block 10
 70
     0
 71
     0
 10
0.0
 20
0.0
 30
0.0
  3
block 10
  1

  0
SPLINE
  5
70
330
6C
100
AcDbEntity
  8
Layer 1
370
     0
100
AcDbSpline
210
0.0
220
0.0
230
1.0
 70
    11
 71
     3
 72
    14
 73
    10
 74
     0
 42
0.0000000001
 43
0.0000000001
 40
0.0
 40
0.0
 40
0.0
 40
0.0
 40
1.0
 40
1.0
 40
1.0
 40
2.0
 40
2.0
 40
2.0
 40
3.0
 40
3.0
 40
3.0
 40
3.0
 10
266.908203125
 20
282.6982421875
 30
0.0
 10
267.556640625
 20
282.56591796875
 30
0.0
 10
290.703125
 20
282.61181640625
 30
0.0
 10
291.6015625
 20
282.7470703125
 30
0.0
 10
291.41015625
 20
283.93017578125
 30
0.0
 10
279.958984375
 20
317.60107421875
 30
0.0
 10
279.5234375
 20
318.26220703125
 30
0.0
 10
278.3779296875
 20
315.85205078125
 30
0.0
 10
267.048828125
 20
283.9208984375
 30
0.0
 10
266.908203125
 20
282.6982421875
 30
0.0
  0
SPLINE
  5
71
330
6C
100
AcDbEntity
  8
Layer 1
370
     0
100
AcDbSpline
210
0.0
220
0.0
230
1.0
 70
    11
 71
     3
 72
    17
 73
    13
 74
     0
 42
0.0000000001
 43
0.0000000001
 40
0.0
 40
0.0
 40
0.0
 40
0.0
 40
1.0
 40
1.0
 40
1.0
 40
2.0
 40
2.0
 40
2.0
 40
3.0
 40
3.0
 40
3.0
 40
4.0
 40
4.0
 40
4.0
 40
4.0
 10
273.8046875
 20
287.666015625
 30
0.0
 10
275.6689453125
 20
292.908203125
 30
0.0
 10
277.513671875
 20
298.0927734375
 30
0.0
 10
279.359375
 20
303.27978515625
 30
0.0
 10
279.4072265625
 20
303.287109375
 30
0.0
 10
279.4560546875
 20
303.2939453125
 30
0.0
 10
279.5048828125
 20
303.30078125
 30
0.0
 10
281.259765625
 20
298.125
 30
0.0
 10
283.017578125
 20
292.94921875
 30
0.0
 10
284.8125
 20
287.666015625
 30
0.0
 10
284.8125
 20
287.666015625
 30
0.0
 10
273.8046875
 20
287.666015625
 30
0.0
 10
273.8046875
 20
287.666015625
 30
0.0
  0
ENDBLK
  5
6F
330
6C
100
AcDbEntity
  8
0
100
AcDbBlockEnd
  0
BLOCK
  5
74
330
72
100
AcDbEntity
  8
0
100
AcDbBlockBegin
  2
block 11
 70
     0
 71
     0
 10
0.0
 20
0.0
 30
0.0
  3
block 11
  1

  0
SPLINE
  5
76
330
72
100
AcDbEntity
  8
Layer 1
370
     0
100
AcDbSpline
210
0.0
220
0.0
230
1.0
 70
    11
 71
     3
 72
    14
 73
    10
 74
     0
 42
0.0000000001
 43
0.0000000001
 40
0.0
 40
0.0
 40
0.0
 40
0.0
 40
1.0
 40
1.0
 40
1.0
 40
2.0
 40
2.0
 40
2.0
 40
3.0
 40
3.0
 40
3.0
 40
3.0
 10
200.09521484375
 20
196.98046875
 30
0.0
 10
200.09521484375
 20
196.98046875
 30
0.0
 10
224.7021484375
 20
196.98046875
 30
0.0
 10
224.7021484375
 20
196.98046875
 30
0.0
 10
220.7568359375
 20
208.6640625
 30
0.0
 10
216.84375
 20
220.2490234375
 30
0.0
 10
212.8828125
 20
231.9765625
 30
0.0
 10
208.59521484375
 20
220.2412109375
 30
0.0
 10
204.35107421875
 20
208.6259765625
 30
0.0
 10
200.09521484375
 20
196.98046875
 30
0.0
  0
SPLINE
  5
77
330
72
100
AcDbEntity
  8
Layer 1
370
     0
100
AcDbSpline
210
0.0
220
0.0
230
1.0
 70
    11
 71
     3
 72
    17
 73
    13
 74
     0
 42
0.0000000001
 43
0.0000000001
 40
0.0
 40
0.0
 40
0.0
 40
0.0
 40
1.0
 40
1.0
 40
1.0
 40
2.0
 40
2.0
 40
2.0
 40
3.0
 40
3.0
 40
3.0
 40
4.0
 40
4.0
 40
4.0
 40
4.0
 10
207.2578125
 20
201.98828125
 30
0.0
 10
209.05810546875
 20
206.900390625
 30
0.0
 10
210.8408203125
 20
211.767578125
 30
0.0
 10
212.623046875
 20
216.6337890625
 30
0.0
 10
212.67578125
 20
216.63671875
 30
0.0
 10
212.72998046875
 20
216.638671875
 30
0.0
 10
212.7841796875
 20
216.640625
 30
0.0
 10
214.43115234375
 20
211.771484375
 30
0.0
 10
216.0791015625
 20
206.90234375
 30
0.0
 10
217.740234375
 20
201.98828125
 30
0.0
 10
217.740234375
 20
201.98828125
 30
0.0
 10
207.2578125
 20
201.98828125
 30
0.0
 10
207.2578125
 20
201.98828125
 30
0.0
  0
ENDBLK
  5
75
330
72
100
AcDbEntity
  8
0
100
AcDbBlockEnd
  0
ENDSEC
  0
SECTION
  2
ENTITIES
  0
INSERT
  5
3D
330
1F
100
AcDbEntity
  8
Layer 1
100
AcDbBlockReference
  2
block 2
 10
0.0
 20
0.0
 30
0.0
  0
INSERT
  5
43
330
1F
100
AcDbEntity
  8
Layer 1
100
AcDbBlockReference
  2
block 3
 10
0.0
 20
0.0
 30
0.0
  0
INSERT
  5
49
330
1F
100
AcDbEntity
  8
Layer 1
100
AcDbBlockReference
  2
block 4
 10
0.0
 20
0.0
 30
0.0
  0
INSERT
  5
4F
330
1F
100
AcDbEntity
  8
Layer 1
100
AcDbBlockReference
  2
block 5
 10
0.0
 20
0.0
 30
0.0
  0
INSERT
  5
55
330
1F
100
AcDbEntity
  8
Layer 1
100
AcDbBlockReference
  2
block 6
 10
0.0
 20
0.0
 30
0.0
  0
INSERT
  5
5B
330
1F
100
AcDbEntity
  8
Layer 1
100
AcDbBlockReference
  2
block 7
 10
0.0
 20
0.0
 30
0.0
  0
INSERT
  5
61
330
1F
100
AcDbEntity
  8
Layer 1
100
AcDbBlockReference
  2
block 8
 10
0.0
 20
0.0
 30
0.0
  0
INSERT
  5
67
330
1F
100
AcDbEntity
  8
Layer 1
100
AcDbBlockReference
  2
block 9
 10
0.0
 20
0.0
 30
0.0
  0
INSERT
  5
6D
330
1F
100
AcDbEntity
  8
Layer 1
100
AcDbBlockReference
  2
block 10
 10
0.0
 20
0.0
 30
0.0
  0
INSERT
  5
73
330
1F
100
AcDbEntity
  8
Layer 1
100
AcDbBlockReference
  2
block 11
 10
0.0
 20
0.0
 30
0.0
  0
ENDSEC
  0
SECTION
  2
OBJECTS
  0
DICTIONARY
  5
C
330
0
100
AcDbDictionary
281
     1
  3
ACAD_GROUP
350
D
  3
ACAD_LAYOUT
350
1A
  3
ACAD_MLINESTYLE
350
17
  3
ACAD_PLOTSETTINGS
350
19
  3
ACAD_PLOTSTYLENAME
350
E
  3
ACAD_TABLESTYLE
350
78
  3
ACAD_VISUALSTYLE
350
2A
  0
DICTIONARY
  5
D
102
{ACAD_REACTORS
330
C
102
}
330
C
100
AcDbDictionary
281
     1
  0
DICTIONARY
  5
1A
102
{ACAD_REACTORS
330
C
102
}
330
C
100
AcDbDictionary
281
     1
  3
Layout1
350
1E
  3
Layout2
350
26
  3
Model
350
22
  0
DICTIONARY
  5
17
102
{ACAD_REACTORS
330
C
102
}
330
C
100
AcDbDictionary
281
     1
  3
Standard
350
18
  0
DICTIONARY
  5
19
102
{ACAD_REACTORS
330
C
102
}
330
C
100
AcDbDictionary
281
     1
  0
ACDBDICTIONARYWDFLT
  5
E
102
{ACAD_REACTORS
330
C
102
}
330
C
100
AcDbDictionary
281
     1
  3
Normal
350
F
100
AcDbDictionaryWithDefault
340
F
  0
DICTIONARY
  5
78
102
{ACAD_REACTORS
330
C
102
}
330
C
100
AcDbDictionary
281
     1
  0
DICTIONARY
  5
2A
102
{ACAD_REACTORS
330
C
102
}
330
C
100
AcDbDictionary
281
     1
  3
2dWireframe
350
2F
  3
3D Hidden
350
31
  3
3dWireframe
350
30
  3
Basic
350
32
  3
Brighten
350
36
  3
ColorChange
350
3A
  3
Conceptual
350
34
  3
Dim
350
35
  3
Facepattern
350
39
  3
Flat
350
2B
  3
FlatWithEdges
350
2C
  3
Gouraud
350
2D
  3
GouraudWithEdges
350
2E
  3
Linepattern
350
38
  3
Realistic
350
33
  3
Thicken
350
37
  0
LAYOUT
  5
1E
102
{ACAD_REACTORS
330
1A
102
}
330
1A
100
AcDbPlotSettings
  1

  2
none_device
  4

  6

 40
0.0
 41
0.0
 42
0.0
 43
0.0
 44
0.0
 45
0.0
 46
0.0
 47
0.0
 48
0.0
 49
0.0
140
0.0
141
0.0
142
1.0
143
1.0
 70
   688
 72
     0
 73
     0
 74
     5
  7

 75
    16
 76
     0
 77
     2
 78
   300
147
1.0
148
0.0
149
0.0
100
AcDbLayout
  1
Layout1
 70
     1
 71
     1
 10
0.0
 20
0.0
 11
12.0
 21
9.0
 12
0.0
 22
0.0
 32
0.0
 14
1.000000000000000E+20
 24
1.000000000000000E+20
 34
1.000000000000000E+20
 15
-1.000000000000000E+20
 25
-1.000000000000000E+20
 35
-1.000000000000000E+20
146
0.0
 13
0.0
 23
0.0
 33
0.0
 16
1.0
 26
0.0
 36
0.0
 17
0.0
 27
1.0
 37
0.0
 76
     0
330
1B
  0
LAYOUT
  5
26
102
{ACAD_REACTORS
330
1A
102
}
330
1A
100
AcDbPlotSettings
  1

  2
none_device
  4

  6

 40
0.0
 41
0.0
 42
0.0
 43
0.0
 44
0.0
 45
0.0
 46
0.0
 47
0.0
 48
0.0
 49
0.0
140
0.0
141
0.0
142
1.0
143
1.0
 70
   688
 72
     0
 73
     0
 74
     5
  7

 75
    16
 76
     0
 77
     2
 78
   300
147
1.0
148
0.0
149
0.0
100
AcDbLayout
  1
Layout2
 70
     1
 71
     2
 10
0.0
 20
0.0
 11
0.0
 21
0.0
 12
0.0
 22
0.0
 32
0.0
 14
0.0
 24
0.0
 34
0.0
 15
0.0
 25
0.0
 35
0.0
146
0.0
 13
0.0
 23
0.0
 33
0.0
 16
1.0
 26
0.0
 36
0.0
 17
0.0
 27
1.0
 37
0.0
 76
     0
330
23
  0
LAYOUT
  5
22
102
{ACAD_REACTORS
330
1A
102
}
330
1A
100
AcDbPlotSettings
  1

  2
none_device
  4

  6

 40
0.0
 41
0.0
 42
0.0
 43
0.0
 44
0.0
 45
0.0
 46
0.0
 47
0.0
 48
0.0
 49
0.0
140
0.0
141
0.0
142
1.0
143
1.0
 70
  1712
 72
     0
 73
     0
 74
     0
  7

 75
     0
 76
     0
 77
     2
 78
   300
147
1.0
148
0.0
149
0.0
100
AcDbLayout
  1
Model
 70
     1
 71
     0
 10
0.0
 20
0.0
 11
12.0
 21
9.0
 12
0.0
 22
0.0
 32
0.0
 14
1.000000000000000E+20
 24
1.000000000000000E+20
 34
1.000000000000000E+20
 15
-1.000000000000000E+20
 25
-1.000000000000000E+20
 35
-1.000000000000000E+20
146
0.0
 13
0.0
 23
0.0
 33
0.0
 16
1.0
 26
0.0
 36
0.0
 17
0.0
 27
1.0
 37
0.0
 76
     0
330
1F
331
29
  0
MLINESTYLE
  5
18
102
{ACAD_REACTORS
330
17
102
}
330
17
100
AcDbMlineStyle
  2
Standard
 70
     0
  3

 62
   256
 51
90.0
 52
90.0
 71
     2
 49
0.5
 62
   256
  6
BYLAYER
 49
-0.5
 62
   256
  6
BYLAYER
  0
ACDBPLACEHOLDER
  5
F
102
{ACAD_REACTORS
330
E
102
}
330
E
  0
VISUALSTYLE
  5
2F
102
{ACAD_REACTORS
330
2A
102
}
330
2A
100
AcDbVisualStyle
  2
2dWireframe
 70
     4
 71
     0
 72
     2
 73
     0
 90
        0
 40
-0.6
 41
-30.0
 62
     5
 63
     7
421
 16777215
 74
     1
 91
        4
 64
     7
 65
   257
 75
     1
175
     1
 42
1.0
 92
        0
 66
   257
 43
1.0
 76
     1
 77
     6
 78
     2
 67
     7
 79
     5
170
     0
171
     0
290
     0
174
     0
 93
        1
 44
0.0
173
     0
291
     0
 45
0.0
1001
ACAD
1000
AcDbSavedByObjectVersion
1070
     0
  0
VISUALSTYLE
  5
31
102
{ACAD_REACTORS
330
2A
102
}
330
2A
100
AcDbVisualStyle
  2
3D Hidden
 70
     6
 71
     1
 72
     2
 73
     2
 90
        0
 40
-0.6
 41
-30.0
 62
     5
 63
     7
421
 16777215
 74
     2
 91
        2
 64
     7
 65
   257
 75
     2
175
     1
 42
40.0
 92
        0
 66
   257
 43
1.0
 76
     1
 77
     6
 78
     2
 67
     7
 79
     3
170
     0
171
     0
290
     0
174
     0
 93
        1
 44
0.0
173
     0
291
     0
 45
0.0
1001
ACAD
1000
AcDbSavedByObjectVersion
1070
     0
  0
VISUALSTYLE
  5
30
102
{ACAD_REACTORS
330
2A
102
}
330
2A
100
AcDbVisualStyle
  2
3dWireframe
 70
     5
 71
     0
 72
     2
 73
     0
 90
        0
 40
-0.6
 41
-30.0
 62
     5
 63
     7
421
 16777215
 74
     1
 91
        4
 64
     7
 65
   257
 75
     1
175
     1
 42
1.0
 92
        0
 66
   257
 43
1.0
 76
     1
 77
     6
 78
     2
 67
     7
 79
     5
170
     0
171
     0
290
     0
174
     0
 93
        1
 44
0.0
173
     0
291
     0
 45
0.0
1001
ACAD
1000
AcDbSavedByObjectVersion
1070
     0
  0
VISUALSTYLE
  5
32
102
{ACAD_REACTORS
330
2A
102
}
330
2A
100
AcDbVisualStyle
  2
Basic
 70
     7
 71
     1
 72
     0
 73
     1
 90
        0
 40
-0.6
 41
-30.0
 62
     5
 63
     7
421
 16777215
 74
     0
 91
        4
 64
     7
 65
   257
 75
     1
175
     1
 42
1.0
 92
        8
 66
     7
 43
1.0
 76
     1
 77
     6
 78
     2
 67
     7
 79
     5
170
     0
171
     0
290
     0
174
     0
 93
        1
 44
0.0
173
     0
291
     1
 45
0.0
1001
ACAD
1000
AcDbSavedByObjectVersion
1070
     0
  0
VISUALSTYLE
  5
36
102
{ACAD_REACTORS
330
2A
102
}
330
2A
100
AcDbVisualStyle
  2
Brighten
 70
    12
 71
     2
 72
     2
 73
     0
 90
        0
 40
-0.6
 41
-30.0
 62
     5
 63
     7
421
 16777215
 74
     1
 91
        4
 64
     7
 65
   257
 75
     1
175
     1
 42
1.0
 92
        8
 66
     7
 43
1.0
 76
     1
 77
     6
 78
     2
 67
     7
 79
     5
170
     0
171
     0
290
     0
174
     0
 93
        1
 44
50.0
173
     0
291
     1
 45
0.0
1001
ACAD
1000
AcDbSavedByObjectVersion
1070
     0
  0
VISUALSTYLE
  5
3A
102
{ACAD_REACTORS
330
2A
102
}
330
2A
100
AcDbVisualStyle
  2
ColorChange
 70
    16
 71
     2
 72
     2
 73
     3
 90
        0
 40
-0.6
 41
-30.0
 62
     5
 63
     8
421
  8421504
 74
     1
 91
        4
 64
     7
 65
   257
 75
     1
175
     1
 42
1.0
 92
        8
 66
     8
424
  8421504
 43
1.0
 76
     1
 77
     6
 78
     2
 67
     7
 79
     5
170
     0
171
     0
290
     0
174
     0
 93
        1
 44
0.0
173
     0
291
     1
 45
0.0
1001
ACAD
1000
AcDbSavedByObjectVersion
1070
     0
  0
VISUALSTYLE
  5
34
102
{ACAD_REACTORS
330
2A
102
}
330
2A
100
AcDbVisualStyle
  2
Conceptual
 70
     9
 71
     3
 72
     2
 73
     0
 90
        0
 40
-0.6
 41
-30.0
 62
     5
 63
     7
421
 16777215
 74
     2
 91
        2
 64
     7
 65
   257
 75
     1
175
     1
 42
40.0
 92
        8
 66
     7
 43
1.0
 76
     1
 77
     6
 78
     2
 67
     7
 79
     3
170
     0
171
     0
290
     0
174
     0
 93
        1
 44
0.0
173
     0
291
     0
 45
0.0
1001
ACAD
1000
AcDbSavedByObjectVersion
1070
     0
  0
VISUALSTYLE
  5
35
102
{ACAD_REACTORS
330
2A
102
}
330
2A
100
AcDbVisualStyle
  2
Dim
 70
    11
 71
     2
 72
     2
 73
     0
 90
        0
 40
-0.6
 41
-30.0
 62
     5
 63
     7
421
 16777215
 74
     1
 91
        4
 64
     7
 65
   257
 75
     1
175
     1
 42
1.0
 92
        8
 66
     7
 43
1.0
 76
     1
 77
     6
 78
     2
 67
     7
 79
     5
170
     0
171
     0
290
     0
174
     0
 93
        1
 44
-50.0
173
     0
291
     1
 45
0.0
1001
ACAD
1000
AcDbSavedByObjectVersion
1070
     0
  0
VISUALSTYLE
  5
39
102
{ACAD_REACTORS
330
2A
102
}
330
2A
100
AcDbVisualStyle
  2
Facepattern
 70
    15
 71
     2
 72
     2
 73
     0
 90
        0
 40
-0.6
 41
-30.0
 62
     5
 63
     7
421
 16777215
 74
     1
 91
        4
 64
     7
 65
   257
 75
     1
175
     1
 42
1.0
 92
        8
 66
     7
 43
1.0
 76
     1
 77
     6
 78
     2
 67
     7
 79
     5
170
     0
171
     0
290
     0
174
     0
 93
        1
 44
0.0
173
     0
291
     1
 45
0.0
1001
ACAD
1000
AcDbSavedByObjectVersion
1070
     0
  0
VISUALSTYLE
  5
2B
102
{ACAD_REACTORS
330
2A
102
}
330
2A
100
AcDbVisualStyle
  2
Flat
 70
     0
 71
     2
 72
     1
 73
     1
 90
        2
 40
-0.6
 41
30.0
 62
     5
 63
     7
421
 16777215
 74
     0
 91
        4
 64
     7
 65
   257
 75
     1
175
     1
 42
1.0
 92
        8
 66
     7
 43
1.0
 76
     1
 77
     6
 78
     2
 67
     7
 79
     5
170
     0
171
     0
290
     0
174
     0
 93
       13
 44
0.0
173
     0
291
     1
 45
0.0
1001
ACAD
1000
AcDbSavedByObjectVersion
1070
     0
  0
VISUALSTYLE
  5
2C
102
{ACAD_REACTORS
330
2A
102
}
330
2A
100
AcDbVisualStyle
  2
FlatWithEdges
 70
     1
 71
     2
 72
     1
 73
     1
 90
        2
 40
-0.6
 41
30.0
 62
     5
 63
     7
421
 16777215
 74
     1
 91
        4
 64
     7
 65
   257
 75
     1
175
     1
 42
1.0
 92
        0
 66
   257
 43
1.0
 76
     1
 77
     6
 78
     2
 67
     7
 79
     5
170
     0
171
     0
290
     0
174
     0
 93
       13
 44
0.0
173
     0
291
     1
 45
0.0
1001
ACAD
1000
AcDbSavedByObjectVersion
1070
     0
  0
VISUALSTYLE
  5
2D
102
{ACAD_REACTORS
330
2A
102
}
330
2A
100
AcDbVisualStyle
  2
Gouraud
 70
     2
 71
     2
 72
     2
 73
     1
 90
        2
 40
-0.6
 41
30.0
 62
     5
 63
     7
421
 16777215
 74
     0
 91
        4
 64
     7
 65
   257
 75
     1
175
     1
 42
1.0
 92
        0
 66
     7
 43
1.0
 76
     1
 77
     6
 78
     2
 67
     7
 79
     5
170
     0
171
     0
290
     0
174
     0
 93
       13
 44
0.0
173
     0
291
     1
 45
0.0
1001
ACAD
1000
AcDbSavedByObjectVersion
1070
     0
  0
VISUALSTYLE
  5
2E
102
{ACAD_REACTORS
330
2A
102
}
330
2A
100
AcDbVisualStyle
  2
GouraudWithEdges
 70
     3
 71
     2
 72
     2
 73
     1
 90
        2
 40
-0.6
 41
30.0
 62
     5
 63
     7
421
 16777215
 74
     1
 91
        4
 64
     7
 65
   257
 75
     1
175
     1
 42
1.0
 92
        0
 66
   257
 43
1.0
 76
     1
 77
     6
 78
     2
 67
     7
 79
     5
170
     0
171
     0
290
     0
174
     0
 93
       13
 44
0.0
173
     0
291
     1
 45
0.0
1001
ACAD
1000
AcDbSavedByObjectVersion
1070
     0
  0
VISUALSTYLE
  5
38
102
{ACAD_REACTORS
330
2A
102
}
330
2A
100
AcDbVisualStyle
  2
Linepattern
 70
    14
 71
     2
 72
     2
 73
     0
 90
        0
 40
-0.6
 41
-30.0
 62
     5
 63
     7
421
 16777215
 74
     1
 91
        4
 64
     7
 65
   257
 75
     7
175
     7
 42
1.0
 92
        8
 66
     7
 43
1.0
 76
     1
 77
     6
 78
     2
 67
     7
 79
     5
170
     0
171
     0
290
     0
174
     0
 93
        1
 44
0.0
173
     0
291
     1
 45
0.0
1001
ACAD
1000
AcDbSavedByObjectVersion
1070
     0
  0
VISUALSTYLE
  5
33
102
{ACAD_REACTORS
330
2A
102
}
330
2A
100
AcDbVisualStyle
  2
Realistic
 70
     8
 71
     2
 72
     2
 73
     0
 90
        0
 40
-0.6
 41
-30.0
 62
     5
 63
     7
421
 16777215
 74
     1
 91
        0
 64
     7
 65
   257
 75
     1
175
     1
 42
1.0
 92
        8
 66
     8
424
  7895160
 43
1.0
 76
     1
 77
     6
 78
     2
 67
     7
 79
     5
170
     0
171
     0
290
     0
174
     0
 93
       13
 44
0.0
173
     0
291
     0
 45
0.0
1001
ACAD
1000
AcDbSavedByObjectVersion
1070
     0
  0
VISUALSTYLE
  5
37
102
{ACAD_REACTORS
330
2A
102
}
330
2A
100
AcDbVisualStyle
  2
Thicken
 70
    13
 71
     2
 72
     2
 73
     0
 90
        0
 40
-0.6
 41
-30.0
 62
     5
 63
     7
421
 16777215
 74
     1
 91
        4
 64
     7
 65
   257
 75
     1
175
     1
 42
1.0
 92
       12
 66
     7
 43
1.0
 76
     1
 77
     6
 78
     2
 67
     7
 79
     5
170
     0
171
     0
290
     0
174
     0
 93
        1
 44
0.0
173
     0
291
     1
 45
0.0
1001
ACAD
1000
AcDbSavedByObjectVersion
1070
     0
  0
ENDSEC
  0
EOF
