<?xml version="1.0" encoding="utf-8"?>
<!-- Generator: Adobe Illustrator 13.0.0, SVG Export Plug-In . SVG Version: 6.00 Build 14948)  -->
<!DOCTYPE svg PUBLIC "-//W3C//DTD SVG 1.1//EN" "http://www.w3.org/Graphics/SVG/1.1/DTD/svg11.dtd">
<svg version="1.1" id="Layer_1" xmlns="http://www.w3.org/2000/svg" xmlns:xlink="http://www.w3.org/1999/xlink" x="0px" y="0px"
	 width="500px" height="500px" viewBox="0 0 500 500" enable-background="new 0 0 500 500" xml:space="preserve">
<path d="M134.1,247.399c1.608-0.107,3.209-0.308,4.769-0.726c3.533-0.946,6.566-2.829,9.113-5.379
	c5.358-5.366,7.942-11.882,7.532-19.493c-0.128-2.371-0.74-4.644-2.03-6.682c-0.551-0.87-1.126-1.727-1.716-2.571
	c-2.985-4.271-6.227-8.347-9.445-12.441c-1.437-1.829-2.864-3.667-4.126-5.625c-0.208-0.323-0.612-0.666-0.416-1.054
	c0.225-0.445,0.759-0.241,1.157-0.241c11.715-0.03,23.43-0.05,35.145-0.071c1.132-0.002,1.132-0.002,1.132,1.128
	c0.001,17.586,0.001,35.172,0.001,52.757c0,0.943-0.057,0.85,0.858,0.854h0.159c9.784,0,19.569,0.002,29.353-0.001
	c1.153-0.001,1.016,0.131,1.016-1.011c0.002-17.48,0.001-34.96,0.001-52.439c0-0.185-0.002-0.37,0-0.555
	c0.007-0.705,0.008-0.705,0.749-0.71h34.034c0.212,0,0.424-0.01,0.635,0.001c0.303,0.017,0.441-0.11,0.416-0.418
	c-0.011-0.131-0.001-0.264-0.001-0.396c0-8.754,0.001-17.507-0.002-26.26c0-0.286,0.062-0.584-0.104-0.852
	c-3.068,0-6.135,0-9.206-0.001c-0.001,0-0.002,0-0.003,0.001h-31.728c0,0,0,0-0.001,0h-42.205c0,0.027-0.003,0.054-0.005,0.081
	c-11.984-0.001-23.967,0.005-35.949-0.005c-2.869-0.002-5.615,0.543-8.241,1.694c-5.518,2.42-9.427,6.514-12.18,11.781
	c-2.053,3.927-2.903,8.109-2.759,12.552c0.092,2.849,0.751,5.469,2.147,7.939c1.492,2.643,3.434,4.948,5.376,7.25
	c2.726,3.231,5.627,6.311,8.329,9.564c0.289,0.348,0.871,0.698,0.646,1.171c-0.224,0.47-0.862,0.25-1.319,0.25
	c-14.59,0.009-29.182,0.008-43.774,0.008c-6.132,0-12.265-0.002-18.398,0.004c-0.441,0-0.907-0.091-1.295,0.229v30.147
	c0.212-0.004,0.423-0.01,0.634-0.01c20.045-0.005,40.09,0.006,60.134-0.023C119.724,247.835,126.918,247.879,134.1,247.399z
	 M56.878,241.643c-0.008-5.977-0.005-11.953-0.002-17.928c0-1.004-0.122-0.947,0.928-0.947c19.778,0,39.556-0.002,59.335,0.01
	c0.664,0,1.242-0.098,1.751-0.553c0.294-0.262,0.642-0.463,0.97-0.687c1.738-1.186,2.372-2.904,2.353-4.923
	c-0.006-0.685-0.35-1.267-0.706-1.826c-0.554-0.872-1.201-1.676-1.878-2.454c-2.761-3.171-5.538-6.327-8.292-9.501
	c-1.317-1.518-2.543-3.106-3.712-4.745c-1.969-2.762-2.617-5.825-2.348-9.161c0.452-5.597,2.846-10.231,6.94-13.992
	c3.132-2.877,6.858-4.437,11.136-4.488c4.706-0.057,9.413-0.04,14.12-0.042c14.041-0.004,28.081-0.001,42.122-0.001
	c-0.001-0.051-0.001-0.103-0.001-0.154c18.932,0,37.864,0,56.797,0.001c1.171,0,1.021-0.121,1.022,1.001
	c0.005,5.288,0.003,10.577,0.002,15.865c0,0.185-0.009,0.371,0.001,0.555c0.017,0.295-0.097,0.445-0.408,0.431
	c-0.238-0.01-0.476,0.001-0.714,0.001h-33.713c-1.148,0-1.006-0.075-1.006,1.035c-0.002,17.557,0,35.114-0.004,52.671
	c0,1.163,0.16,1.013-1.002,1.014c-6.452,0.005-12.903,0.002-19.355,0.002c-0.185,0-0.371-0.01-0.555,0
	c-0.301,0.018-0.436-0.111-0.422-0.416c0.012-0.264,0-0.529,0-0.793c0-17.479,0.001-34.957-0.002-52.435
	c0-1.296,0.157-1.108-1.071-1.106c-6.558,0.011-13.116,0.028-19.673,0.052c-7.139,0.025-14.278,0.046-21.417,0.096
	c-3.343,0.024-5.533,2.38-5.389,5.715c0.03,0.703,0.261,1.343,0.57,1.962c0.544,1.092,1.237,2.091,1.948,3.078
	c2.181,3.025,4.542,5.911,6.823,8.858c2.346,3.032,4.644,6.097,6.807,9.264c1.178,1.725,1.651,3.641,1.765,5.672
	c0.325,5.804-2.782,13.888-9.994,17.837c-1.854,1.016-3.811,1.532-5.878,1.716c-5.273,0.47-10.561,0.481-15.848,0.483
	c-20.28,0.01-40.561,0.013-60.842,0.014C56.666,242.824,56.88,243.006,56.878,241.643z M446.771,252.068
	c-16.237,0-32.474,0-48.708,0.002c-2.966,0-5.916,0.162-8.811,0.879c-4.21,1.045-8.011,2.889-11.084,5.988
	c-5.604,5.656-7.567,12.533-6.592,20.344c0.383,3.074,1.539,5.858,3.148,8.477c1.811,2.946,4.072,5.523,6.456,8.01
	c2.253,2.35,4.362,4.824,6.363,7.389c0.173,0.223,0.399,0.421,0.449,0.754c-0.211,0.152-0.452,0.119-0.681,0.139
	c-2.85,0.237-5.707,0.208-8.562,0.214c-9.968,0.017-19.937,0.042-29.906-0.045c-2.749-0.024-5.495-0.071-8.238-0.296
	c-0.784-0.064-1.272-0.493-1.747-1.059c1.889-1.235,3.659-2.531,5.284-4.012c2.156-1.966,4.175-4.059,5.571-6.656
	c1.196-2.219,2.062-4.574,2.71-7.006c0.473-1.771,0.685-3.584,0.595-5.418c-0.189-3.898-1.354-7.52-3.236-10.918
	c-2.424-4.379-5.695-8-9.829-10.816c-4.885-3.329-10.269-5.11-16.215-5.107c-17.797,0.008-35.592,0.002-53.389,0.004
	c-1.031,0-0.924-0.121-0.922,0.938c0.049,26.68,0.103,53.36,0.153,80.04c0.002,0.186,0.013,0.369,0.003,0.555
	c-0.014,0.278,0.12,0.381,0.383,0.363c0.133-0.008,0.264,0,0.396,0.002c10.232,0.063,20.466,0.127,30.699,0.188
	c1.063,0.006,0.923,0.088,0.93-0.936c0.047-6.637,0.088-13.271,0.137-19.91c0.004-0.238-0.102-0.513,0.133-0.751
	c0.217,0.204,0.407,0.386,0.598,0.568c3.332,3.173,6.643,6.368,10.05,9.461c2.974,2.702,5.961,5.394,9.237,7.733
	c1.791,1.28,3.658,2.433,5.825,2.961c1.784,0.434,3.621,0.431,5.438,0.487c3.7,0.113,7.401,0.153,11.102,0.224h-0.001
	c0.252,0.218,0.557,0.123,0.838,0.125c1.875,0.012,3.751,0.018,5.626,0.015c1.506-0.001,3.01-0.017,4.516-0.024
	c1.312,0.002,2.625,0.004,3.938,0.008c0,0.056-0.001,0.111-0.003,0.168h28.721c-0.001-0.057-0.001-0.11-0.003-0.168
	c0.52-0.002,1.038-0.006,1.561-0.012c0.014-0.006,0.028-0.007,0.043-0.013c-0.016,0.006-0.03,0.012-0.046,0.017
	c1.953,0.006,3.905,0.01,5.857,0.016c0.136,0,0.26-0.033,0.361-0.129c-0.058,0-0.115,0.001-0.173,0.001
	c0.059-0.003,0.116-0.003,0.175-0.007c0.291-0.008,0.581-0.017,0.872-0.026c3.726-0.126,7.451-0.203,11.144-0.784
	c2.562-0.402,4.984-1.163,7.131-2.662c2.328-1.628,4.494-3.445,6.272-5.673c4.269-5.342,6.311-11.347,5.359-18.231
	c-0.36-2.608-1.216-5.021-2.684-7.215c-0.618-0.923-1.236-1.846-1.925-2.717c-2.642-3.338-5.296-6.664-7.938-10
	c-1.561-1.968-3.201-3.873-4.59-5.971c-0.105-0.158-0.305-0.299-0.198-0.555c0.106-0.006,0.212-0.021,0.317-0.021
	c6.53,0.002,13.062,0,19.594,0.01c6.026,0.008,12.057,0.026,18.086,0.038c0.639,0.001,0.646-0.007,0.652-0.653
	c0.019-2.246,0.039-4.492,0.046-6.742c0.019-6.741,0.03-13.485,0.044-20.228C448.109,252.072,448.108,252.068,446.771,252.068z
	 M443.067,257.846c-0.009,5.793-0.02,11.584-0.028,17.375c0,0.133-0.008,0.266-0.001,0.396c0.011,0.264-0.104,0.392-0.372,0.385
	c-0.237-0.005-0.477,0.004-0.714,0.004c-11.106-0.014-22.214-0.027-33.32-0.042c-0.581,0-1.164,0.03-1.745,0.004
	c-0.691-0.032-1.253,0.228-1.668,0.749c-1.123,1.412-1.561,3.034-1.367,4.824c0.039,0.372,0.235,0.695,0.42,1.02
	c1.266,2.211,2.843,4.198,4.423,6.186c3.063,3.848,6.13,7.689,9.189,11.541c0.411,0.518,0.78,1.066,1.18,1.592
	c2.994,3.946,3.484,8.354,2.313,13.021c-1.118,4.438-3.66,7.98-7.17,10.858c-1.205,0.989-2.425,1.96-3.903,2.536
	c-1.366,0.531-2.793,0.791-4.233,0.967c-2.784,0.34-5.582,0.452-8.386,0.516c-12.93,0.287-25.859,0.115-38.792,0.148
	c-4.15,0.012-8.304-0.008-12.454-0.045c-3.676-0.033-7.352-0.07-11.024-0.183c-1.795-0.056-3.595-0.06-5.384-0.263
	c-0.986-0.111-1.895-0.453-2.761-0.927c-1.536-0.839-2.941-1.87-4.305-2.963c-3.694-2.964-7.16-6.188-10.608-9.431
	c-3.833-3.604-7.646-7.23-11.478-10.84c-0.944-0.887-1.922-1.736-2.89-2.599c-0.209-0.184-0.418-0.383-0.795-0.538
	c0,0.354,0.002,0.633,0,0.91c-0.051,8.646-0.102,17.295-0.154,25.942c-0.006,1.02,0.123,0.944-0.928,0.94
	c-6.742-0.018-13.486-0.037-20.229-0.058c-0.187,0-0.37,0-0.556-0.002c-0.766-0.009-0.771-0.009-0.771-0.786
	c-0.016-10.499-0.025-20.997-0.041-31.496c-0.01-6.531-0.021-13.063-0.041-19.595c-0.017-6.347-0.045-12.692-0.063-19.039
	c-0.004-1.115-0.137-1.037,1.004-1.037c16.023,0,32.048,0.004,48.074-0.003c4.697-0.001,9.03,1.271,12.962,3.816
	c4.484,2.903,7.854,6.795,9.976,11.725c1.059,2.452,1.664,5.007,1.563,7.702c-0.079,2.12-0.781,4.079-1.474,6.053
	c-1.215,3.472-3.556,6.082-6.272,8.42c-2.093,1.802-4.36,3.337-6.884,4.483c-0.625,0.283-1.227,0.625-1.778,1.035
	c-0.519,0.387-0.563,0.57-0.204,1.123c0.288,0.439,0.607,0.867,0.954,1.266c1.17,1.334,2.479,2.521,3.809,3.697
	c1.393,1.231,3.019,1.64,4.808,1.738c6.578,0.36,13.163,0.293,19.745,0.303c7.352,0.013,14.704,0.014,22.054-0.031
	c2.245-0.014,4.495-0.059,6.721-0.426c0.47-0.077,0.933-0.186,1.379-0.348c0.699-0.253,1.251-0.689,1.582-1.363
	c0.281-0.567,0.541-1.146,0.796-1.727c0.396-0.904,0.317-1.798-0.09-2.683c-0.411-0.896-0.942-1.716-1.547-2.486
	c-2.231-2.854-4.583-5.606-7.104-8.214c-2.341-2.42-4.508-4.979-6.131-7.954c-1.288-2.36-2.009-4.871-1.969-7.583
	c0.026-1.795-0.076-3.59,0.405-5.355c1.826-6.695,6.041-11.063,12.691-13.047c2.29-0.683,4.649-0.977,7.04-0.977
	c15.205-0.005,30.411-0.002,45.617-0.002h0.158C443.127,257.087,443.068,257,443.067,257.846z M175.987,252.665
	c-0.076-0.011-0.153-0.031-0.23-0.031c-10.076-0.003-20.151,0.002-30.227-0.019c-0.531-0.001-0.654,0.258-0.792,0.658
	c-1.789,5.193-3.588,10.386-5.387,15.576c-0.632,1.819-1.269,3.639-1.935,5.547c-0.281-0.328-0.335-0.647-0.435-0.942
	c-2.312-6.774-4.622-13.55-6.926-20.325c-0.329-0.967-0.259-0.777-1.094-0.777c-9.493-0.005-18.987-0.004-28.48-0.002
	c-0.938,0-0.772-0.078-1.057,0.728c-2.347,6.649-4.683,13.305-7.027,19.956c-0.119,0.338-0.187,0.701-0.41,1.005
	c-0.267-0.171-0.275-0.463-0.359-0.702c-2.388-6.721-4.77-13.441-7.147-20.165c-0.324-0.917-0.248-0.806-1.088-0.808
	c-9.837-0.008-19.674-0.012-29.512-0.012c-0.197,0-0.417-0.07-0.599,0.098c0.013,0.354,0.172,0.666,0.281,0.986
	c9.033,26.555,18.07,53.109,27.107,79.664c0.101,0.299,0.215,0.596,0.307,0.898c0.079,0.261,0.222,0.406,0.512,0.383
	c0.158-0.013,0.318-0.001,0.476-0.001h19.516c0.132,0,0.266-0.015,0.396,0.002c0.338,0.043,0.561-0.071,0.643-0.421
	c0.031-0.128,0.091-0.247,0.137-0.371c3.873-10.622,7.746-21.242,11.621-31.863c0.085-0.233,0.116-0.507,0.336-0.701
	c0.203,0.205,0.24,0.438,0.314,0.656c3.12,9.036,6.24,18.075,9.36,27.113c0.646,1.872,1.303,3.741,1.939,5.616
	c0.136,0.401,0.329,0.647,0.791,0.571c0.155-0.023,0.317-0.002,0.476-0.002c6.426,0,12.852,0.004,19.278-0.004
	c1.275-0.002,1.008,0.209,1.42-0.99c4.542-13.213,9.073-26.43,13.608-39.647c4.696-13.688,9.393-27.38,14.089-41.071
	C175.954,253.078,176.101,252.896,175.987,252.665z M168.782,258.563c-3.441,10.045-6.891,20.086-10.336,30.129
	c-4.621,13.466-9.239,26.933-13.858,40.396c-0.043,0.125-0.106,0.246-0.131,0.374c-0.073,0.388-0.301,0.494-0.68,0.483
	c-0.925-0.022-1.852-0.008-2.777-0.008c-3.464,0-6.928,0.002-10.393-0.002c-0.663,0-0.667-0.004-0.883-0.633
	c-4.745-13.813-9.489-27.627-14.233-41.439c-0.214-0.624-0.42-1.25-0.636-1.891c-0.33,0.119-0.317,0.428-0.4,0.652
	c-2.595,7.096-5.182,14.193-7.769,21.291c-2.515,6.896-5.03,13.796-7.545,20.693c-0.063,0.175-0.136,0.346-0.195,0.521
	c-0.069,0.205-0.207,0.29-0.419,0.282c-0.158-0.007-0.317,0-0.476,0c-4.179,0-8.357,0.002-12.535-0.003
	c-0.836-0.001-0.76,0.155-1.084-0.796c-7.972-23.43-15.945-46.855-23.917-70.284c-0.093-0.272-0.174-0.55-0.276-0.875
	c0.332-0.119,0.598-0.074,0.859-0.074c6.241,0.001,12.482,0.007,18.723,0.011c0.105,0,0.213,0.015,0.317-0.002
	c0.426-0.063,0.605,0.147,0.717,0.537c0.167,0.584,0.395,1.15,0.598,1.723c3.333,9.384,6.666,18.767,10.001,28.148
	c0.15,0.42,0.319,0.834,0.487,1.271c0.291-0.215,0.305-0.521,0.395-0.774c3.519-9.989,7.026-19.983,10.548-29.974
	c0.39-1.107,0.128-0.939,1.297-0.94c7.034-0.007,14.068-0.003,21.103-0.003c0.132,0,0.266,0.014,0.396-0.003
	c0.421-0.058,0.594,0.146,0.723,0.535c0.706,2.131,1.438,4.254,2.167,6.378c2.288,6.67,4.482,13.372,6.973,19.973
	c0.485,1.285,0.971,2.569,1.547,3.817c0.095,0.206,0.145,0.456,0.432,0.584c0.292-0.448,0.424-0.956,0.603-1.44
	c2.621-7.113,5.075-14.285,7.576-21.441c0.871-2.493,1.728-4.99,2.594-7.486c0.237-0.684,0.241-0.688,0.929-0.688
	c6.4-0.002,12.799-0.002,19.199,0c0.181,0,0.369-0.033,0.565,0.072C169.08,258,168.88,258.277,168.782,258.563z M448.464,246.973
	c-0.036-3.833-0.052-7.667-0.148-11.5c-0.115-4.547-0.162-9.095-0.242-13.642c-0.02-1.083-0.069-2.167-0.081-3.25
	c-0.005-0.359-0.097-0.56-0.494-0.512c-0.103,0.013-0.211,0-0.316-0.001c-6.794-0.097-13.589-0.194-20.384-0.289
	c-4.759-0.068-9.518-0.134-14.276-0.197c-1.956-0.025-3.913-0.041-5.87-0.063c-0.263-0.003-0.544,0.045-0.77-0.127
	c-0.494-0.377-0.975-0.772-1.537-1.22c0.397-0.251,0.679-0.435,0.966-0.609c2.922-1.767,5.515-3.923,7.664-6.579
	c3.745-4.621,5.673-9.901,5.685-15.867c0.004-1.697-0.164-3.378-0.379-5.055c-0.329-2.56-0.934-5.049-2.231-7.305
	c-2.436-4.234-5.602-7.808-9.73-10.471c-3.148-2.03-6.567-3.376-10.29-3.881c-1.994-0.27-4.009-0.285-6.016-0.342
	c-3.937-0.113-7.878-0.196-11.815-0.204c-14.017-0.031-28.029-0.027-42.045-0.032c-1.198-0.001-1.063-0.155-1.064,1.042
	c-0.002,17.796-0.001,35.592-0.001,53.388c0,8.911,0,17.822,0.001,26.734c0,0.863,0.002,0.863,0.856,0.865h0.08
	c10.444,0,20.891,0.001,31.335,0c1.037,0,0.929,0.092,0.923-0.944c-0.03-6.267-0.064-12.534-0.097-18.8
	c-0.003-0.286-0.001-0.57-0.001-1.037c0.314,0.281,0.493,0.435,0.662,0.595c4.433,4.203,8.868,8.401,13.485,12.403
	c2.098,1.818,4.223,3.601,6.533,5.153c1.624,1.091,3.363,1.845,5.329,2.088c1.813,0.225,3.637,0.307,5.456,0.35
	c4.415,0.104,8.829,0.174,13.244,0.183c11.556,0.024,23.11,0.008,34.668,0.006C448.515,247.853,448.475,247.978,448.464,246.973z
	 M442.836,242.827c-0.634,0.007-1.269,0.002-1.903,0.001c-12.216-0.016-24.431-0.022-36.645-0.057
	c-2.776-0.008-5.549-0.132-8.321-0.289c-1.829-0.104-3.421-0.729-4.896-1.804c-2.634-1.917-5.098-4.037-7.522-6.201
	c-6.593-5.879-12.912-12.048-19.333-18.11c-0.306-0.288-0.608-0.576-1.023-0.969c-0.094,0.824-0.024,1.453-0.022,2.082
	c0.026,8.223,0.049,16.446,0.069,24.669c0.003,0.669-0.006,0.677-0.706,0.677c-7.246,0.002-14.489,0.002-21.735,0.001
	c-0.723-0.001-0.726-0.007-0.726-0.82c-0.001-12.03-0.001-24.061-0.001-36.091c0-11.343-0.001-22.686,0.002-34.028
	c0-1.238-0.158-1.074,1.11-1.074c10.445-0.004,20.89-0.019,31.332,0.004c4.602,0.01,9.201,0.077,13.802,0.161
	c2.643,0.049,5.284,0.14,7.924,0.29c3.512,0.2,6.689,1.434,9.604,3.354c3.197,2.104,5.627,4.94,7.61,8.176
	c1.17,1.909,1.653,4.045,1.904,6.241c0.129,1.128,0.275,2.261,0.298,3.393c0.135,6.804-2.574,12.292-7.775,16.606
	c-1.224,1.015-2.535,1.902-3.911,2.695c-1.531,0.884-3.042,1.809-4.622,2.609c-0.635,0.322-0.713,0.581-0.328,1.193
	c0.665,1.058,1.539,1.947,2.399,2.843c1.378,1.435,2.945,2.649,4.514,3.864c0.281,0.218,0.565,0.245,0.886,0.249
	c4.492,0.057,8.986,0.113,13.481,0.174c4.758,0.064,9.519,0.103,14.275,0.208c3.146,0.07,6.292,0.076,9.438,0.125
	c0.187,0.003,0.371,0.021,0.555,0.005c0.382-0.034,0.504,0.134,0.509,0.505c0.021,1.533,0.075,3.066,0.104,4.599
	c0.091,4.705,0.178,9.41,0.268,14.115C443.46,242.814,443.466,242.82,442.836,242.827z M293.445,238.2
	c0.968,3.183,1.945,6.364,2.923,9.545c0.194,0.632,0.2,0.633,0.868,0.64c2.38,0.024,4.76,0.057,7.14,0.068
	c7.51,0.034,15.021,0.059,22.531,0.083c0.256,0,0.523,0.065,0.776-0.078c0.059-0.337-0.123-0.617-0.226-0.909
	c-1.825-5.293-3.657-10.584-5.488-15.876c-7.508-21.717-15.015-43.435-22.528-65.151c-0.254-0.733-0.055-0.696-0.991-0.696
	c-13.382-0.001-26.763-0.001-40.146-0.001c-0.947,0-0.766-0.017-1.035,0.757c-3.262,9.436-6.514,18.876-9.771,28.314
	c-5.979,17.327-11.961,34.653-17.938,51.982c-0.1,0.29-0.293,0.568-0.196,0.978h0.763c9.943,0,19.886,0.001,29.83,0
	c0.981,0,0.812,0.073,1.081-0.784c0.945-2.998,1.876-6,2.805-9.002c0.244-0.789,0.229-0.685,0.916-0.682
	c9.256,0.036,18.512,0.019,27.768,0.136C293.184,237.533,293.189,237.363,293.445,238.2z M261.204,232.344
	c-1.027-0.005-0.806-0.035-1.067,0.796c-0.947,2.997-1.869,6.001-2.805,9.002c-0.212,0.681-0.217,0.685-0.918,0.685
	c-6.479,0.001-12.958,0.001-19.437-0.001c-0.209,0-0.424,0.035-0.629-0.06c-0.066-0.251,0.076-0.464,0.15-0.681
	c8.117-23.519,16.238-47.037,24.359-70.555c0.279-0.809,0.188-0.718,1.064-0.719c10.975-0.002,21.949-0.002,32.924,0.001
	c0.801,0,0.729-0.143,1.038,0.754c7.009,20.27,14.017,40.54,21.024,60.81c1.182,3.42,2.364,6.84,3.545,10.261
	c0.089,0.246,0.219,0.483,0.206,0.785c-0.289,0.122-0.529,0.074-0.765,0.073c-6.268-0.024-12.533-0.052-18.802-0.079
	c-0.813-0.004-0.815-0.004-1.062-0.804c-0.957-3.131-1.909-6.265-2.879-9.394c-0.223-0.725-0.049-0.719-0.963-0.721
	c-6.797-0.021-13.592-0.038-20.389-0.067C270.936,232.409,266.07,232.372,261.204,232.344z M251.678,307.029
	c-6.313-18.162-12.623-36.325-18.938-54.486c-0.261-0.751-0.067-0.738-1.048-0.738c-13.223,0.01-26.444,0.02-39.667,0.03
	c-1.013,0.001-0.803-0.045-1.091,0.786c-2.001,5.765-3.989,11.531-5.98,17.299c-7.25,20.996-14.5,41.993-21.744,62.991
	c-0.092,0.266-0.256,0.526-0.182,0.95c0.261,0,0.496-0.004,0.734,0.002c4.072,0.037,8.144,0.037,12.216,0.107
	c5.737,0.102,11.476,0.135,17.214,0.194c0.74,0.008,0.742,0.004,0.958-0.717c0.93-3.113,1.852-6.229,2.789-9.339
	c0.303-1.006,0.051-0.862,1.157-0.854c6.584,0.045,13.168,0.103,19.752,0.154c2.671,0.021,5.341,0.038,8.012,0.06
	c0.619,0.006,0.622,0.014,0.813,0.609c0.251,0.779,0.496,1.561,0.741,2.342c0.775,2.471,1.561,4.936,2.314,7.413
	c0.13,0.431,0.317,0.636,0.771,0.567c0.103-0.016,0.211-0.002,0.317-0.002c9.758-0.035,19.515-0.067,29.273-0.101
	c1.208-0.004,1.08,0.028,0.723-0.999C257.77,324.542,254.723,315.786,251.678,307.029z M253.425,329.29
	c-6.292,0.04-12.583,0.078-18.876,0.118c-0.106,0-0.211,0.001-0.317,0.001c-0.625-0.009-0.634-0.005-0.821-0.595
	c-0.527-1.662-1.044-3.325-1.567-4.988c-0.507-1.612-1.027-3.221-1.513-4.84c-0.111-0.37-0.281-0.504-0.663-0.498
	c-1.11,0.017-2.221,0.004-3.331-0.004c-8.645-0.066-17.291-0.133-25.935-0.202c-2.088-0.019-4.176-0.058-6.265-0.081
	c-0.663-0.008-0.669,0-0.859,0.636c-0.951,3.188-1.898,6.378-2.848,9.567c-0.212,0.715-0.215,0.72-0.952,0.713
	c-6.265-0.063-12.531-0.128-18.796-0.191c-0.105-0.002-0.212-0.008-0.317-0.003c-0.394,0.021-0.436-0.159-0.319-0.489
	c0.472-1.347,0.928-2.697,1.394-4.045c7.669-22.215,15.338-44.431,23.014-66.645c0.377-1.092,0.158-0.932,1.31-0.934
	c10.761-0.016,21.521-0.022,32.282-0.033h0.159c0.877,0.004,0.694-0.029,0.94,0.656c0.544,1.516,1.063,3.039,1.592,4.562
	c7.697,22.149,15.395,44.3,23.09,66.45c0.085,0.246,0.217,0.48,0.2,0.845C253.793,329.29,253.609,329.289,253.425,329.29z
	 M319.779,272.652c-1.136-0.043-2.27-0.154-3.403-0.164c-2.562-0.026-5.125-0.01-7.688-0.01v-0.148h-10.701
	c-0.187,0-0.369,0.007-0.555-0.002c-0.26-0.014-0.404,0.081-0.39,0.359c0.008,0.158,0.003,0.316,0.003,0.476
	c-0.012,3.726-0.02,7.451-0.038,11.177c-0.008,1.585-0.032,3.17-0.073,4.756c-0.009,0.361,0.1,0.545,0.467,0.566
	c0.132,0.008,0.258,0.066,0.388,0.083c2.095,0.267,4.198,0.471,6.313,0.496c2.642,0.03,5.283,0.059,7.927,0.039
	c2.61-0.019,5.231,0.067,7.825-0.355c2.722-0.442,4.913-1.78,6.393-4.112c2.093-3.301,1.627-7.512-1.046-10.399
	C323.729,273.827,322.014,272.74,319.779,272.652z M322.465,282.128c-0.313,1.292-1.18,2.087-2.365,2.578
	c-0.767,0.317-1.583,0.41-2.399,0.452c-4.146,0.219-8.295,0.173-12.444,0.129c-0.923-0.01-1.847-0.096-2.771-0.116
	c-0.389-0.009-0.487-0.174-0.484-0.534c0.018-2.246,0.016-4.492,0.029-6.738c0.003-0.5,0.021-0.51,0.637-0.512
	c2.643-0.003,5.284-0.001,7.927-0.001c2.459-0.024,4.915,0.093,7.37,0.181c0.633,0.022,1.264,0.092,1.896,0.154
	c0.18,0.02,0.373,0.061,0.527,0.147C321.756,278.643,322.887,280.384,322.465,282.128z M390.714,188.308
	c-1.631-1.423-3.517-2.309-5.666-2.628c-1.337-0.198-2.686-0.266-4.03-0.276c-5.868-0.043-11.737-0.039-17.607-0.047
	c-0.602-0.001-0.613,0.013-0.613,0.614c-0.004,5.525-0.004,11.051,0,16.577c0,0.613,0.012,0.613,0.609,0.63
	c0.16,0.004,0.317,0.001,0.477,0.001h10.803c3.05-0.016,6.594-0.027,10.135-0.044c2.512-0.012,4.485-0.978,6.111-2.819
	c0.889-1.008,1.572-2.117,1.867-3.444c0.467-2.099,0.245-4.15-0.459-6.157C392.01,189.777,391.465,188.963,390.714,188.308z
	 M388,195.36c-0.027,0.489-0.216,0.933-0.525,1.303c-0.711,0.85-1.489,1.426-2.735,1.45c-2.641,0.052-5.282,0.081-7.534,0.094
	c-3.138,0-5.885,0.001-8.633-0.001c-0.742,0-0.749-0.004-0.75-0.711c-0.003-2.167-0.004-4.333,0-6.5
	c0.001-0.654,0.01-0.667,0.646-0.666c4.623,0.009,9.246-0.067,13.868,0.125c1.426,0.061,2.838,0.178,4.134,0.904
	c0.795,0.445,1.308,1.028,1.438,1.949C388.005,193.991,388.037,194.674,388,195.36z M266.408,216.802
	c0.648,0.132,23.795,0.086,24.693-0.049c-0.191-1.183-11.643-34.854-12.078-35.515C277.878,183.648,266.549,215.579,266.408,216.802
	z M273.305,211.834c1.864-5.242,3.709-10.427,5.555-15.614c0.048-0.007,0.097-0.014,0.146-0.021
	c1.755,5.176,3.513,10.352,5.308,15.635H273.305z M199.595,302.52h24.607c-3.945-11.684-7.858-23.269-11.819-34.996
	C208.095,279.259,203.851,290.874,199.595,302.52z M206.758,297.512c1.8-4.912,3.583-9.779,5.365-14.646
	c0.053-0.003,0.107-0.005,0.161-0.007c1.647,4.869,3.295,9.738,4.956,14.652H206.758z"/>
</svg>
